<?xml version="1.0" standalone="no"?>
<!DOCTYPE svg PUBLIC "-//W3C//DTD SVG 20010904//EN"
 "http://www.w3.org/TR/2001/REC-SVG-20010904/DTD/svg10.dtd">
<svg version="1.0" xmlns="http://www.w3.org/2000/svg"
 width="233.000000pt" height="947.000000pt" viewBox="0 0 233.000000 947.000000"
 preserveAspectRatio="xMidYMid meet">
<metadata>
Created by potrace 1.16, written by Peter Selinger 2001-2019
</metadata>
<g transform="translate(0.000000,947.000000) scale(0.100000,-0.100000)"
fill="#602A02" stroke="none">
<path d="M1086 9442 c-7 -12 19 -113 39 -152 9 -17 29 -46 46 -65 17 -19 29
-35 28 -35 -2 -1 -125 -2 -274 -4 -148 -2 -297 -7 -330 -11 -125 -15 -198 30
-210 129 l-7 57 -25 -23 c-14 -13 -36 -42 -50 -66 -22 -38 -25 -51 -21 -107 6
-74 28 -110 93 -155 61 -42 137 -70 209 -76 119 -10 117 -4 24 -105 -101 -110
-121 -142 -151 -245 -29 -102 -55 -145 -164 -270 -162 -187 -182 -245 -149
-435 24 -142 6 -211 -74 -283 -24 -21 -38 -42 -34 -46 14 -14 124 -40 166 -40
44 0 209 57 273 95 132 77 195 214 195 423 0 56 -6 117 -15 145 -8 26 -12 47
-9 47 3 0 19 -14 36 -30 79 -79 226 -112 338 -75 73 24 171 121 190 188 16 61
7 128 -25 184 -32 53 -69 73 -135 73 -69 0 -119 -25 -136 -67 -16 -38 -17 -38
-50 -17 -87 58 -69 222 38 339 62 68 158 117 277 140 123 25 241 6 372 -60 86
-44 225 -183 244 -245 7 -20 -1 -17 -46 24 -30 27 -88 65 -129 85 -70 33 -82
36 -168 36 -90 0 -95 -1 -118 -28 -26 -30 -32 -85 -12 -105 7 -7 31 -12 54
-12 47 0 66 -16 40 -35 -14 -11 -15 -19 -7 -56 6 -24 11 -60 11 -79 0 -44 30
-94 71 -119 18 -11 66 -27 108 -36 88 -20 99 -25 167 -75 65 -49 120 -132 152
-229 21 -66 23 -89 19 -177 -5 -98 -19 -158 -31 -124 -2 8 -7 62 -9 120 -10
218 -88 329 -236 333 -52 2 -63 -2 -96 -28 -20 -16 -52 -51 -71 -77 l-35 -46
61 -33 c104 -55 147 -128 170 -286 14 -93 2 -215 -29 -305 -39 -112 -143 -295
-214 -375 -33 -37 -37 -27 -16 35 28 79 59 272 59 362 0 91 -23 191 -55 245
-24 40 -91 115 -104 115 -4 0 -22 -33 -41 -72 l-34 -73 -5 81 c-5 68 -11 88
-35 123 -52 75 -116 104 -226 104 -72 -1 -109 -12 -157 -49 -41 -31 -41 -42
-3 -55 17 -6 30 -12 30 -13 0 -1 -9 -29 -21 -61 -26 -75 -30 -187 -7 -230 20
-38 42 -57 96 -84 49 -25 54 -41 12 -41 -16 0 -61 -5 -100 -12 -63 -11 -70
-14 -70 -35 0 -45 50 -121 133 -205 103 -104 140 -172 145 -269 3 -46 -1 -84
-13 -121 -28 -85 -141 -299 -184 -348 -59 -68 -66 -46 -24 85 40 127 52 236
33 316 -27 119 -137 304 -169 285 -5 -4 -22 -29 -37 -56 -15 -28 -31 -50 -36
-50 -4 0 -8 23 -8 50 0 60 -24 111 -72 158 -30 28 -44 34 -120 43 -71 10 -102
9 -184 -5 -54 -10 -100 -19 -102 -21 -2 -2 7 -23 19 -47 18 -35 24 -67 29
-168 8 -146 19 -176 87 -223 45 -32 45 -32 17 -34 -110 -9 -194 -26 -194 -39
0 -8 15 -45 33 -82 25 -53 56 -91 148 -182 64 -63 125 -131 135 -150 16 -29
19 -57 19 -165 0 -178 -17 -231 -45 -145 -17 50 -49 87 -85 96 -27 7 -172 -20
-209 -39 -18 -9 -16 -12 22 -44 126 -104 155 -305 77 -523 -46 -130 -109 -344
-130 -447 -27 -132 -38 -289 -39 -563 l-1 -265 38 -179 c55 -265 75 -339 123
-463 46 -118 148 -329 208 -428 20 -33 36 -63 36 -66 0 -3 -23 -4 -50 -1 -100
9 -205 -44 -241 -121 -27 -61 -26 -154 4 -198 24 -36 93 -76 142 -81 28 -3 30
-1 33 34 9 109 185 86 326 -43 66 -61 186 -215 254 -330 49 -81 122 -228 122
-246 0 -4 -35 27 -77 68 -75 74 -216 181 -278 212 -87 43 -243 46 -364 6 -122
-41 -202 -156 -205 -294 -1 -50 5 -72 34 -129 19 -38 45 -75 57 -83 20 -13 22
-12 37 35 32 96 132 162 246 161 63 0 64 0 44 -17 -32 -27 -51 -63 -59 -109
l-7 -43 114 0 c186 0 307 -46 406 -154 84 -93 96 -128 100 -289 2 -76 1 -155
-3 -175 l-7 -37 -29 79 c-46 124 -90 174 -210 240 -103 57 -171 76 -265 76
-152 0 -256 -61 -288 -170 -66 -222 8 -349 205 -350 42 0 89 5 106 10 57 20
81 108 49 185 l-15 35 33 0 c48 0 97 -37 126 -95 21 -43 25 -66 28 -175 6
-190 -41 -390 -121 -511 -29 -44 -56 -67 -43 -36 93 225 33 395 -147 414 -71
7 -128 -21 -202 -97 -51 -54 -104 -144 -92 -157 3 -2 20 3 38 12 47 25 123 16
157 -19 25 -25 27 -32 27 -114 0 -75 -4 -95 -29 -146 -16 -32 -43 -74 -60 -94
-43 -49 -138 -108 -205 -129 -31 -9 -60 -20 -64 -24 -15 -12 112 -106 165
-123 91 -29 197 -15 428 58 159 51 310 96 435 130 154 43 230 78 305 142 73
62 166 180 225 284 85 150 133 224 160 250 19 18 12 0 -28 -65 -29 -50 -59
-106 -67 -125 -20 -54 -118 -249 -142 -284 -72 -105 -185 -189 -287 -213 -110
-25 -110 -25 -76 -57 42 -39 158 -93 249 -116 112 -28 221 -26 330 5 211 61
300 146 382 361 49 129 53 150 27 138 -108 -47 -180 -60 -248 -45 -29 6 -26 9
57 49 66 32 96 54 131 94 80 95 95 149 71 262 -14 69 -14 83 1 161 9 47 29
124 46 172 19 52 27 89 21 95 -6 6 -53 3 -123 -6 -63 -8 -143 -15 -179 -14
-78 1 -124 -16 -172 -66 -37 -39 -48 -38 -48 4 0 105 -134 31 -208 -115 -31
-63 -36 -82 -44 -183 -11 -149 -19 -162 -49 -83 -13 34 -40 83 -60 109 -41 55
-61 57 -123 14 -52 -36 -99 -110 -146 -235 -62 -161 -99 -225 -170 -297 -65
-67 -193 -160 -219 -160 -7 0 20 35 60 78 84 88 194 247 254 366 22 45 60 115
84 156 24 41 61 104 82 140 59 101 106 251 134 430 30 186 71 302 161 451 35
59 135 138 226 179 128 58 286 -16 318 -150 27 -112 -43 -197 -119 -144 -18
13 -22 23 -17 45 8 39 -18 39 -72 -1 -90 -65 -75 -187 30 -242 59 -31 156 -31
214 -1 104 55 209 232 208 350 -3 148 -176 321 -355 354 -56 10 -80 9 -161 -5
-107 -19 -169 -46 -270 -113 -99 -65 -186 -185 -223 -306 -17 -59 -30 -45 -33
37 -3 83 23 227 58 319 44 117 150 213 306 276 116 47 141 61 196 110 85 76
147 232 148 371 0 57 -30 184 -48 202 -7 7 -17 -4 -30 -35 -25 -56 -83 -121
-136 -152 -23 -13 -88 -40 -146 -60 -58 -20 -132 -51 -165 -68 -69 -37 -199
-161 -238 -227 -22 -38 -55 -143 -81 -263 -4 -17 -11 -25 -18 -21 -7 5 -9 36
-5 98 12 193 98 372 264 546 103 107 122 122 308 240 220 140 264 172 352 254
97 91 158 180 195 282 40 114 33 313 -17 481 -20 68 -103 158 -182 200 -66 35
-118 49 -127 34 -4 -5 9 -38 28 -73 48 -86 60 -146 45 -217 -12 -60 -79 -241
-89 -241 -4 0 -14 16 -23 35 -27 56 -87 89 -172 93 -53 3 -81 0 -103 -12 -42
-22 -66 -68 -58 -115 18 -113 18 -122 2 -166 -16 -41 -65 -95 -87 -95 -5 0 -9
9 -9 21 0 41 -18 59 -61 59 -88 0 -105 -31 -112 -205 -5 -144 -20 -210 -74
-330 -78 -175 -183 -443 -194 -495 -25 -129 -14 -133 -124 50 -54 90 -112 196
-128 235 -32 74 -45 174 -33 240 11 58 75 119 175 166 96 45 138 80 186 154
33 52 89 171 100 216 8 34 -25 49 -108 49 l-62 0 67 40 c79 48 125 98 180 197
48 87 107 143 206 191 39 20 72 39 72 43 0 8 -126 65 -175 78 -58 16 -114 14
-255 -10 -211 -34 -339 -112 -370 -225 -13 -44 -26 -62 -37 -50 -3 3 -10 49
-14 102 -5 53 -11 99 -14 102 -11 11 -80 -33 -131 -83 -102 -101 -161 -250
-171 -428 -3 -59 -9 -104 -13 -100 -32 35 -94 314 -105 471 -6 74 -3 102 19
187 46 180 108 271 197 290 65 15 169 -69 169 -136 0 -34 17 -37 48 -9 47 44
71 131 58 204 -13 71 -107 146 -180 146 -51 0 -136 -20 -176 -41 -19 -10 -55
-37 -80 -60 -24 -23 -46 -37 -47 -32 -6 18 26 142 48 186 78 154 220 283 334
302 64 11 67 12 56 33 -40 75 -212 38 -323 -69 -28 -27 -53 -47 -55 -45 -11
10 115 304 193 451 171 323 436 610 651 707 38 17 68 21 148 22 93 0 110 -3
230 -44 117 -40 139 -44 225 -44 80 -1 110 4 190 31 163 54 215 54 276 1 19
-17 37 -28 40 -25 12 11 7 173 -6 212 -28 85 -111 180 -195 222 -64 33 -210
63 -305 63 -150 0 -271 -42 -425 -145 -45 -30 -85 -55 -88 -55 -9 0 18 43 61
97 138 172 560 400 867 468 l30 7 -51 47 c-60 55 -108 80 -171 89 l-45 7 20
25 c41 52 157 248 192 325 50 108 99 284 112 403 20 193 -5 510 -56 708 -21
81 -20 91 9 119 34 35 62 32 87 -10 45 -78 58 6 14 93 -14 27 -39 64 -56 81
-32 31 -110 61 -162 61 -58 0 -124 -54 -134 -109 -4 -20 -9 -40 -11 -44 -3 -5
-41 30 -85 77 -94 101 -303 258 -428 321 -47 23 -123 56 -170 73 -47 17 -92
33 -101 37 -10 3 -20 2 -23 -3z m-586 -1168 c0 -14 -51 -146 -71 -186 -40 -79
-124 -186 -136 -174 -2 2 15 42 37 91 70 152 170 310 170 269z m628 -707 c48
-86 100 -227 111 -304 22 -146 7 -398 -26 -457 -4 -8 -8 92 -8 222 -1 267 -8
306 -85 481 -57 128 -52 165 8 58z m-571 -754 c105 -200 130 -419 70 -618 -10
-35 -13 -11 -18 190 -6 241 -12 273 -67 397 -46 101 -34 124 15 31z m244
-2810 c-5 -10 -21 -29 -36 -43 -42 -39 -194 -274 -221 -343 -21 -51 -54 -215
-54 -265 0 -7 -5 -10 -11 -6 -17 10 -5 206 16 269 45 134 187 330 279 386 38
23 39 23 27 2z m989 -335 c0 -27 -118 -144 -254 -253 -101 -81 -163 -140 -221
-210 -44 -53 -81 -101 -83 -106 -2 -5 -8 -9 -13 -9 -18 0 -8 39 28 111 47 95
132 180 278 278 129 86 178 123 224 168 38 37 41 38 41 21z"/>
<path d="M1120 6009 c-68 -12 -150 -64 -187 -120 -23 -36 -26 -49 -26 -127 0
-104 19 -156 82 -222 22 -24 41 -44 41 -45 0 -1 -37 -1 -83 -1 -77 1 -86 -1
-141 -34 -78 -47 -102 -91 -86 -163 12 -58 47 -110 94 -138 25 -15 50 -19 124
-19 50 0 92 -3 92 -7 0 -3 -24 -32 -54 -63 -29 -31 -63 -75 -75 -98 -28 -54
-28 -131 0 -189 29 -59 107 -128 163 -142 58 -14 151 -14 179 0 47 26 84 91
114 205 9 35 20 64 23 64 3 0 14 -23 24 -51 19 -51 83 -146 127 -186 36 -33
92 -53 149 -53 110 0 239 106 270 221 11 41 -3 136 -27 184 -9 16 -34 47 -57
68 -44 40 -36 46 29 22 54 -19 119 -19 158 1 76 39 130 88 154 140 l24 52 -21
58 c-22 64 -64 113 -125 149 -73 43 -114 41 -247 -10 -28 -11 -21 6 23 60 23
28 53 74 67 104 30 65 26 127 -13 208 -31 62 -75 92 -174 119 -61 17 -65 17
-115 0 -99 -35 -134 -75 -156 -179 -13 -64 -38 -132 -46 -124 -3 3 -14 46 -24
97 -22 108 -51 158 -112 194 -53 30 -97 37 -168 25z m400 -519 c44 -22 65 -45
85 -93 17 -42 20 -123 4 -164 -14 -38 -57 -83 -96 -99 -42 -18 -135 -18 -176
0 -77 33 -124 113 -113 192 21 154 161 231 296 164z"/>
<path d="M1382 5405 c-26 -19 -52 -66 -52 -95 0 -24 27 -81 44 -92 18 -12 65
-9 94 6 74 38 86 97 31 151 -41 42 -85 53 -117 30z"/>
</g>
</svg>
