<?xml version="1.0" encoding="UTF-8"?>
<svg version="1.1" xmlns="http://www.w3.org/2000/svg" width="512" height="512">
<path d="M0 0 C0.80601151 0.23583801 1.61202301 0.47167603 2.44245911 0.71466064 C4.179351 1.22338785 5.91547552 1.73474108 7.65089226 2.24847794 C10.4033398 3.06206153 13.15840371 3.86612667 15.91444397 4.66744995 C23.7456707 6.94536019 31.57370477 9.23386995 39.39550781 11.54394531 C44.19225715 12.95987784 48.99352547 14.35946741 53.79800606 15.74892807 C55.6205454 16.27944344 57.44131584 16.8160773 59.2601757 17.35907364 C61.80856617 18.11934757 64.36222074 18.85865202 66.91796875 19.59375 C67.65850494 19.82019196 68.39904114 20.04663391 69.16201782 20.27993774 C77.55484103 22.64169402 84.97688515 20.78284736 93.14526367 18.33496094 C93.95463379 18.09912292 94.76400391 17.86328491 95.59790039 17.62030029 C97.33878538 17.11221783 99.07871478 16.60085152 100.81775284 16.086483 C103.57373669 15.27218678 106.33260219 14.46843872 109.09249878 13.66751099 C116.93318461 11.39036333 124.76886286 9.09630597 132.60131836 6.79101562 C137.40639342 5.37754896 142.21526672 3.97769637 147.02669907 2.58603287 C148.85342366 2.05464199 150.67862356 1.51797959 152.50220108 0.9758873 C155.05157409 0.21825042 157.60541447 -0.52203838 160.16088867 -1.25878906 C160.90704437 -1.48523102 161.65320007 -1.71167297 162.42196655 -1.94497681 C167.10566743 -3.27083847 170.67926898 -3.49372125 175.52368164 -2.33251953 C177.45727539 -0.52416992 177.45727539 -0.52416992 178.96118164 1.88232422 C179.82936523 3.24526611 179.82936523 3.24526611 180.71508789 4.63574219 C181.31192383 5.63621582 181.90875977 6.63668945 182.52368164 7.66748047 C183.15145508 8.70275879 183.77922852 9.73803711 184.42602539 10.8046875 C186.49023977 14.26224658 188.51121473 17.74220126 190.52368164 21.22998047 C192.01995269 23.80951943 193.51946683 26.38716309 195.01977539 28.96435547 C195.39565292 29.61072464 195.77153046 30.25709381 196.15879822 30.92304993 C199.26787586 36.25763691 202.45662156 41.54001975 205.66479492 46.81567383 C222.7862374 75.01275336 234.68506762 103.44744645 226.55102539 137.18310547 C223.54279025 147.38594101 219.65845669 156.75542951 214.71118164 166.16748047 C214.2913501 166.96806885 213.87151855 167.76865723 213.43896484 168.59350586 C211.36311506 172.47612108 209.20424658 176.21791686 206.73852539 179.86669922 C206.3032251 180.54087891 205.8679248 181.21505859 205.41943359 181.90966797 C204.14868164 183.85498047 204.14868164 183.85498047 202.86425781 185.53857422 C200.76890186 188.80077204 200.4078999 190.9923068 201.07015991 194.85423279 C201.40206329 196.09769974 201.73396667 197.34116669 202.07592773 198.62231445 C202.35076996 199.6651229 202.35076996 199.6651229 202.63116455 200.72899818 C203.24773837 203.04594688 203.88342762 205.35696884 204.52368164 207.66748047 C204.74272785 208.46347593 204.96177406 209.2594714 205.18745804 210.07958794 C206.91129725 216.32436476 208.68272271 222.55526501 210.46118164 228.78466797 C211.02888218 230.77806539 211.59650767 232.77148419 212.1640625 234.7649231 C213.34555059 238.91201223 214.52916923 243.05848638 215.71411133 247.20458984 C217.22570741 252.49497195 218.72998869 257.78740392 220.23246765 263.08038139 C221.399041 267.18569165 222.57044967 271.28961072 223.74319458 275.39316177 C224.29983463 277.34374705 224.85477993 279.29481684 225.40792847 281.24639511 C229.36252613 299.72152453 229.36252613 299.72152453 240.52368164 313.66748047 C243.13566351 314.84962743 245.80762879 315.75573128 248.52368164 316.66748047 C259.32816338 320.648079 268.09196143 325.71832044 273.88696289 336.11279297 C276.13568252 341.06815331 277.65825021 345.69843026 277.83618164 351.16748047 C277.87356445 351.92029297 277.91094727 352.67310547 277.94946289 353.44873047 C277.35202616 356.56197874 275.89750655 357.61456773 273.52368164 359.66748047 C271.21708679 360.68190002 271.21708679 360.68190002 268.63964844 361.41577148 C267.17520042 361.84310326 267.17520042 361.84310326 265.6811676 362.27906799 C264.62243942 362.57353317 263.56371124 362.86799835 262.47290039 363.17138672 C261.36232773 363.4915123 260.25175507 363.81163788 259.10752869 364.14146423 C255.4789738 365.1839179 251.84539076 366.20742959 248.21118164 367.22998047 C245.71465087 367.94125814 243.21839551 368.65350314 240.72241211 369.36669922 C235.70513464 370.79823882 230.68575834 372.22207093 225.66479492 373.640625 C220.21265433 375.18353911 214.76867341 376.75202758 209.33009338 378.34202576 C205.7600905 379.38565512 202.18742389 380.4199389 198.61416626 381.45236206 C196.98598357 381.92461948 195.35881911 382.40040336 193.73275757 382.87991333 C177.47588607 387.66274342 177.47588607 387.66274342 170.52368164 386.66748047 C165.83872526 383.51184902 165.22517901 379.14664164 164.06274414 373.89013672 C162.11714772 362.25885376 164.03655643 352.4187827 170.84399414 342.74951172 C172.49286851 340.70567442 174.23092815 338.95765809 176.14868164 337.16748047 C180.86947574 332.63509944 183.33335755 327.73409359 183.73985291 321.18440247 C183.68677669 315.83474428 182.1994713 310.99198339 180.69384766 305.89282227 C180.39309326 304.84308731 180.09233887 303.79335236 179.7824707 302.71180725 C178.79091374 299.26044419 177.78439283 295.81364205 176.77758789 292.36669922 C176.08404714 289.96419544 175.39142836 287.56142535 174.69969177 285.15840149 C173.065454 279.48984083 171.42171203 273.82410537 169.77336305 268.15963346 C167.71576335 261.0864104 165.67385033 254.00867608 163.63110352 246.93115234 C160.92142226 237.5506352 158.20762193 228.17132937 155.48291016 218.79516602 C155.19663254 217.80864044 154.91035492 216.82211487 154.61540222 215.80569458 C154.35318878 214.90440323 154.09097534 214.00311188 153.82081604 213.07450867 C153.59313317 212.29123546 153.36545031 211.50796225 153.13086796 210.70095348 C152.14359025 206.81640218 152.14359025 206.81640218 149.27734375 204.20043945 C148.29515869 203.69327393 147.31297363 203.1861084 146.30102539 202.66357422 C145.21265381 202.09300293 144.12428223 201.52243164 143.00292969 200.93457031 C141.83415283 200.33080566 140.66537598 199.72704102 139.46118164 199.10498047 C137.06663069 197.84279406 134.67753942 196.57048069 132.28930664 195.29638672 C131.12463867 194.67521973 129.9599707 194.05405273 128.76000977 193.4140625 C108.53589521 182.49950943 93.38777021 169.11327619 82.28540039 148.76904297 C80.83728151 146.21958312 79.35129222 143.95058784 77.52368164 141.66748047 C77.07379883 142.58787109 76.62391602 143.50826172 76.16040039 144.45654297 C65.57274436 165.52802697 50.00726986 182.14018491 28.33483887 192.09500122 C25.72173389 193.30650968 23.13979083 194.57870224 20.55657959 195.85247803 C19.26713166 196.46762493 17.96374515 197.05455384 16.64703369 197.60894775 C10.35107008 200.26833665 5.24333768 203.23218592 2.54443359 209.77246094 C0.90801356 214.64102313 -0.25938336 219.62583732 -1.45614624 224.61724854 C-2.61453504 229.32981559 -3.97714636 233.97975221 -5.34277344 238.63574219 C-5.60574565 239.53259295 -5.86871786 240.4294437 -6.13965893 241.35347176 C-6.68919153 243.22649331 -7.238908 245.09946093 -7.78879738 246.97237778 C-9.20489218 251.81955768 -10.5913959 256.67515564 -11.97827148 261.53076172 C-13.70469675 267.57409477 -15.43334059 273.6166851 -17.1796875 279.65429688 C-18.61177335 284.60560633 -20.03218801 289.56012386 -21.44433784 294.51715469 C-21.97893123 296.38649984 -22.51753718 298.25470267 -23.06037712 300.12166977 C-23.81561606 302.72226484 -24.55572609 305.32673457 -25.29248047 307.93261719 C-25.51525162 308.68699066 -25.73802277 309.44136414 -25.96754456 310.21859741 C-28.02752364 317.621385 -28.77268393 324.72699483 -24.94506836 331.64404297 C-23.19240374 334.05861816 -21.20134749 335.9880778 -19.03881836 338.04248047 C-11.07986947 345.66107957 -8.04755503 354.69839312 -7.16381836 365.47998047 C-7.36651728 372.20958447 -9.10011286 378.91506947 -12.10131836 384.91748047 C-15.70507033 387.57287666 -19.12341263 387.02406732 -23.47631836 386.66748047 C-26.63439425 386.08884092 -29.67827068 385.2353051 -32.75634766 384.32836914 C-33.63559906 384.07959518 -34.51485046 383.83082123 -35.42074585 383.57450867 C-38.30078485 382.75636954 -41.17560035 381.92132442 -44.05053711 381.08544922 C-46.06329411 380.50884126 -48.07630405 379.93311561 -50.08955383 379.35823059 C-54.29688369 378.15413098 -58.50181985 376.94211183 -62.70507812 375.72387695 C-68.08493144 374.16490514 -73.46913796 372.62167124 -78.85505962 371.08381176 C-83.00774494 369.89698021 -87.15862949 368.70395501 -91.30893898 367.50884438 C-93.29361155 366.93771318 -95.27869434 366.36800547 -97.2641964 365.79976463 C-100.03938432 365.00405739 -102.81219417 364.20055218 -105.58447266 363.39477539 C-106.3996788 363.16244202 -107.21488495 362.93010864 -108.05479431 362.69073486 C-118.90453035 359.51262291 -118.90453035 359.51262291 -121.91381836 355.97998047 C-123.78512277 348.28684013 -119.96910532 340.36424513 -116.47631836 333.66748047 C-114.41052094 330.66177035 -112.1344896 328.15776721 -109.47631836 325.66748047 C-108.91557617 325.12478516 -108.35483398 324.58208984 -107.77709961 324.02294922 C-102.55683633 319.55005552 -96.54868279 317.82666271 -90.06225586 315.94091797 C-83.73371463 313.69352751 -79.590314 310.62920518 -76.47631836 304.66748047 C-75.1610429 301.17475528 -74.15457906 297.61127931 -73.14819336 294.01904297 C-72.6883757 292.42694756 -72.6883757 292.42694756 -72.2192688 290.8026886 C-71.21110631 287.30220427 -70.21818367 283.79761453 -69.22631836 280.29248047 C-68.52928716 277.85160014 -67.83152221 275.41092925 -67.13305664 272.97045898 C-66.04139551 269.1538312 -64.95065723 265.33695836 -63.86538696 261.51850891 C-61.41750836 252.912196 -58.91304708 244.3239756 -56.37591553 235.74358368 C-55.05558424 231.26983287 -53.74873947 226.79212295 -52.44030762 222.31488037 C-51.71602638 219.84744476 -50.98615007 217.38164441 -50.25061035 214.9175415 C-49.22390309 211.4727592 -48.21883051 208.02234451 -47.21850586 204.56982422 C-46.9089798 203.55036209 -46.59945374 202.53089996 -46.2805481 201.48054504 C-44.36794791 194.77107383 -44.55572924 191.41331802 -47.76977539 185.14477539 C-48.49463135 183.90884644 -48.49463135 183.90884644 -49.23413086 182.64794922 C-49.77368408 181.71660156 -50.3132373 180.78525391 -50.86914062 179.82568359 C-51.44075928 178.84535156 -52.01237793 177.86501953 -52.60131836 176.85498047 C-68.35209355 149.3307888 -78.44041424 121.01207745 -70.36303711 88.84936523 C-65.16484341 70.24586237 -54.36884358 54.06209132 -44.47631836 37.66748047 C-44.08909607 37.02530579 -43.70187378 36.3831311 -43.30291748 35.72149658 C-38.65186923 28.01138261 -33.9859912 20.31033664 -29.27172852 12.63867188 C-28.09688993 10.694453 -26.94937658 8.73339199 -25.83325195 6.75488281 C-25.32745605 5.86365723 -24.82166016 4.97243164 -24.30053711 4.05419922 C-23.87216553 3.2764917 -23.44379395 2.49878418 -23.00244141 1.69750977 C-17.06422194 -6.20143358 -8.04350357 -2.40899299 0 0 Z M-10.47631836 15.66748047 C-16.20582581 22.5982247 -20.34458035 31.14385815 -24.85131836 38.91748047 C-26.29459217 41.40304672 -27.74007328 43.88731314 -29.18725586 46.37060547 C-29.53914978 46.97578003 -29.8910437 47.58095459 -30.25360107 48.20446777 C-33.39924708 53.59046532 -36.69419957 58.87672889 -40.02954102 64.14697266 C-41.6422586 66.47220351 -41.6422586 66.47220351 -41.47631836 68.66748047 C-4.90018996 79.7356964 30.35809402 82.66748047 68.52368164 82.66748047 C68.85368164 68.14748047 69.18368164 53.62748047 69.52368164 38.66748047 C64.36921781 36.73455653 59.47704348 34.99316106 54.22143555 33.4909668 C53.2003772 33.19770256 53.2003772 33.19770256 52.15869141 32.89851379 C49.9401278 32.26225028 47.72024772 31.63073088 45.50024414 30.99951172 C43.94699134 30.55560669 42.39380018 30.11148594 40.84066772 29.66716003 C37.60197626 28.7414131 34.36263936 27.81797121 31.12280273 26.89624023 C26.96536865 25.71329622 22.80948538 24.52500556 18.65404701 23.33507252 C15.45481863 22.41950076 12.25486191 21.50649718 9.05466843 20.59430504 C7.52100865 20.15685768 5.98756282 19.71865952 4.45433426 19.27970314 C2.32013502 18.66915636 0.18499702 18.06201356 -1.95043945 17.45581055 C-3.16541107 17.10956131 -4.38038269 16.76331207 -5.63217163 16.40657043 C-8.30916837 15.58364376 -8.30916837 15.58364376 -10.47631836 15.66748047 Z M157.24414062 17.67114258 C156.11957458 17.99060097 156.11957458 17.99060097 154.97229004 18.31651306 C152.48733988 19.02324798 150.00352655 19.73388792 147.51977539 20.44482422 C145.79870928 20.93581015 144.07760383 21.42665822 142.35646057 21.91737366 C138.74706274 22.94714136 135.13823886 23.9788919 131.52978516 25.01196289 C126.894636 26.33874864 122.25797173 27.66014976 117.62084866 28.98001766 C114.06612366 29.99252387 110.51228177 31.00810122 106.95869637 32.02459908 C105.24887874 32.51323596 103.53876823 33.00084917 101.82836723 33.48744011 C99.44260435 34.16661216 97.05807503 34.84995203 94.67382812 35.53442383 C93.60392387 35.83760529 93.60392387 35.83760529 92.5124054 36.14691162 C89.25075076 36.90044328 89.25075076 36.90044328 86.52368164 38.66748047 C85.78131538 53.27462829 86.94525501 68.07143821 87.52368164 82.66748047 C125.02317063 83.01577294 161.52802284 79.88516996 197.52368164 68.66748047 C196.05378021 64.69112624 194.17253553 61.15935234 192.03149414 57.50341797 C191.68912216 56.91744339 191.34675018 56.33146881 190.9940033 55.72773743 C189.88310002 53.83014708 188.7664802 51.93601624 187.64868164 50.04248047 C187.26984833 49.39896637 186.89101501 48.75545227 186.5007019 48.09243774 C181.61343317 39.79530249 176.68240634 31.52593274 171.58618164 23.35498047 C171.09714355 22.5620459 170.60810547 21.76911133 170.10424805 20.95214844 C168.96722812 19.15360451 167.75389253 17.40361288 166.52368164 15.66748047 C163.30864477 15.66748047 160.31481256 16.78978284 157.24414062 17.67114258 Z M-50.47631836 83.66748047 C-51.12526073 85.72900436 -51.77034476 87.79174304 -52.41381836 89.85498047 C-52.95329102 91.5778125 -52.95329102 91.5778125 -53.50366211 93.33544922 C-59.68966598 114.52686006 -55.09879133 136.32370961 -44.79956055 155.23144531 C-43.23511312 158.11152953 -41.70417575 161.00858025 -40.17163086 163.90576172 C-39.00378755 166.09792906 -37.83451693 168.28933662 -36.66381836 170.47998047 C-36.10057861 171.53701172 -35.53733887 172.59404297 -34.95703125 173.68310547 C-34.1525354 175.17003906 -34.1525354 175.17003906 -33.33178711 176.68701172 C-32.85378662 177.57493408 -32.37578613 178.46285645 -31.88330078 179.37768555 C-28.22020612 185.33919255 -23.58059313 186.11379047 -17.10131836 187.91748047 C-16.15514648 188.19849609 -15.20897461 188.47951172 -14.23413086 188.76904297 C-13.31631836 189.02943359 -12.39850586 189.28982422 -11.45288086 189.55810547 C-10.61837402 189.79561523 -9.78386719 190.033125 -8.92407227 190.27783203 C-4.04010564 191.05529171 -0.59732807 189.39840825 3.58618164 187.00732422 C5.01957886 186.19376465 5.01957886 186.19376465 6.48193359 185.36376953 C7.48571045 184.78336914 8.4894873 184.20296875 9.52368164 183.60498047 C10.55517334 183.01297852 11.58666504 182.42097656 12.64941406 181.81103516 C15.61229723 180.10464558 18.56835603 178.38691401 21.52368164 176.66748047 C22.24378418 176.25449707 22.96388672 175.84151367 23.70581055 175.41601562 C31.48850737 170.94813349 38.17353323 166.01762888 44.52368164 159.66748047 C45.30614258 158.88501953 46.08860352 158.10255859 46.89477539 157.29638672 C62.03331483 141.34092778 68.52368164 120.40477559 68.52368164 98.66748047 C66.62984741 98.64560669 66.62984741 98.64560669 64.69775391 98.62329102 C26.97570846 98.15315981 -9.31490383 96.1254413 -45.58178711 84.55029297 C-48.2907916 83.57023828 -48.2907916 83.57023828 -50.47631836 83.66748047 Z M198.74633789 85.02294922 C187.28033253 88.44047293 175.87354616 91.38965433 164.08618164 93.47998047 C162.45724976 93.77134888 162.45724976 93.77134888 160.79541016 94.06860352 C143.4919257 97.01219964 126.43182474 98.02222007 108.89868164 98.29248047 C106.81273008 98.33078459 104.72679222 98.36984283 102.64086914 98.40966797 C97.60192175 98.50426802 92.56290128 98.58877266 87.52368164 98.66748047 C87.65065539 101.34376927 87.78600707 104.01921143 87.92602539 106.69482422 C87.96062866 107.44227905 87.99523193 108.18973389 88.03088379 108.95983887 C88.98977263 126.72578432 96.50906649 143.60714881 108.52368164 156.66748047 C109.26102539 157.49634766 109.99836914 158.32521484 110.75805664 159.17919922 C122.72881014 171.95191496 138.93273893 179.30512338 154.20214844 187.38989258 C156.52368164 188.66748047 156.52368164 188.66748047 159.52368164 190.66748047 C162.93261022 190.49335052 166.21695209 189.4824293 169.52368164 188.66748047 C170.69801758 188.43158203 171.87235352 188.19568359 173.08227539 187.95263672 C174.30043945 187.67291016 175.51860352 187.39318359 176.77368164 187.10498047 C177.91321289 186.85619141 179.05274414 186.60740234 180.22680664 186.35107422 C185.0634344 183.88118492 186.89634131 180.30643121 189.52368164 175.66748047 C190.05928711 174.72557861 190.59489258 173.78367676 191.14672852 172.81323242 C192.8460003 169.76007132 194.50277617 166.68720765 196.14868164 163.60498047 C196.70813477 162.56792969 197.26758789 161.53087891 197.84399414 160.46240234 C199.41684437 157.53742025 200.97436015 154.60498143 202.52368164 151.66748047 C202.92337158 150.91700439 203.32306152 150.16652832 203.73486328 149.39331055 C205.92127622 145.18358914 207.46055029 141.07924108 208.71118164 136.47998047 C209.03473633 135.31080078 209.35829102 134.14162109 209.69165039 132.93701172 C213.92771601 116.29106371 211.88795546 99.76030192 206.52368164 83.66748047 C203.53403918 83.66748047 201.58444346 84.15353993 198.74633789 85.02294922 Z M-28.47631836 201.66748047 C-32.34611909 213.69633137 -36.00554783 225.76505327 -39.4331398 237.92715645 C-40.19613817 240.63330759 -40.96327102 243.33825863 -41.73141479 246.04295349 C-43.9100582 253.71639672 -46.08236757 261.39162353 -48.25024414 269.06811523 C-49.58830212 273.80512605 -50.93161225 278.54062237 -52.27807236 283.27525139 C-52.78478905 285.06107606 -53.28950763 286.84746907 -53.79208755 288.63446236 C-60.37646498 312.04354983 -60.37646498 312.04354983 -66.47631836 320.66748047 C-66.97131836 322.15248047 -66.97131836 322.15248047 -67.47631836 323.66748047 C-69.32397461 324.70654297 -69.32397461 324.70654297 -71.47631836 325.66748047 C-72.62685259 326.45229964 -73.7724992 327.24431963 -74.91381836 328.04248047 C-78.47793646 330.3275132 -81.90274954 331.47684264 -85.97631836 332.60498047 C-91.73841419 334.26467822 -96.29515549 336.28454567 -100.47631836 340.66748047 C-102.02083031 343.33895783 -102.02083031 343.33895783 -102.47631836 345.66748047 C-94.87052466 348.72286192 -87.0216636 350.89007361 -79.14428711 353.11669922 C-77.66069986 353.53821503 -76.17716494 353.95991509 -74.69367981 354.38179016 C-71.60045084 355.26058363 -68.50653224 356.13689476 -65.41210938 357.01147461 C-61.44507766 358.1329389 -57.47997077 359.26104818 -53.51536083 360.39103985 C-50.45958596 361.26113686 -47.40277303 362.12753906 -44.34563637 362.99283791 C-42.88245289 363.40750339 -41.41960879 363.82336837 -39.95711327 364.24045372 C-37.91923661 364.82107737 -35.88000358 365.39666583 -33.84033203 365.97094727 C-32.6808757 366.29943161 -31.52141937 366.62791595 -30.326828 366.96635437 C-27.48003464 367.78690362 -27.48003464 367.78690362 -24.47631836 367.66748047 C-24.80251913 357.39215626 -29.26336473 351.69548657 -36.47631836 344.66748047 C-43.25729221 336.92067058 -45.02825961 328.21342464 -44.92089844 318.08944702 C-44.22032259 308.3213924 -40.67971648 298.76922933 -37.91381836 289.43701172 C-37.23947147 287.11058549 -36.56689288 284.78364605 -35.89599609 282.45622253 C-34.136603 276.3683766 -32.35575059 270.28703081 -30.56945801 264.20703125 C-28.04661138 255.60540608 -25.55304931 246.99523706 -23.05664062 238.38591003 C-21.72897365 233.80735286 -20.39295478 229.23136197 -19.05029297 224.65718079 C-18.44356398 222.57965225 -17.83687245 220.50211278 -17.23022461 218.42456055 C-16.94970245 217.47551346 -16.6691803 216.52646637 -16.38015747 215.54866028 C-16.12773285 214.68128235 -15.87530823 213.81390442 -15.61523438 212.92024231 C-15.39400406 212.16688504 -15.17277374 211.41352777 -14.94483948 210.6373415 C-14.3606234 208.51851862 -14.3606234 208.51851862 -14.47631836 205.66748047 C-19.09631836 204.34748047 -23.71631836 203.02748047 -28.47631836 201.66748047 Z M183.52368164 201.66748047 C177.08868164 203.64748047 177.08868164 203.64748047 170.52368164 205.66748047 C172.23878919 215.47767012 175.06887817 224.93663208 177.82836914 234.49169922 C178.35440288 236.32466162 178.88004065 238.15773769 179.40530396 239.99092102 C180.78455915 244.80127191 182.16833589 249.61030933 183.55334473 254.41900635 C185.76339465 262.09482088 187.96677173 269.77255236 190.16968155 277.45041847 C190.93249448 280.10651417 191.69738593 282.762004 192.46261597 285.41740417 C193.82871289 290.16394721 195.18226745 294.91390406 196.52368164 299.66748047 C196.83085491 300.75310461 196.83085491 300.75310461 197.1442337 301.86066055 C197.71840175 303.90212702 198.2832259 305.94591771 198.84448242 307.9909668 C199.16039337 309.13406815 199.47630432 310.27716949 199.80178833 311.45491028 C202.11423473 321.74576109 200.58916875 331.67073934 195.33618164 340.79248047 C193.35097297 343.79435661 191.07623325 346.14061027 188.46118164 348.60498047 C183.50761906 353.3712628 180.75818488 358.32580933 180.27368164 365.22998047 C180.35618164 366.03435547 180.43868164 366.83873047 180.52368164 367.66748047 C189.21053079 366.1465561 197.64594527 363.78526482 206.12133789 361.38623047 C207.60677698 360.96779092 209.09224605 360.5494578 210.57774353 360.13122559 C213.66882253 359.25982303 216.75899039 358.38527069 219.84863281 357.50878906 C223.81432962 356.38435518 227.78301384 355.27087283 231.75252628 354.15999603 C234.81056737 353.3023874 237.86655347 352.43763528 240.92199516 351.57081604 C242.38575683 351.15679007 243.85025306 350.74535219 245.31547737 350.33653259 C247.35201104 349.76747281 249.38547436 349.18853124 251.41845703 348.60693359 C252.57632217 348.27987427 253.73418732 347.95281494 254.92713928 347.61584473 C257.66770146 346.95170377 257.66770146 346.95170377 258.52368164 344.66748047 C252.7780626 335.61377775 246.55555099 333.6087782 236.55102539 330.66357422 C227.22274014 327.59426746 221.24226827 319.96987202 216.52368164 311.66748047 C215.05292012 308.05680841 213.9966831 304.37748907 212.96508789 300.62060547 C212.65881973 299.55506943 212.35255157 298.48953339 212.03700256 297.39170837 C211.03856075 293.90433291 210.06244719 290.41112201 209.08618164 286.91748047 C208.39346434 284.4851806 207.69926932 282.05330114 207.00366211 279.62182617 C205.00633377 272.62233393 203.03303032 265.61624658 201.06777191 258.60770416 C200.34341727 256.02465846 199.61827943 253.44183291 198.8931284 250.8590107 C198.35444273 248.94026745 197.81591581 247.02147964 197.27738953 245.10269165 C196.23439367 241.3885723 195.18954722 237.67497717 194.14453125 233.96142578 C192.82658833 229.27734169 191.52007302 224.59028151 190.22119141 219.90087891 C189.62689948 217.77484909 189.03242714 215.64886968 188.43774414 213.52294922 C188.17075211 212.5484935 187.90376007 211.57403778 187.62867737 210.5700531 C187.379561 209.68463333 187.13044464 208.79921356 186.8737793 207.88696289 C186.66000641 207.11575607 186.44623352 206.34454926 186.22598267 205.54997253 C185.59569805 203.46260099 185.59569805 203.46260099 183.52368164 201.66748047 Z " fill="#000000" transform="translate(178.476318359375,109.33251953125)"/>
<path d="M0 0 C2.83833981 2.17483181 5.44069978 4.50508469 8 7 C8.60457031 7.58910156 9.20914063 8.17820312 9.83203125 8.78515625 C11.23574782 10.17572325 12.62019674 11.58570166 14 13 C17.78767348 11.45365624 19.98390504 9.09370701 22.75 6.125 C29.01917798 -0.29234171 35.27410732 -4.04355566 44.4453125 -4.29272461 C55.20943635 -4.3932659 63.15742901 -2.59378125 71.2421875 5 C78.44405531 13.19412515 79.47477506 21.49927737 79.2734375 32.01171875 C78.31935644 45.92767255 66.16665472 54.98707848 56.88671875 64.24609375 C55.82519707 65.30829045 54.76382376 66.37063543 53.70259094 67.43312073 C51.49467037 69.64250511 49.28497746 71.85009677 47.07397461 74.05639648 C44.23812558 76.8865068 41.40684673 79.72114035 38.57684612 82.55709743 C36.3936934 84.74385573 34.20817461 86.92823672 32.02192116 89.11189461 C30.97616979 90.15697887 29.93116083 91.20280656 28.88690758 92.24938774 C27.43441236 93.70441392 25.97876575 95.15621109 24.5222168 96.60717773 C23.69505661 97.43354233 22.86789642 98.25990692 22.01567078 99.11131287 C19.68660478 101.29365189 18.50385002 101.90402857 15.375 102.5 C6.59330078 101.19900752 -0.97927798 90.21750062 -7.140625 84.09765625 C-7.65785881 83.58449797 -8.17509262 83.07133968 -8.70800018 82.54263115 C-11.43879025 79.83253402 -14.16641196 77.11929261 -16.89160156 74.40356445 C-19.68941682 71.61685811 -22.4987308 68.84204393 -25.31070328 66.06963444 C-27.4896564 63.91691063 -29.65959586 61.75526695 -31.82726288 59.59118462 C-32.85883473 58.56445189 -33.89375359 57.54106959 -34.93219757 56.52128792 C-43.49879691 48.09932685 -49.19594226 40.91637271 -49.3125 28.4375 C-49.32255275 18.48304257 -46.92806246 11.13381003 -40 3.7578125 C-29.61700361 -5.36786792 -11.78473726 -8.0532974 0 0 Z M33.3515625 19.1953125 C31.7630443 20.82598044 30.18772282 22.4695951 28.625 24.125 C27.03575593 25.77527105 25.44470189 27.4238016 23.8515625 29.0703125 C23.15885254 29.80008301 22.46614258 30.52985352 21.75244141 31.28173828 C19.58760934 33.40434737 18.36024598 33.93138172 15.375 34.5 C9.05875314 33.56425972 5.29780751 28.31488236 0.9609375 23.93359375 C0.43064941 23.39895508 -0.09963867 22.86431641 -0.64599609 22.31347656 C-1.69987852 21.2451574 -2.74732018 20.17043862 -3.78759766 19.08886719 C-8.0076019 14.76430387 -10.80135212 12.71960511 -16.875 12.625 C-21.68401017 12.73815318 -24.35414962 13.70137347 -28 17 C-31.92946467 21.34309253 -32.45910027 24.8098214 -32.53125 30.4375 C-30.95274116 38.0514838 -23.69795993 43.55799791 -18.421875 48.7734375 C-17.4953009 49.6971817 -16.56872681 50.6209259 -15.61407471 51.57266235 C-13.16570702 54.01343985 -10.71139092 56.44814771 -8.2557373 58.8815918 C-5.74495778 61.37181285 -3.2399193 63.86779477 -0.734375 66.36328125 C4.17151617 71.24780406 9.08372292 76.12593135 14 81 C17.38986771 79.52804882 19.63757784 77.6304732 22.26196289 75.04443359 C23.09284927 74.22953461 23.92373566 73.41463562 24.77980042 72.57504272 C25.66844284 71.691763 26.55708527 70.80848328 27.47265625 69.8984375 C28.39211533 68.9880069 29.3115744 68.07757629 30.25889587 67.13955688 C32.20342622 65.21149547 34.1435375 63.27910121 36.08129883 61.34423828 C38.55310227 58.8778081 41.04063071 56.42792498 43.53249454 53.98178673 C45.91953522 51.63182884 48.28857711 49.26399698 50.66015625 46.8984375 C51.55082291 46.02730316 52.44148956 45.15616882 53.35914612 44.25863647 C58.61570449 38.96348125 62.93590458 34.27986032 63.03125 26.42578125 C61.74822992 21.32200286 60.34800118 18.28515645 56 15 C47.11460543 10.17650009 40.32311969 12.42700771 33.3515625 19.1953125 Z " fill="#000000" transform="translate(241,20)"/>
<path d="M0 0 C5.819251 4.72190652 7.32195766 12.29840972 8.35546875 19.46484375 C8.67322 27.83229327 6.30681836 36.49486782 1 43 C-2.13871188 44.56935594 -4.53855822 44.35201103 -8 44 C-11 42.0625 -11 42.0625 -13 39 C-13.30564604 34.73662954 -12.36424403 30.9713174 -10.875 27 C-9.42592875 22.03175571 -10.09515347 17.11130856 -12.125 12.375 C-13.38530062 8.95418403 -12.8421237 6.49805229 -12 3 C-8.77627426 -1.39598964 -4.98104674 -1.3215022 0 0 Z " fill="#000000" transform="translate(368,209)"/>
<path d="M0 0 C3.01892736 0.68374938 4.17537219 2.02891219 6.03515625 4.4609375 C7.62574258 12.33200072 5.83688342 20.49788106 2.03515625 27.4609375 C-2.29795491 33.39177883 -7.05173089 38.72177957 -13.96484375 41.4609375 C-17.62301907 41.4609375 -19.33471024 40.89208148 -22.33984375 38.8359375 C-24.62705311 35.49309305 -24.5223571 33.43322012 -23.96484375 29.4609375 C-22.08439601 26.46615036 -20.2179684 24.65232443 -17.40234375 22.5234375 C-12.03117654 17.97860371 -11.18774899 11.67055542 -9.80859375 5.0703125 C-8.18631313 0.05325948 -4.73624874 0.20076584 0 0 Z " fill="#000000" transform="translate(217.96484375,223.5390625)"/>
<path d="M0 0 C2.74231918 2.14944357 5.03897742 4.60990579 7.375 7.1875 C8.00277344 7.83525391 8.63054687 8.48300781 9.27734375 9.15039062 C13.08281778 13.2640834 14.99285046 16.15882588 15 22 C13.65437601 24.94755732 12.91445456 26.54277272 10 28 C3.42457989 28.9120744 3.42457989 28.9120744 -0.02636719 26.70263672 C-2.09630289 24.87280533 -3.98830931 22.9554222 -5.875 20.9375 C-6.53757813 20.28072266 -7.20015625 19.62394531 -7.8828125 18.94726562 C-11.86779266 14.83674239 -14.13210633 11.70726875 -15 6 C-13.83966553 2.38248667 -12.91972312 0.61314875 -9.75 -1.5 C-6.08517187 -2.16633239 -3.31580498 -1.56626386 0 0 Z " fill="#000000" transform="translate(139,67)"/>
<path d="M0 0 C3.3042039 2.79586484 3.93621866 4.37281678 4.375 8.6875 C3.43574594 14.02003919 -0.62073249 17.09783369 -4.45703125 20.60546875 C-6.91311845 22.91818988 -8.90331519 25.36663664 -11 28 C-14.20010301 29.6000515 -17.52710317 29.49514569 -21 29 C-23.75171298 27.09496794 -24.71801879 25.7143524 -25.9375 22.625 C-26.05943851 17.50358257 -23.13662277 13.95649221 -19.75 10.38671875 C-18.50777691 9.14581158 -17.25756697 7.9128547 -16 6.6875 C-15.3709375 6.05521484 -14.741875 5.42292969 -14.09375 4.77148438 C-9.47016614 0.20177702 -6.74107977 -1.92602279 0 0 Z " fill="#000000" transform="translate(383,66)"/>
<path d="M0 0 C3.70140924 -0.19317119 5.9448012 0.11299364 9.1953125 1.94140625 C11.45514667 4.55433951 12.11144275 5.81524666 12.1953125 9.25390625 C11.13595644 13.29872029 9.7662128 15.13459144 6.1953125 17.25390625 C3.56518165 17.78619464 1.09980628 18.17250307 -1.5546875 18.44140625 C-2.23273438 18.52326172 -2.91078125 18.60511719 -3.609375 18.68945312 C-16.50407901 20.14807459 -16.50407901 20.14807459 -20.8046875 17.19140625 C-23.33443883 13.47583399 -23.5925003 11.66565795 -22.8046875 7.25390625 C-20.15931468 3.91003612 -18.50361141 2.44128743 -14.3515625 1.328125 C-13.09859375 1.20050781 -11.845625 1.07289062 -10.5546875 0.94140625 C-9.89227051 0.8729248 -9.22985352 0.80444336 -8.54736328 0.73388672 C-5.700835 0.45666807 -2.84843246 0.25786645 0 0 Z " fill="#000000" transform="translate(133.8046875,100.74609375)"/>
<path d="M0 0 C1.23492187 0.10699219 2.46984375 0.21398437 3.7421875 0.32421875 C15.80689497 1.57132727 15.80689497 1.57132727 20 6 C20.6640625 8.21875 20.6640625 8.21875 20.625 10.5 C20.63789063 11.2528125 20.65078125 12.005625 20.6640625 12.78125 C19.64200661 16.19611911 18.04623186 17.22808824 15 19 C12.23979782 19.18381583 10.01757298 19.16760454 7.3125 18.875 C6.60714111 18.81223877 5.90178223 18.74947754 5.17504883 18.68481445 C3.11183147 18.48743042 1.05708334 18.25288631 -1 18 C-2.04414063 17.87238281 -3.08828125 17.74476562 -4.1640625 17.61328125 C-10.43715202 16.60477571 -10.43715202 16.60477571 -12.73046875 14.140625 C-14.64848926 10.90654734 -14.51716751 8.68481849 -14 5 C-10.25400012 -0.67941917 -6.26396263 -0.65431364 0 0 Z " fill="#000000" transform="translate(380,101)"/>
<path d="M0 0 C2.875 1.4375 2.875 1.4375 5 4 C6.16674972 10.36408936 4.40471432 15.43068438 2.25 21.375 C1.99822998 22.0772168 1.74645996 22.77943359 1.48706055 23.50292969 C-0.01865149 27.38373717 -1.24536804 30.03155218 -5 32 C-9.34180841 32.63153577 -11.29040072 32.45828287 -15 30.0625 C-17.24263641 26.628463 -17.42612594 24.74994157 -16.7109375 20.7421875 C-10.86390533 -1.81065089 -10.86390533 -1.81065089 0 0 Z " fill="#000000" transform="translate(179,64)"/>
<path d="M0 0 C3.80672173 0.71376033 5.22370183 1.85937558 8 4.5625 C9.40757549 7.06838389 10.36474024 9.66675773 11.3125 12.375 C11.57611328 13.06142578 11.83972656 13.74785156 12.11132812 14.45507812 C13.74175299 18.93133548 14.45136558 22.74001507 14 27.5625 C11.9375 30.5 11.9375 30.5 9 32.5625 C5.4375 33.125 5.4375 33.125 2 32.5625 C-2.12612379 29.38979122 -3.53599284 25.48538202 -5.25 20.75 C-5.518125 20.06357422 -5.78625 19.37714844 -6.0625 18.66992188 C-7.72526084 14.18640605 -8.46544329 10.40788404 -8 5.5625 C-5.54999553 2.17572911 -4.13607554 0.77551416 0 0 Z " fill="#000000" transform="translate(335,63.4375)"/>
<path d="M0 0 C2.5 1.5 2.5 1.5 4 4 C5.12246068 10.51027193 3.16688521 14.26019153 -0.19921875 19.80078125 C-2.24791687 22.30277049 -4.0978624 23.59456229 -7 25 C-10.5603504 24.92733979 -12.43721938 24.38506043 -15.375 22.375 C-17.76760883 18.87811018 -17.66782617 17.20730486 -17 13 C-13.29990081 4.60228272 -10.22484948 -1.60470475 0 0 Z " fill="#000000" transform="translate(357,255)"/>
<path d="M0 0 C2.5 1.5 2.5 1.5 4 4 C4.69412223 8.85885558 4.8947611 10.8069852 1.9375 14.75 C-4.11141252 19.38320959 -8.16428814 22.02763434 -16 21 C-18.5 19.5 -18.5 19.5 -20 17 C-20.4544297 13.81899211 -20.68622824 12.01579252 -20 9 C-14.91044161 2.21392215 -8.3666907 -1.09727091 0 0 Z " fill="#000000" transform="translate(188,259)"/>
</svg>
