<?xml version="1.0" standalone="no"?>
<!DOCTYPE svg PUBLIC "-//W3C//DTD SVG 20010904//EN"
 "http://www.w3.org/TR/2001/REC-SVG-20010904/DTD/svg10.dtd">
<svg version="1.0" xmlns="http://www.w3.org/2000/svg"
 width="1024.000000pt" height="1024.000000pt" viewBox="0 0 1024.000000 1024.000000"
 preserveAspectRatio="xMidYMid meet">
<metadata>
Created by potrace 1.16, written by Peter Selinger 2001-2019
</metadata>
<g transform="translate(0.000000,1024.000000) scale(0.100000,-0.100000)"
fill="#602A02" stroke="none">
<path d="M8075 9723 c-38 -2 -74 -8 -79 -14 -6 -5 -18 -9 -28 -9 -10 0 -27 -4
-38 -10 -11 -5 -29 -14 -40 -20 -11 -5 -27 -10 -35 -10 -8 0 -15 -4 -15 -10 0
-5 -8 -10 -18 -10 -26 0 -138 -95 -201 -171 -30 -35 -69 -97 -87 -137 -31 -67
-35 -71 -53 -60 -11 7 -30 33 -43 58 -25 49 -161 190 -184 190 -8 0 -14 5 -14
10 0 6 -9 10 -19 10 -11 0 -21 3 -23 8 -5 12 -88 52 -108 52 -11 0 -21 4 -24
9 -10 16 -86 23 -281 27 -251 6 -255 4 -163 -92 109 -114 158 -235 218 -539
18 -88 45 -200 61 -250 67 -206 270 -540 458 -755 41 -47 84 -96 95 -109 l21
-25 -31 22 c-17 11 -36 28 -43 36 -7 8 -18 13 -25 10 -14 -6 -87 46 -155 110
-136 128 -360 361 -411 426 -19 25 -42 52 -50 60 -9 8 -27 31 -40 50 -13 19
-27 37 -30 40 -3 3 -17 21 -30 40 -13 19 -27 37 -30 40 -3 3 -17 21 -30 40
-29 42 -186 198 -238 237 -20 15 -44 36 -53 45 -9 10 -20 18 -25 18 -5 0 -25
14 -44 30 -19 16 -41 30 -47 30 -7 0 -13 4 -13 9 0 5 -13 14 -30 21 -16 7 -30
16 -30 21 0 5 -6 9 -13 9 -7 0 -23 9 -35 20 -12 11 -25 20 -29 20 -4 0 -19 9
-33 20 -14 11 -35 20 -47 20 -13 0 -23 5 -23 10 0 6 -7 10 -15 10 -8 0 -30 9
-50 20 -20 11 -44 20 -55 20 -10 0 -22 5 -25 10 -3 6 -19 10 -35 10 -16 0 -32
5 -35 10 -3 6 -17 10 -30 10 -13 0 -27 5 -30 10 -3 6 -17 10 -30 10 -13 0 -27
5 -30 10 -3 6 -17 10 -31 10 -13 0 -34 5 -47 12 -48 24 -57 28 -76 28 -11 0
-23 5 -26 10 -3 6 -19 10 -35 10 -16 0 -32 5 -35 10 -3 6 -17 10 -31 10 -13 0
-32 4 -42 9 -9 5 -39 19 -67 31 -27 12 -77 35 -109 51 -32 16 -65 29 -72 29
-8 0 -14 4 -14 9 0 18 -206 39 -223 22 -6 -6 -19 -11 -28 -11 -10 0 -29 -14
-43 -31 -52 -62 -27 -137 76 -231 l52 -46 -57 -7 c-31 -4 -72 -4 -89 0 -124
26 -594 45 -633 26 -11 -6 -45 -12 -75 -15 -78 -7 -132 -16 -155 -26 -11 -5
-33 -11 -50 -15 -16 -3 -47 -10 -67 -15 -21 -6 -55 -14 -77 -18 -21 -5 -62
-21 -92 -35 -29 -15 -59 -27 -66 -27 -7 0 -13 -4 -13 -10 0 -5 -9 -10 -20 -10
-11 0 -28 -4 -38 -9 -17 -9 -51 -23 -94 -40 -13 -4 -34 -13 -48 -19 -14 -5
-41 -15 -60 -22 -39 -13 -74 -29 -202 -89 -135 -63 -124 -80 106 -170 71 -28
171 -73 223 -101 56 -30 122 -56 166 -66 39 -9 76 -20 80 -24 5 -4 -5 -37 -22
-73 -64 -134 -78 -321 -33 -449 44 -125 161 -271 265 -332 51 -30 77 -29 77 3
0 11 5 23 10 26 5 3 10 19 10 36 0 16 4 37 9 47 5 9 14 31 21 47 62 150 148
244 354 388 284 200 612 311 956 323 164 7 325 -5 456 -31 93 -19 315 -91 341
-111 16 -12 15 -13 -14 -14 -18 0 -33 -5 -33 -11 0 -8 -28 -9 -92 -4 -131 10
-356 11 -403 2 -148 -29 -275 -83 -338 -144 -51 -49 -81 -110 -113 -230 -15
-54 -32 -118 -39 -143 -12 -44 -4 -90 16 -90 4 0 45 15 91 34 172 69 305 89
593 90 173 1 243 -3 325 -18 146 -25 349 -72 450 -102 193 -59 454 -183 638
-303 127 -83 383 -291 482 -391 167 -168 352 -425 450 -625 53 -108 153 -355
147 -361 -2 -2 -16 18 -31 46 -15 27 -35 55 -45 62 -10 7 -46 56 -81 108 -35
52 -74 105 -87 118 -13 12 -23 27 -23 32 0 5 -6 15 -13 22 -7 7 -28 33 -47 58
-46 59 -146 159 -190 190 -19 13 -42 31 -50 40 -8 9 -44 36 -80 61 -36 24 -67
46 -70 49 -5 5 -75 43 -117 64 -13 6 -23 14 -23 19 0 4 -9 7 -20 7 -11 0 -20
5 -20 10 0 6 -9 10 -20 10 -11 0 -28 4 -38 9 -21 11 -109 51 -137 62 -11 4
-33 10 -50 14 -16 3 -41 8 -55 11 -14 3 -34 9 -45 14 -38 17 -130 22 -385 23
-172 0 -271 -4 -305 -12 -27 -7 -70 -15 -95 -18 -25 -3 -49 -9 -54 -14 -6 -5
-21 -9 -34 -9 -33 0 -165 -45 -238 -82 -75 -37 -209 -149 -270 -226 -53 -67
-127 -215 -127 -255 0 -58 12 -55 201 36 98 47 205 95 238 106 114 38 430 74
607 69 48 -1 87 -3 87 -4 0 -1 -24 -15 -52 -32 -70 -39 -153 -114 -183 -167
-46 -77 -59 -139 -59 -280 -1 -139 12 -203 59 -295 41 -81 47 -81 100 -2 124
190 321 302 527 302 218 0 526 -109 690 -245 161 -133 280 -332 356 -595 44
-156 56 -246 57 -432 0 -188 -6 -209 -49 -163 -21 23 -26 38 -26 81 0 29 -4
56 -10 59 -5 3 -10 15 -10 26 0 10 -4 27 -9 37 -5 9 -19 38 -31 63 -39 84
-187 238 -227 239 -7 0 -13 4 -13 8 0 11 -78 52 -99 52 -9 0 -21 4 -27 9 -25
24 -314 39 -384 20 -101 -27 -221 -98 -280 -165 -54 -62 -102 -174 -108 -253
-5 -79 16 -166 52 -207 l23 -27 124 41 c68 22 152 46 187 52 222 39 438 -137
498 -406 25 -115 16 -293 -21 -394 -42 -116 -78 -180 -162 -292 -152 -202
-326 -354 -498 -437 -49 -24 -98 -47 -107 -52 -10 -5 -27 -9 -37 -9 -11 0 -22
-4 -25 -9 -6 -9 -20 -12 -166 -32 -87 -13 -367 -15 -423 -4 -20 4 -40 11 -43
16 -3 5 -18 9 -35 9 -16 0 -29 5 -29 10 0 6 -7 10 -16 10 -19 0 -91 38 -118
63 -11 9 -25 17 -32 17 -7 0 -14 3 -16 8 -1 4 -19 19 -39 34 -34 25 -139 166
-139 186 0 6 -3 12 -7 14 -5 1 -19 26 -32 53 -13 28 -27 58 -32 67 -5 10 -9
69 -9 133 0 99 3 122 24 168 25 57 78 107 113 107 18 0 21 -9 27 -77 10 -104
37 -162 102 -222 108 -99 238 -138 360 -108 94 24 146 51 200 105 48 49 114
169 114 208 0 13 5 26 10 29 6 3 10 52 10 110 0 58 -4 107 -10 110 -5 3 -10
19 -10 36 0 16 -4 37 -9 47 -5 9 -24 49 -42 87 -32 65 -82 125 -165 196 -37
31 -189 109 -213 109 -9 0 -21 4 -27 9 -32 31 -491 31 -510 0 -3 -5 -15 -9
-26 -9 -24 0 -188 -80 -188 -92 0 -4 -6 -8 -14 -8 -27 0 -162 -143 -199 -210
-83 -153 -121 -348 -114 -585 14 -420 187 -865 462 -1188 36 -42 65 -80 65
-84 0 -10 -66 -10 -76 0 -4 4 -15 7 -25 7 -9 0 -19 3 -21 8 -3 7 -55 36 -153
84 -33 17 -61 34 -63 39 -2 5 -12 9 -23 9 -10 0 -19 4 -19 9 0 5 -8 11 -17 14
-22 7 -72 37 -91 54 -7 7 -26 20 -42 30 -17 9 -30 20 -30 24 0 4 -14 12 -30
19 -16 7 -30 16 -30 21 0 5 -6 9 -13 9 -7 0 -22 8 -33 18 -10 9 -35 29 -54 43
-19 15 -46 37 -60 49 -14 12 -37 29 -52 38 -43 25 -300 291 -351 364 -26 36
-53 73 -59 80 -12 13 -19 24 -50 80 -7 13 -15 25 -18 28 -5 5 -43 75 -64 117
-6 13 -14 23 -18 23 -5 0 -8 9 -8 20 0 11 -4 20 -10 20 -5 0 -10 7 -10 15 0 8
-4 24 -10 35 -5 11 -14 29 -20 40 -5 11 -10 29 -10 40 0 11 -4 28 -9 38 -15
31 -31 88 -31 115 0 14 -4 29 -10 32 -5 3 -10 23 -10 44 0 20 -5 42 -11 48
-11 11 -7 262 6 357 11 75 -5 96 -72 96 -101 0 -210 -75 -253 -174 -33 -73
-43 -166 -31 -270 9 -81 40 -208 66 -271 8 -19 8 -19 -12 -3 -11 10 -29 18
-40 18 -12 0 -36 18 -57 43 -47 53 -46 53 -75 110 -13 26 -28 47 -33 47 -4 0
-8 6 -8 13 0 6 -14 28 -30 47 -16 19 -30 41 -30 48 0 6 -3 12 -7 12 -9 0 -33
48 -33 66 0 7 -3 14 -8 16 -7 3 -84 156 -103 206 -5 12 -13 32 -18 45 -4 12
-13 33 -18 47 -6 14 -16 43 -22 65 -7 22 -16 49 -20 60 -19 47 -31 93 -31 118
0 14 -4 28 -9 31 -12 8 -20 58 -33 204 -13 151 0 408 22 422 8 5 18 6 22 4 4
-3 34 -49 65 -102 97 -166 221 -268 363 -301 60 -14 186 -14 252 0 128 27 269
139 326 260 18 37 32 78 32 91 0 13 5 29 11 35 17 17 1 235 -21 288 -32 78
-47 102 -88 144 -51 50 -91 83 -134 109 -16 9 -28 20 -28 24 0 4 -9 8 -19 8
-11 0 -23 5 -26 10 -3 6 -19 10 -35 10 -16 0 -32 5 -35 10 -3 6 -16 10 -29 10
-49 0 -112 50 -89 70 4 4 82 26 173 49 91 23 189 54 219 69 49 24 125 89 161
137 15 20 57 103 71 140 24 64 37 231 20 248 -6 6 -11 21 -11 34 0 13 -4 31
-9 41 -5 9 -17 34 -25 54 -9 20 -22 43 -29 50 -7 7 -24 29 -37 48 -30 44 -90
100 -106 100 -7 0 -14 3 -16 8 -6 14 -90 52 -117 52 -15 0 -32 5 -38 11 -11
11 -185 7 -238 -6 -90 -21 -194 -89 -316 -205 -74 -70 -102 -76 -107 -21 -2
19 2 46 9 60 35 76 53 182 46 281 -10 134 -32 268 -46 280 -3 3 -12 15 -18 28
-32 57 -40 68 -68 97 -42 43 -113 90 -157 104 -21 6 -53 16 -71 21 -70 21
-212 9 -302 -26 -47 -18 -135 -87 -168 -131 -94 -129 -122 -230 -115 -411 4
-97 11 -133 37 -208 41 -119 40 -124 -6 -118 -26 3 -51 18 -87 52 -76 69 -117
101 -156 120 -19 9 -37 18 -40 21 -3 4 -18 12 -35 20 -16 7 -38 17 -47 22 -10
5 -29 9 -42 9 -14 0 -28 5 -31 10 -8 13 -189 13 -234 -1 -125 -38 -239 -127
-294 -227 -39 -72 -67 -191 -67 -287 0 -103 26 -184 86 -266 83 -113 264 -201
447 -218 52 -5 105 -15 117 -21 l22 -12 -28 -29 c-15 -16 -36 -29 -45 -29 -10
0 -21 -4 -24 -10 -3 -5 -17 -10 -31 -10 -13 0 -32 -4 -42 -9 -9 -5 -30 -15
-47 -22 -54 -25 -159 -96 -192 -131 -113 -118 -163 -326 -117 -486 43 -152
120 -244 257 -307 124 -57 250 -69 382 -35 127 32 230 110 315 235 58 85 107
135 114 114 13 -42 27 -123 51 -289 58 -403 148 -644 383 -1025 188 -303 575
-728 885 -970 l127 -100 -47 -7 c-42 -7 -56 -4 -113 24 -36 18 -67 35 -70 38
-5 5 -35 23 -67 39 -20 10 -136 68 -170 85 -13 6 -23 14 -23 19 0 4 -9 7 -20
7 -11 0 -20 4 -20 9 0 5 -14 14 -30 21 -17 7 -30 16 -30 21 0 4 -9 11 -20 14
-12 4 -35 21 -53 38 -18 18 -48 43 -67 57 -19 13 -37 27 -40 30 -3 3 -30 25
-60 50 -30 24 -143 132 -250 240 -107 108 -220 216 -250 240 -30 25 -66 56
-80 70 -14 14 -41 37 -60 50 -19 13 -41 30 -48 37 -7 7 -17 13 -22 13 -5 0
-15 6 -22 13 -48 47 -214 134 -323 168 -22 7 -44 17 -50 21 -5 4 -19 8 -31 8
-13 0 -26 5 -29 10 -3 6 -24 10 -45 10 -21 0 -42 4 -45 10 -3 6 -17 10 -31 10
-13 0 -32 4 -42 9 -30 15 -88 31 -113 31 -14 0 -29 4 -35 8 -5 4 -27 14 -49
21 -75 24 -196 81 -215 101 -3 3 -21 17 -40 30 -77 53 -191 190 -229 275 -7
17 -17 38 -22 47 -5 10 -9 27 -9 38 0 11 -4 20 -9 20 -5 0 -11 9 -14 20 -8 31
-34 24 -46 -12 -59 -184 -80 -552 -40 -704 39 -150 137 -320 260 -451 27 -28
49 -58 49 -66 0 -17 -41 -27 -109 -27 -43 0 -112 -18 -127 -33 -4 -4 -14 -7
-22 -7 -18 0 -99 -59 -106 -78 -6 -13 37 -35 228 -117 49 -22 152 -76 230
-123 307 -182 716 -348 926 -374 47 -6 87 -13 89 -15 7 -5 -30 -30 -79 -54
-25 -11 -53 -25 -62 -30 -10 -5 -25 -9 -33 -9 -8 0 -23 -4 -33 -9 -9 -5 -48
-23 -85 -40 -190 -86 -400 -278 -520 -476 -91 -150 -156 -475 -137 -690 19
-211 117 -407 280 -558 98 -91 99 -90 99 122 0 99 4 187 9 197 6 11 16 39 23
64 33 110 106 217 240 353 59 59 111 107 117 107 5 0 12 -24 15 -54 16 -158
147 -245 260 -172 24 17 82 97 103 146 56 125 162 334 195 382 50 73 135 157
209 208 225 153 483 212 761 177 70 -9 134 -20 143 -23 46 -18 -22 -64 -107
-72 -26 -3 -50 -9 -53 -13 -3 -5 -18 -9 -34 -9 -16 0 -32 -4 -35 -10 -3 -5
-13 -10 -21 -10 -32 0 -148 -65 -199 -112 -60 -54 -132 -151 -169 -225 -50
-99 -70 -293 -45 -429 25 -134 104 -289 194 -379 65 -65 127 -102 235 -136 91
-30 100 -31 210 -25 123 7 150 17 112 44 -13 10 -45 36 -71 60 -47 41 -54 53
-80 133 -14 44 -15 186 -1 194 6 3 10 15 10 26 0 36 51 122 109 182 128 135
286 229 460 274 170 44 463 42 686 -3 182 -37 411 -137 531 -232 l59 -47 -54
-3 c-38 -2 -66 3 -97 17 -24 12 -56 21 -72 21 -15 0 -32 4 -37 9 -23 22 -265
30 -355 13 -111 -22 -120 -24 -126 -33 -3 -5 -14 -9 -25 -9 -10 0 -19 -4 -19
-9 0 -5 -12 -11 -27 -14 -94 -20 -273 -174 -333 -287 -34 -63 -35 -68 -35
-180 0 -125 10 -163 82 -320 48 -106 77 -143 153 -200 144 -107 314 -165 455
-157 79 4 165 30 165 49 0 12 -26 38 -38 38 -20 0 -70 31 -93 58 -90 106 -114
225 -66 334 24 54 81 113 139 145 27 15 56 18 153 18 106 -1 128 -4 190 -28
84 -33 233 -121 294 -173 56 -49 213 -231 256 -298 18 -28 60 -105 94 -171 65
-125 94 -165 121 -165 19 0 61 44 77 80 6 14 15 36 21 50 14 32 21 79 32 224
10 117 4 229 -20 376 -6 36 -13 88 -16 115 -3 28 -10 54 -15 59 -5 6 -9 25 -9
42 0 18 -4 36 -10 39 -5 3 -10 19 -10 35 0 16 -4 32 -10 35 -5 3 -10 19 -10
35 0 16 -4 32 -10 35 -5 3 -10 15 -10 26 0 10 -4 28 -10 39 -5 11 -14 29 -20
40 -5 11 -10 27 -10 35 0 8 -4 15 -10 15 -5 0 -10 9 -10 20 0 11 -4 20 -10 20
-5 0 -10 9 -10 20 0 11 -4 20 -10 20 -5 0 -10 6 -10 13 0 18 -24 67 -32 67 -5
0 -8 9 -8 20 0 11 -4 20 -10 20 -5 0 -10 4 -10 10 0 5 -18 37 -40 70 -21 34
-45 75 -52 91 -7 16 -16 29 -20 29 -5 0 -8 6 -8 13 0 7 -8 22 -18 33 -28 30
-82 111 -82 123 0 6 -4 11 -8 11 -4 0 -16 14 -26 30 -9 17 -27 41 -40 53 -12
12 -42 51 -66 87 -24 36 -50 71 -57 78 -7 7 -13 17 -13 21 0 5 -16 26 -35 47
-19 21 -35 43 -35 50 0 7 -3 14 -7 16 -14 6 -63 84 -63 99 0 8 -7 24 -15 35
-25 33 -16 35 34 4 144 -89 284 -132 490 -151 200 -18 322 -4 554 62 582 167
932 398 1263 836 90 118 219 349 274 488 4 11 17 40 28 65 22 50 48 127 82
240 12 41 26 85 31 98 5 13 9 33 9 45 0 12 8 42 16 67 32 89 53 187 65 305 33
332 36 417 19 615 -20 239 -37 376 -50 405 -5 11 -11 34 -14 50 -9 55 -17 90
-26 110 -5 11 -11 36 -14 55 -3 19 -10 56 -15 83 -20 86 -32 142 -38 170 -3
15 -9 30 -14 33 -5 3 -9 15 -9 26 0 23 -17 81 -31 110 -5 10 -9 27 -9 37 0 11
-4 23 -10 26 -5 3 -10 17 -10 30 0 13 -4 27 -10 30 -5 3 -10 19 -10 36 0 16
-4 29 -10 29 -5 0 -10 11 -10 24 0 14 -4 28 -10 31 -5 3 -10 15 -10 26 0 10
-4 27 -9 37 -5 9 -14 31 -21 47 -7 17 -16 38 -21 47 -5 10 -9 27 -9 37 0 11
-4 23 -10 26 -5 3 -10 15 -10 26 0 10 -4 27 -9 37 -5 9 -13 28 -18 42 -6 14
-15 36 -20 50 -11 26 -21 61 -44 143 -7 26 -17 47 -21 47 -4 0 -8 10 -8 23 0
13 -4 27 -8 33 -5 5 -14 29 -21 54 -7 25 -17 53 -22 62 -5 10 -9 27 -9 37 0
11 -4 23 -10 26 -5 3 -10 19 -10 35 0 16 -4 32 -10 35 -5 3 -10 21 -10 40 0
19 -4 37 -10 40 -5 3 -10 25 -10 49 0 23 -4 46 -9 52 -5 5 -12 29 -15 54 -4
25 -11 77 -17 115 -20 125 -13 436 11 490 4 11 14 41 21 67 26 96 113 177 210
199 68 16 75 9 82 -79 7 -91 39 -190 79 -249 100 -147 304 -166 429 -40 50 51
109 154 109 191 0 12 5 27 11 33 17 17 -2 296 -22 317 -5 6 -9 17 -9 25 0 21
-62 151 -72 151 -4 0 -8 5 -8 11 0 14 -58 97 -95 136 -16 17 -45 50 -63 72
-18 23 -40 41 -48 41 -8 0 -14 5 -14 10 0 6 -6 10 -13 10 -7 0 -22 8 -33 18
-10 9 -41 28 -69 41 -27 13 -58 28 -67 33 -10 4 -29 8 -42 8 -14 0 -28 5 -31
10 -3 6 -19 10 -36 10 -16 0 -29 5 -29 10 0 6 -16 10 -36 10 -19 0 -43 4 -52
9 -21 11 -184 19 -277 14z m-4868 -2978 c77 -38 163 -126 205 -212 31 -65 33
-73 33 -178 -1 -92 -4 -120 -24 -170 -32 -79 -132 -181 -216 -220 -55 -25 -71
-28 -181 -29 -70 -1 -131 4 -145 10 -13 6 -37 18 -54 25 -44 21 -149 128 -169
174 -31 69 -34 79 -42 120 -13 72 -1 235 17 235 5 0 9 7 9 16 0 41 100 155
181 206 104 66 277 76 386 23z m-827 -2962 c86 -58 256 -146 420 -217 144 -62
388 -199 390 -217 0 -4 -15 -3 -34 1 -20 4 -39 3 -44 -2 -7 -7 -23 -6 -49 2
-81 25 -100 30 -116 30 -10 0 -25 4 -35 9 -9 5 -28 13 -42 19 -31 12 -119 51
-142 63 -10 5 -25 9 -33 9 -8 0 -15 5 -15 10 0 6 -9 10 -19 10 -11 0 -21 3
-23 8 -1 4 -33 22 -70 41 -38 19 -68 38 -68 42 0 4 -8 10 -17 13 -29 10 -183
163 -183 182 0 9 -11 32 -25 50 -36 47 -31 50 18 11 23 -19 62 -47 87 -64z"/>
<path d="M2935 6567 c-94 -56 -124 -105 -125 -203 0 -85 23 -145 75 -193 48
-44 91 -57 162 -47 97 13 173 67 199 141 16 47 18 101 4 110 -5 3 -10 17 -10
31 0 46 -56 115 -123 153 -43 24 -148 28 -182 8z"/>
</g>
</svg>
