<?xml version="1.0" encoding="UTF-8"?>
<svg version="1.1" xmlns="http://www.w3.org/2000/svg" width="480" height="772">
<path d="M0 0 C145.2 0 290.4 0 440 0 C440.99 3.3 441.98 6.6 443 10 C445.53376556 13.41027961 445.53376556 13.41027961 448 16 C448 16.66 448 17.32 448 18 C451.96 18.66 455.92 19.32 460 20 C460 261.56 460 503.12 460 752 C456.04 752.66 452.08 753.32 448 754 C447.34 755.32 446.68 756.64 446 758 C445.01 758.99 444.02 759.98 443 761 C441.515 766.445 441.515 766.445 440 772 C294.8 772 149.6 772 0 772 C-0.99 768.7 -1.98 765.4 -3 762 C-5.53376556 758.58972039 -5.53376556 758.58972039 -8 756 C-8 755.34 -8 754.68 -8 754 C-11.96 753.34 -15.92 752.68 -20 752 C-20 510.44 -20 268.88 -20 20 C-16.04 19.34 -12.08 18.68 -8 18 C-7.34 16.68 -6.68 15.36 -6 14 C-5.34 13.0925 -4.68 12.185 -4 11.25 C-1.43395305 7.44653187 -1.43395305 7.44653187 0 0 Z M4 6 C3.14814527 8.4886646 2.52895891 11.00648108 1.87890625 13.5546875 C0.95341631 16.12960617 -0.03492487 17.17176854 -2 19 C-2 19.66 -2 20.32 -2 21 C-2.66 21.2475 -3.32 21.495 -4 21.75 C-7.75034515 23.31264381 -11.3660551 25.18302755 -15 27 C-15 263.94 -15 500.88 -15 745 C-12.03 746.485 -12.03 746.485 -9 748 C-8.0925 748.556875 -7.185 749.11375 -6.25 749.6875 C-4.14621257 751.16795701 -4.14621257 751.16795701 -2 751 C-1.33333333 752.33333333 -0.66666667 753.66666667 0 755 C0.7734375 756.4540625 0.7734375 756.4540625 1.5625 757.9375 C2.86512003 760.71264703 3.40583207 763.02916035 4 766 C6.96350691 767.48175345 9.61588695 767.12683918 12.92474365 767.12863445 C13.64907609 767.13038749 14.37340852 767.13214053 15.11969042 767.13394669 C17.57167424 767.13863644 20.02359954 767.1361336 22.47558594 767.13371277 C24.24130172 767.13557924 26.00701708 767.13787929 27.77273178 767.14057809 C32.64423014 767.14672266 37.5157114 767.14655939 42.38721275 767.14538372 C47.63334801 767.14518038 52.87947767 767.15069199 58.12561035 767.15544128 C68.41046708 767.16376267 78.69531807 767.16649679 88.98017788 767.16705366 C97.33537821 767.16752807 105.69057664 767.16957903 114.04577637 767.17275429 C137.70829186 767.18156451 161.37080281 767.18617303 185.03331995 767.18542381 C186.3100978 767.18538386 187.58687566 767.1853439 188.90234375 767.18530273 C190.819835 767.18524141 190.819835 767.18524141 192.77606344 767.18517885 C213.50627678 767.18477216 234.23647197 767.19434661 254.96668005 767.2084411 C276.22680762 767.22278243 297.48692633 767.22971254 318.74705887 767.22884732 C330.69331884 767.2285146 342.6395598 767.23129453 354.58581543 767.24202538 C364.7547835 767.25110089 374.92372393 767.25333001 385.09269428 767.24651595 C390.28575863 767.24323589 395.47876983 767.24324719 400.67182922 767.2518692 C405.41883839 767.25966994 410.16575171 767.25836941 414.91275835 767.24958507 C416.63681469 767.24803578 418.36087795 767.2499192 420.08492613 767.25544515 C422.41515497 767.26242367 424.74503989 767.25727675 427.07525635 767.24888897 C428.37357517 767.24910634 429.671894 767.24932371 431.00955582 767.24954766 C434.11611952 767.31445051 434.11611952 767.31445051 436 765 C436.81359434 762.75516116 437.45976099 760.48528617 438.12109375 758.19140625 C439.06821679 755.82991281 440.185944 754.73320671 442 753 C442 752.34 442 751.68 442 751 C442.94875 750.71125 443.8975 750.4225 444.875 750.125 C448.05211578 749.23174891 448.05211578 749.23174891 450 747 C451.65 746.34 453.3 745.68 455 745 C455 508.06 455 271.12 455 27 C448.62947154 23.68742806 448.62947154 23.68742806 442 21 C441 19.3125 441 19.3125 440 17 C439.505 16.030625 439.01 15.06125 438.5 14.0625 C437.19973834 11.40779911 436.09662533 8.74156332 435 6 C433.09849946 4.09849946 429.71716148 4.87447375 427.19830418 4.87415886 C426.11353629 4.8719787 426.11353629 4.8719787 425.00685391 4.86975449 C422.55277166 4.86606827 420.09875051 4.86959296 417.64466858 4.87301636 C415.87981603 4.87186557 414.11496371 4.87027834 412.3501119 4.86828911 C407.47635245 4.86408991 402.60261242 4.86618913 397.72885287 4.86927533 C392.48201971 4.87152684 387.23519002 4.86805106 381.98835754 4.86529541 C371.70002015 4.86083594 361.41169004 4.86181499 351.12335236 4.86470805 C342.76526792 4.86696152 334.40718553 4.86727485 326.04910088 4.86618423 C324.8619592 4.866031 323.67481753 4.86587777 322.45170186 4.86571989 C320.04043886 4.86540018 317.62917585 4.86507597 315.21791285 4.8647473 C292.57782779 4.86189196 269.93774677 4.86518031 247.29766237 4.87054767 C227.85086468 4.87501518 208.40407297 4.87424031 188.95727539 4.86962891 C166.40271975 4.8642831 143.84816765 4.86216726 121.29361147 4.86524117 C118.89064594 4.86555974 116.48768042 4.86587411 114.08471489 4.86618423 C112.90225211 4.86633851 111.71978932 4.86649279 110.50149434 4.86665174 C102.14924531 4.86751692 93.79699852 4.86605398 85.44474983 4.86370468 C75.27210332 4.86090639 65.09946453 4.86164554 54.92681891 4.86698543 C49.73175129 4.86962213 44.53669657 4.87062802 39.34162903 4.86733627 C34.59275325 4.86437266 29.84390242 4.86596724 25.09502893 4.87131383 C23.37027042 4.87243774 21.64550984 4.8718474 19.92075265 4.86943804 C17.58965012 4.8664296 15.25863481 4.86948323 12.92753696 4.87415886 C11.62867607 4.87432121 10.32981517 4.87448356 8.99159485 4.87465084 C6.07400065 4.79242572 6.07400065 4.79242572 4 6 Z " fill="#000000" transform="translate(20,0)"/>
<path d="M0 0 C137.94 0 275.88 0 418 0 C418.66 2.97 419.32 5.94 420 9 C422.98718888 14.0616256 425.69129463 17.23947321 431 20 C434.69523952 20.71923208 434.69523952 20.71923208 438 21 C439 22 439 22 439.12467116 23.98193181 C439.12451518 24.86275439 439.1243592 25.74357698 439.1241985 26.65109116 C439.12756944 28.17245091 439.12756944 28.17245091 439.13100848 29.72454521 C439.12838146 30.85458608 439.12575445 31.98462695 439.12304783 33.14891148 C439.12420167 34.34205714 439.12535552 35.53520281 439.12654433 36.7645044 C439.12875045 40.10613902 439.12642186 43.44771714 439.12226619 46.78934643 C439.11884886 50.41345219 439.12119955 54.03755473 439.12284368 57.66166109 C439.12492337 64.02319297 439.12326355 70.38471553 439.11920547 76.74624634 C439.1131879 86.20571449 439.11286804 95.66517672 439.11374746 105.12464644 C439.1150636 121.03444994 439.1117115 136.9442493 439.10573006 152.85405159 C439.09981991 168.61449262 439.0959655 184.37493193 439.09487724 200.13537407 C439.0948085 201.11406616 439.09473976 202.09275824 439.09466894 203.10110767 C439.09433062 208.07107041 439.09402923 213.04103316 439.09374207 218.01099592 C439.09163975 253.24439233 439.0848971 288.4777865 439.07543945 323.71118164 C439.06626012 357.94718412 439.05917401 392.18318599 439.05493164 426.41918945 C439.05480011 427.4738614 439.05466859 428.52853335 439.05453308 429.61516505 C439.0532146 440.20628577 439.05193878 450.7974065 439.05069422 461.38852723 C439.04815777 482.96527124 439.04533652 504.54201521 439.04234314 526.11875916 C439.04220585 527.11089705 439.04206856 528.10303493 439.04192711 529.12523761 C439.03272116 595.41682601 439.01687535 661.70841316 439 728 C435.40545752 729.04177159 431.83607518 730.03762209 428.1875 730.875 C424.97380574 731.65835929 424.97380574 731.65835929 423.75 733.8125 C423.5025 734.534375 423.255 735.25625 423 736 C422.505 736.7425 422.01 737.485 421.5 738.25 C419.46850414 741.70005828 419.46850414 741.70005828 418 749 C280.06 749 142.12 749 0 749 C-0.495 745.04 -0.495 745.04 -1 741 C-1.66 741 -2.32 741 -3 741 C-4.52448631 738.0173094 -5.93940067 735.181798 -7 732 C-9.99057367 731.00129139 -9.99057367 731.00129139 -13.5 730.375 C-19.92370572 729.07629428 -19.92370572 729.07629428 -21 728 C-21.09773357 726.45253999 -21.12522985 724.90060274 -21.12534916 723.35005951 C-21.12785268 722.3360759 -21.1303562 721.32209229 -21.13293558 720.2773819 C-21.13059442 719.14762688 -21.12825325 718.01787186 -21.12584114 716.85388184 C-21.12729458 715.66103577 -21.12874802 714.4681897 -21.13024551 713.23919678 C-21.13328723 709.89839643 -21.13179338 706.55765153 -21.12846755 703.21685493 C-21.12594676 699.5936369 -21.12918441 695.9704235 -21.13171089 692.34720612 C-21.13533559 685.98720536 -21.13520506 679.62721307 -21.13266373 673.26721191 C-21.12889498 663.8099649 -21.1308078 654.35272509 -21.13387203 644.89547813 C-21.13914939 628.00887078 -21.13867678 611.1222672 -21.13579312 594.23565948 C-21.13328191 579.45829407 -21.13261883 564.68093004 -21.13381577 549.90356445 C-21.13389215 548.92501749 -21.13396854 547.94647053 -21.13404724 546.93827063 C-21.13435855 542.96646838 -21.13467695 538.99466614 -21.135007 535.02286389 C-21.13806902 497.73089036 -21.13528775 460.43891924 -21.1299101 423.14694607 C-21.12516416 389.98337942 -21.12558878 356.81981661 -21.13037109 323.65625 C-21.13572063 286.43439424 -21.1378519 249.2125406 -21.13475883 211.99068451 C-21.13443809 208.02593486 -21.13412525 204.0611852 -21.13381577 200.09643555 C-21.13373669 199.12014523 -21.13365761 198.14385491 -21.13357614 197.13798004 C-21.13243656 182.36648156 -21.13377285 167.5949846 -21.13629532 152.82348633 C-21.13914784 136.03502777 -21.13845419 119.24657359 -21.13301457 102.45811558 C-21.13006758 93.05127994 -21.12990196 83.64445376 -21.13366075 74.23761836 C-21.13589131 67.96604433 -21.13452916 61.69447795 -21.13015598 55.42290506 C-21.12776114 51.84170048 -21.1269968 48.26051482 -21.13056196 44.6793108 C-21.13435041 40.83490296 -21.13052542 36.99052556 -21.12584114 33.14611816 C-21.12818231 32.01636314 -21.13052347 30.88660812 -21.13293558 29.7226181 C-21.13043207 28.70863449 -21.12792855 27.69465088 -21.12534916 26.64994049 C-21.12524753 25.32904222 -21.12524753 25.32904222 -21.12514383 23.98145914 C-21 22 -21 22 -20 21 C-18.48530552 20.76807135 -16.96245438 20.58784762 -15.4375 20.4375 C-14.19806641 20.31181641 -14.19806641 20.31181641 -12.93359375 20.18359375 C-12.29550781 20.12300781 -11.65742188 20.06242187 -11 20 C-11 19.34 -11 18.68 -11 18 C-9.576875 17.1028125 -9.576875 17.1028125 -8.125 16.1875 C-4.85050303 13.89535212 -4.04394363 12.75819708 -3 9 C-2.34 9 -1.68 9 -1 9 C-0.67 6.03 -0.34 3.06 0 0 Z M3 4 C2.34 6.97 1.68 9.94 1 13 C0.34 13 -0.32 13 -1 13 C-1.928125 14.3921875 -1.928125 14.3921875 -2.875 15.8125 C-7.03081562 22.04622343 -9.17987768 22.04496942 -17 24 C-17 255.33 -17 486.66 -17 725 C-13.04 726.65 -9.08 728.3 -5 730 C-2.375 733.3125 -2.375 733.3125 -1 736 C-0.34 736 0.32 736 1 736 C1.66 739.3 2.32 742.6 3 746 C138.96 746 274.92 746 415 746 C415.66 742.7 416.32 739.4 417 736 C417.66 736 418.32 736 419 736 C419.45375 735.113125 419.9075 734.22625 420.375 733.3125 C423 730 423 730 435 725 C435 493.67 435 262.34 435 24 C431.7 23.34 428.4 22.68 425 22 C425 21.34 425 20.68 425 20 C423.7934375 19.0409375 423.7934375 19.0409375 422.5625 18.0625 C420 16 420 16 419 13 C418.34 13 417.68 13 417 13 C416.34 10.03 415.68 7.06 415 4 C279.04 4 143.08 4 3 4 Z " fill="#0F0F0F" transform="translate(31,10)"/>
<path d="M0 0 C0.66 0 1.32 0 2 0 C2 0.99 2 1.98 2 3 C1.01 3 0.02 3 -1 3 C-1.33 3.99 -1.66 4.98 -2 6 C-3.32 6 -4.64 6 -6 6 C-6 237.33 -6 468.66 -6 707 C-4.68 707.33 -3.36 707.66 -2 708 C-2 708.99 -2 709.98 -2 711 C-1.34 711.33 -0.68 711.66 0 712 C-1.47968324 711.85950482 -2.95874516 711.71245174 -4.4375 711.5625 C-5.26121094 711.48128906 -6.08492187 711.40007813 -6.93359375 711.31640625 C-9 711 -9 711 -10 710 C-10.09773357 708.45253999 -10.12522985 706.90060274 -10.12534916 705.35005951 C-10.12785268 704.3360759 -10.1303562 703.32209229 -10.13293558 702.2773819 C-10.13059442 701.14762688 -10.12825325 700.01787186 -10.12584114 698.85388184 C-10.12729458 697.66103577 -10.12874802 696.4681897 -10.13024551 695.23919678 C-10.13328723 691.89839643 -10.13179338 688.55765153 -10.12846755 685.21685493 C-10.12594676 681.5936369 -10.12918441 677.9704235 -10.13171089 674.34720612 C-10.13533559 667.98720536 -10.13520506 661.62721307 -10.13266373 655.26721191 C-10.12889498 645.8099649 -10.1308078 636.35272509 -10.13387203 626.89547813 C-10.13914939 610.00887078 -10.13867678 593.1222672 -10.13579312 576.23565948 C-10.13328191 561.45829407 -10.13261883 546.68093004 -10.13381577 531.90356445 C-10.13389215 530.92501749 -10.13396854 529.94647053 -10.13404724 528.93827063 C-10.13435855 524.96646838 -10.13467695 520.99466614 -10.135007 517.02286389 C-10.13806902 479.73089036 -10.13528775 442.43891924 -10.1299101 405.14694607 C-10.12516416 371.98337942 -10.12558878 338.81981661 -10.13037109 305.65625 C-10.13572063 268.43439424 -10.1378519 231.2125406 -10.13475883 193.99068451 C-10.13443809 190.02593486 -10.13412525 186.0611852 -10.13381577 182.09643555 C-10.13373669 181.12014523 -10.13365761 180.14385491 -10.13357614 179.13798004 C-10.13243656 164.36648156 -10.13377285 149.5949846 -10.13629532 134.82348633 C-10.13914784 118.03502777 -10.13845419 101.24657359 -10.13301457 84.45811558 C-10.13006758 75.05127994 -10.12990196 65.64445376 -10.13366075 56.23761836 C-10.13589131 49.96604433 -10.13452916 43.69447795 -10.13015598 37.42290506 C-10.12776114 33.84170048 -10.1269968 30.26051482 -10.13056196 26.6793108 C-10.13435041 22.83490296 -10.13052542 18.99052556 -10.12584114 15.14611816 C-10.12818231 14.01636314 -10.13052347 12.88660812 -10.13293558 11.7226181 C-10.13043207 10.70863449 -10.12792855 9.69465088 -10.12534916 8.64994049 C-10.12524753 7.32904222 -10.12524753 7.32904222 -10.12514383 5.98145914 C-10 4 -10 4 -9 3 C-7.48530552 2.76807135 -5.96245438 2.58784762 -4.4375 2.4375 C-3.19806641 2.31181641 -3.19806641 2.31181641 -1.93359375 2.18359375 C-0.97646484 2.09271484 -0.97646484 2.09271484 0 2 C0 1.34 0 0.68 0 0 Z " fill="#000000" transform="translate(20,28)"/>
<path d="M0 0 C137.94 0 275.88 0 418 0 C418.33 2.97 418.66 5.94 419 9 C418.01 8.67 417.02 8.34 416 8 C415.67 6.68 415.34 5.36 415 4 C279.04 4 143.08 4 3 4 C2.34 6.97 1.68 9.94 1 13 C0.34 13 -0.32 13 -1 13 C-1.20625 13.721875 -1.4125 14.44375 -1.625 15.1875 C-3.48821128 18.99861399 -5.54872241 20.53480172 -9 23 C-9.99 23 -10.98 23 -12 23 C-12 22.34 -12 21.68 -12 21 C-11.01 21 -10.02 21 -9 21 C-9 19.68 -9 18.36 -9 17 C-7.67732273 15.98594743 -6.34275169 14.98731742 -5 14 C-3.73152315 11.41501488 -3.73152315 11.41501488 -3 9 C-2.34 9 -1.68 9 -1 9 C-0.67 6.03 -0.34 3.06 0 0 Z " fill="#3E3E3E" transform="translate(31,10)"/>
<path d="M0 0 C1.65 0 3.3 0 5 0 C5 0.66 5 1.32 5 2 C3.68 2 2.36 2 1 2 C1 233.33 1 464.66 1 703 C2.32 703.33 3.64 703.66 5 704 C4.34 704.66 3.68 705.32 3 706 C2.01 706 1.02 706 0 706 C-1.22275224 703.55449551 -1.12513745 701.98731712 -1.12534916 699.2526598 C-1.12785268 698.24241879 -1.1303562 697.23217777 -1.13293558 696.1913234 C-1.13059442 695.07089862 -1.12825325 693.95047385 -1.12584114 692.7960968 C-1.12729458 691.60914998 -1.12874802 690.42220316 -1.13024551 689.19928825 C-1.13328388 685.8796879 -1.13179613 682.56014348 -1.12846755 679.24054693 C-1.12594421 675.6385571 -1.12918544 672.03657189 -1.13171089 668.43458271 C-1.1353337 662.11337454 -1.13520621 655.79217491 -1.13266373 649.47096634 C-1.12889328 640.07136578 -1.1308087 630.67177245 -1.13387203 621.27217194 C-1.13914805 604.48799815 -1.1386773 587.70382814 -1.13579312 570.91965398 C-1.13328145 556.23188683 -1.13261904 541.54412108 -1.13381577 526.85635376 C-1.13389215 525.88356605 -1.13396854 524.91077834 -1.13404724 523.90851221 C-1.13435855 519.96004031 -1.13467695 516.01156841 -1.135007 512.06309651 C-1.13806871 474.99366188 -1.13528825 437.92422967 -1.1299101 400.85479541 C-1.1251642 367.89245345 -1.12558881 334.93011536 -1.13037109 301.96777344 C-1.13572117 264.96783864 -1.1378516 227.96790598 -1.13475883 190.96797085 C-1.13443809 187.02652931 -1.13412525 183.08508778 -1.13381577 179.14364624 C-1.13373669 178.17310245 -1.13365761 177.20255866 -1.13357614 176.20260445 C-1.13243678 161.52102486 -1.13377244 146.83944681 -1.13629532 132.15786743 C-1.13914844 115.47083761 -1.13845289 98.78381219 -1.13301457 82.09678292 C-1.13006861 72.74791882 -1.1299005 63.39906424 -1.13366075 54.05020038 C-1.13589252 47.81602761 -1.13452692 41.58186253 -1.13015598 35.34769091 C-1.12776286 31.78868605 -1.12699333 28.2297002 -1.13056196 24.6706959 C-1.13435575 20.84842134 -1.13052159 17.02617732 -1.12584114 13.2039032 C-1.12818231 12.08347842 -1.13052347 10.96305364 -1.13293558 9.8086766 C-1.13043207 8.79843559 -1.12792855 7.78819458 -1.12534916 6.7473402 C-1.1252814 5.87211246 -1.12521365 4.99688471 -1.12514383 4.09513491 C-1 2 -1 2 0 0 Z " fill="#2F2F2F" transform="translate(13,32)"/>
<path d="M0 0 C3.32936078 0.55489346 6.17146592 1.11431062 9 3 C10.0409066 4.64142963 11.04504326 6.30712215 12 8 C12.66 8.33 13.32 8.66 14 9 C14.66 12.3 15.32 15.6 16 19 C151.96 19 287.92 19 428 19 C428.33 18.34 428.66 17.68 429 17 C429.33 18.32 429.66 19.64 430 21 C292.72 21 155.44 21 14 21 C13.34 19.02 12.68 17.04 12 15 C11.34 14.67 10.68 14.34 10 14 C8.38932097 11.03635059 7.06709043 8.2012713 6 5 C3.98491642 4.26676204 3.98491642 4.26676204 2 4 C2 3.34 2 2.68 2 2 C1.34 2 0.68 2 0 2 C0 1.34 0 0.68 0 0 Z " fill="#7A7A7A" transform="translate(18,737)"/>
<path d="M0 0 C4.97648434 1.38235676 6.23359503 3.80847731 9 8 C10.97630407 9.36821051 12.97209016 10.70951192 15 12 C15 12.66 15 13.32 15 14 C16.65 14 18.3 14 20 14 C19.67 14.66 19.34 15.32 19 16 C11.25 15.125 11.25 15.125 9 14 C9 13.34 9 12.68 9 12 C8.071875 11.566875 8.071875 11.566875 7.125 11.125 C5 10 5 10 3 8 C3 7.01 3 6.02 3 5 C2.34 5 1.68 5 1 5 C0.67 3.35 0.34 1.7 0 0 Z " fill="#3E3E3E" transform="translate(447,18)"/>
<path d="M0 0 C3.32936078 0.55489346 6.17146592 1.11431062 9 3 C10.0409066 4.64142963 11.04504326 6.30712215 12 8 C12.66 8.33 13.32 8.66 14 9 C13.67 10.98 13.34 12.96 13 15 C10 14 10 14 8.375 11.125 C7 8 7 8 6 5 C3.98491642 4.26676204 3.98491642 4.26676204 2 4 C2 3.34 2 2.68 2 2 C1.34 2 0.68 2 0 2 C0 1.34 0 0.68 0 0 Z " fill="#2D2D2D" transform="translate(18,737)"/>
<path d="M0 0 C-1.43488812 5.02210841 -3.86600903 7.04714931 -8 10 C-8.99 10 -9.98 10 -11 10 C-11 9.34 -11 8.68 -11 8 C-10.01 8 -9.02 8 -8 8 C-8 6.68 -8 5.36 -8 4 C-2.88888889 0 -2.88888889 0 0 0 Z " fill="#464646" transform="translate(30,23)"/>
<path d="M0 0 C0.66 0 1.32 0 2 0 C0.66666667 2.66666667 -0.66666667 5.33333333 -2 8 C-2.66 8 -3.32 8 -4 8 C-4.33 9.65 -4.66 11.3 -5 13 C-5.66 13 -6.32 13 -7 13 C-6.67 11.02 -6.34 9.04 -6 7 C-5.34 7 -4.68 7 -4 7 C-3.71125 6.401875 -3.4225 5.80375 -3.125 5.1875 C-2 3 -2 3 0 0 Z " fill="#757575" transform="translate(454,739)"/>
<path d="M0 0 C3.34373475 0.55728913 6.03312999 1.35173889 9 3 C9 3.66 9 4.32 9 5 C6.69 4.67 4.38 4.34 2 4 C2 3.34 2 2.68 2 2 C1.34 2 0.68 2 0 2 C0 1.34 0 0.68 0 0 Z " fill="#575757" transform="translate(18,737)"/>
<path d="M0 0 C3.63 0.66 7.26 1.32 11 2 C10.67 2.66 10.34 3.32 10 4 C2.25 3.125 2.25 3.125 0 2 C0 1.34 0 0.68 0 0 Z " fill="#666666" transform="translate(456,30)"/>
<path d="M0 0 C4.455 2.97 4.455 2.97 9 6 C7.68 6.33 6.36 6.66 5 7 C2.25 4.6875 2.25 4.6875 0 2 C0 1.34 0 0.68 0 0 Z " fill="#060606" transform="translate(453,24)"/>
<path d="M0 0 C0.33 0.66 0.66 1.32 1 2 C-0.65 4.31 -2.3 6.62 -4 9 C-4.33 8.01 -4.66 7.02 -5 6 C-4.34 6 -3.68 6 -3 6 C-2.87625 5.195625 -2.7525 4.39125 -2.625 3.5625 C-2.41875 2.716875 -2.2125 1.87125 -2 1 C-1.34 0.67 -0.68 0.34 0 0 Z " fill="#0B0B0B" transform="translate(452,746)"/>
<path d="M0 0 C3 1 3 1 4.6875 4.0625 C5.120625 5.031875 5.55375 6.00125 6 7 C3.53199953 5.84826645 1.95216435 4.95216435 0 3 C0 2.01 0 1.02 0 0 Z " fill="#6F6F6F" transform="translate(450,23)"/>
</svg>
