<?xml version="1.0" standalone="no"?>
<!DOCTYPE svg PUBLIC "-//W3C//DTD SVG 20010904//EN"
 "http://www.w3.org/TR/2001/REC-SVG-20010904/DTD/svg10.dtd">
<svg version="1.0" xmlns="http://www.w3.org/2000/svg"
 width="1024.000000pt" height="1024.000000pt" viewBox="0 0 1024.000000 1024.000000"
 preserveAspectRatio="xMidYMid meet">
<metadata>
Created by potrace 1.16, written by Peter Selinger 2001-2019
</metadata>
<g transform="translate(0.000000,1024.000000) scale(0.100000,-0.100000)"
fill="#602A02" stroke="none">
<path d="M1955 9719 c-33 -5 -81 -11 -107 -15 -27 -3 -48 -10 -48 -15 0 -5
-13 -9 -29 -9 -17 0 -33 -4 -36 -10 -3 -5 -17 -10 -31 -10 -13 0 -32 -4 -42
-8 -9 -5 -39 -20 -67 -33 -27 -13 -59 -32 -69 -41 -11 -10 -26 -18 -33 -18 -7
0 -13 -4 -13 -10 0 -5 -6 -10 -14 -10 -8 0 -30 -18 -48 -41 -18 -22 -47 -55
-63 -72 -37 -39 -95 -122 -95 -136 0 -6 -4 -11 -8 -11 -10 0 -72 -130 -72
-151 0 -8 -4 -19 -9 -25 -20 -21 -39 -300 -22 -317 6 -6 11 -21 11 -33 0 -37
59 -140 109 -191 125 -126 329 -107 430 41 39 58 71 158 78 248 7 88 14 95 82
79 97 -22 184 -103 210 -199 7 -26 17 -56 21 -67 24 -54 31 -365 11 -490 -6
-38 -13 -90 -17 -115 -3 -25 -10 -49 -15 -54 -5 -6 -9 -29 -9 -52 0 -24 -4
-46 -10 -49 -5 -3 -10 -21 -10 -40 0 -19 -4 -37 -10 -40 -5 -3 -10 -19 -10
-35 0 -16 -4 -32 -10 -35 -5 -3 -10 -15 -10 -26 0 -10 -4 -27 -9 -37 -5 -9
-15 -37 -22 -62 -7 -25 -16 -49 -21 -54 -4 -6 -8 -20 -8 -33 0 -13 -4 -23 -8
-23 -4 0 -14 -21 -21 -47 -21 -77 -33 -117 -42 -140 -17 -43 -31 -78 -40 -95
-5 -10 -9 -27 -9 -37 0 -11 -5 -23 -10 -26 -6 -3 -10 -15 -10 -26 0 -10 -4
-27 -9 -37 -5 -9 -14 -30 -21 -47 -7 -16 -16 -38 -21 -47 -5 -10 -9 -27 -9
-37 0 -11 -5 -23 -10 -26 -5 -3 -10 -17 -10 -31 0 -13 -4 -24 -10 -24 -5 0
-10 -13 -10 -29 0 -17 -5 -33 -10 -36 -6 -3 -10 -17 -10 -30 0 -13 -5 -27 -10
-30 -6 -3 -10 -15 -10 -26 0 -10 -4 -27 -9 -37 -14 -29 -31 -87 -31 -110 0
-11 -4 -23 -9 -26 -5 -3 -11 -18 -14 -33 -6 -28 -18 -84 -38 -170 -5 -27 -12
-64 -15 -83 -3 -19 -9 -44 -14 -55 -9 -20 -17 -55 -26 -110 -3 -16 -9 -39 -14
-50 -13 -29 -30 -166 -50 -405 -17 -198 -14 -283 19 -615 12 -118 33 -216 65
-305 8 -25 16 -55 16 -67 0 -12 4 -32 9 -45 5 -13 19 -57 31 -98 34 -113 60
-190 82 -240 11 -25 24 -54 28 -65 32 -82 144 -296 193 -370 240 -361 522
-614 872 -781 146 -69 271 -115 472 -173 232 -66 354 -80 554 -62 206 19 346
62 490 151 50 31 59 29 34 -4 -8 -11 -15 -27 -15 -35 0 -15 -49 -93 -62 -99
-5 -2 -8 -9 -8 -16 0 -7 -16 -29 -35 -50 -19 -21 -35 -42 -35 -47 0 -4 -6 -14
-13 -21 -7 -7 -33 -42 -57 -78 -24 -36 -54 -75 -66 -87 -13 -12 -31 -36 -40
-53 -10 -16 -22 -30 -26 -30 -4 0 -8 -5 -8 -11 0 -12 -54 -93 -82 -123 -10
-11 -18 -26 -18 -33 0 -7 -3 -13 -8 -13 -4 0 -13 -13 -20 -29 -7 -16 -31 -57
-52 -91 -22 -33 -40 -65 -40 -70 0 -6 -4 -10 -10 -10 -5 0 -10 -9 -10 -20 0
-11 -3 -20 -7 -20 -9 0 -33 -49 -33 -67 0 -7 -4 -13 -10 -13 -5 0 -10 -9 -10
-20 0 -11 -4 -20 -10 -20 -5 0 -10 -9 -10 -20 0 -11 -4 -20 -10 -20 -5 0 -10
-7 -10 -15 0 -8 -5 -25 -12 -38 -24 -48 -28 -57 -28 -76 0 -11 -5 -23 -10 -26
-6 -3 -10 -19 -10 -35 0 -16 -5 -32 -10 -35 -6 -3 -10 -19 -10 -35 0 -16 -5
-32 -10 -35 -6 -3 -10 -21 -10 -39 0 -17 -4 -36 -9 -42 -5 -5 -12 -31 -15 -59
-3 -27 -10 -79 -16 -115 -24 -147 -30 -259 -20 -376 11 -145 18 -192 32 -224
6 -14 15 -36 21 -50 16 -36 58 -80 77 -80 27 0 56 40 121 165 34 66 76 143 94
171 43 67 200 249 256 298 61 52 210 140 294 173 62 24 84 27 190 28 97 0 126
-3 153 -18 58 -32 115 -91 139 -145 48 -109 24 -228 -66 -334 -23 -27 -73 -58
-93 -58 -12 0 -38 -26 -38 -38 0 -19 86 -45 165 -49 141 -8 311 50 455 157 76
57 105 94 153 200 72 157 82 195 82 320 0 112 -1 117 -35 180 -59 111 -208
242 -321 283 -19 7 -36 14 -39 17 -9 10 -114 43 -170 53 -93 16 -333 7 -355
-14 -5 -5 -22 -9 -37 -9 -16 0 -48 -9 -72 -21 -31 -14 -59 -19 -97 -17 l-54 3
59 47 c120 95 349 195 531 232 223 45 516 47 686 3 174 -45 332 -139 460 -274
58 -60 109 -146 109 -182 0 -11 5 -23 10 -26 14 -8 13 -150 -1 -194 -26 -80
-33 -92 -80 -133 -26 -24 -58 -50 -71 -60 -43 -31 -11 -41 134 -42 128 -1 136
0 221 33 184 70 299 199 373 418 45 134 44 332 -3 472 -22 66 -116 203 -183
265 -54 50 -170 116 -204 116 -8 0 -18 5 -21 10 -3 6 -19 10 -35 10 -16 0 -31
4 -34 9 -3 4 -27 10 -53 13 -85 8 -153 54 -107 72 9 3 73 14 143 23 275 35
529 -23 756 -173 70 -46 165 -140 213 -212 34 -48 140 -257 196 -382 25 -56
81 -131 113 -151 106 -66 235 25 250 177 3 30 10 54 15 54 6 0 58 -48 117
-107 134 -136 207 -243 240 -353 7 -25 17 -53 23 -64 5 -10 9 -98 9 -197 0
-212 1 -213 99 -122 163 151 261 347 280 558 19 215 -46 540 -137 690 -120
198 -330 390 -520 476 -37 17 -76 35 -85 40 -10 5 -25 9 -33 9 -8 0 -23 4 -33
9 -9 5 -37 19 -62 30 -49 24 -86 49 -79 54 2 2 42 9 89 15 210 26 619 192 926
374 78 47 181 101 230 123 191 82 234 104 228 117 -7 19 -88 78 -106 78 -8 0
-18 3 -22 7 -15 15 -84 33 -127 33 -68 0 -109 10 -109 27 0 8 22 38 49 66 123
131 221 301 260 451 40 152 19 520 -40 704 -12 36 -38 43 -46 12 -3 -11 -9
-20 -14 -20 -5 0 -9 -9 -9 -20 0 -11 -4 -28 -9 -38 -5 -9 -15 -30 -22 -47 -38
-85 -152 -222 -229 -275 -19 -13 -37 -27 -40 -30 -19 -20 -140 -77 -215 -101
-22 -7 -44 -17 -49 -21 -6 -4 -21 -8 -35 -8 -25 0 -83 -16 -113 -31 -10 -5
-29 -9 -42 -9 -14 0 -28 -4 -31 -10 -3 -5 -24 -10 -45 -10 -21 0 -42 -5 -45
-10 -3 -5 -16 -10 -29 -10 -12 0 -26 -4 -31 -8 -6 -4 -28 -14 -50 -21 -109
-34 -275 -121 -323 -168 -7 -7 -17 -13 -22 -13 -5 0 -15 -6 -22 -13 -7 -7 -29
-24 -48 -37 -19 -13 -46 -36 -60 -50 -14 -14 -50 -45 -80 -70 -30 -24 -143
-132 -250 -240 -107 -108 -220 -216 -250 -240 -30 -25 -57 -47 -60 -50 -3 -3
-21 -17 -40 -30 -19 -14 -49 -39 -67 -57 -18 -17 -41 -34 -53 -38 -11 -3 -20
-10 -20 -14 0 -5 -14 -14 -30 -21 -17 -7 -30 -16 -30 -21 0 -5 -9 -9 -20 -9
-11 0 -20 -3 -20 -7 0 -5 -10 -13 -23 -19 -34 -17 -150 -75 -169 -85 -33 -16
-63 -34 -68 -39 -3 -3 -34 -20 -70 -38 -57 -28 -71 -31 -113 -24 l-47 7 127
100 c310 242 697 667 885 970 226 367 318 605 372 963 29 192 56 343 63 355 8
14 61 -42 113 -118 85 -125 188 -203 315 -235 132 -34 258 -22 382 35 137 63
214 155 257 307 46 160 -4 368 -117 486 -33 35 -138 106 -192 131 -16 7 -38
17 -47 22 -10 5 -29 9 -42 9 -14 0 -28 5 -31 10 -3 6 -14 10 -24 10 -9 0 -30
13 -45 29 l-28 29 22 12 c12 6 65 16 117 21 183 17 364 105 447 218 60 82 86
163 86 266 0 96 -28 215 -67 287 -55 100 -169 189 -294 227 -45 14 -226 14
-234 1 -3 -5 -17 -10 -31 -10 -13 0 -32 -4 -42 -9 -9 -5 -30 -15 -47 -22 -16
-8 -32 -16 -35 -20 -3 -3 -21 -12 -40 -21 -39 -19 -80 -51 -156 -120 -36 -34
-61 -49 -87 -52 -46 -6 -47 -1 -6 118 26 75 33 111 37 208 7 181 -21 282 -115
411 -33 44 -121 113 -168 131 -90 35 -232 47 -302 26 -18 -5 -50 -15 -70 -21
-45 -14 -116 -61 -158 -104 -28 -29 -36 -40 -67 -97 -7 -13 -16 -25 -19 -28
-29 -24 -56 -323 -39 -425 12 -68 18 -88 41 -138 6 -13 9 -39 7 -58 -5 -55
-33 -49 -107 21 -122 116 -226 184 -316 205 -53 13 -227 17 -238 6 -6 -6 -23
-11 -38 -11 -27 0 -111 -38 -117 -52 -2 -5 -9 -8 -16 -8 -16 0 -76 -56 -106
-100 -13 -19 -30 -41 -37 -48 -7 -7 -20 -30 -29 -50 -8 -20 -20 -45 -25 -54
-5 -10 -9 -28 -9 -41 0 -13 -5 -28 -11 -34 -17 -17 -4 -184 20 -248 14 -37 56
-120 71 -140 36 -48 112 -113 161 -137 30 -15 128 -46 219 -69 91 -23 169 -45
173 -49 23 -20 -40 -70 -89 -70 -13 0 -26 -4 -29 -10 -3 -5 -17 -10 -30 -10
-31 0 -94 -35 -180 -100 -11 -8 -41 -36 -67 -61 -41 -42 -56 -66 -88 -144 -22
-53 -38 -271 -21 -288 6 -6 11 -22 11 -35 0 -13 14 -54 32 -91 57 -121 198
-233 326 -260 66 -14 192 -14 252 0 142 33 264 134 363 301 32 53 61 99 65
102 4 3 14 1 22 -4 22 -14 35 -271 22 -422 -13 -146 -21 -196 -33 -204 -5 -3
-9 -17 -9 -31 0 -25 -12 -71 -31 -118 -4 -11 -13 -38 -20 -60 -11 -39 -19 -59
-39 -110 -5 -14 -14 -35 -19 -47 -19 -50 -96 -203 -103 -206 -5 -2 -8 -9 -8
-16 0 -18 -24 -66 -32 -66 -5 0 -8 -6 -8 -12 0 -7 -14 -29 -30 -48 -16 -19
-30 -41 -30 -47 0 -7 -4 -13 -8 -13 -5 0 -20 -21 -33 -48 -29 -56 -28 -56 -75
-109 -21 -25 -45 -43 -57 -43 -11 0 -29 -8 -40 -18 -20 -16 -20 -16 -12 3 26
63 57 190 66 271 12 104 2 197 -31 270 -43 99 -152 174 -253 174 -67 0 -83
-21 -72 -96 13 -95 17 -346 6 -357 -6 -6 -11 -28 -11 -48 0 -21 -4 -41 -10
-44 -5 -3 -10 -18 -10 -32 0 -27 -16 -84 -31 -115 -5 -10 -9 -27 -9 -38 0 -11
-5 -30 -12 -43 -24 -47 -28 -57 -28 -72 0 -8 -4 -15 -10 -15 -5 0 -10 -9 -10
-20 0 -11 -3 -20 -7 -20 -5 0 -13 -10 -19 -23 -21 -42 -59 -112 -64 -117 -3
-3 -11 -15 -17 -28 -32 -56 -39 -67 -51 -80 -6 -7 -33 -44 -59 -80 -51 -73
-308 -339 -351 -364 -15 -9 -38 -26 -52 -38 -14 -12 -41 -34 -60 -49 -19 -14
-44 -34 -54 -43 -11 -10 -26 -18 -33 -18 -7 0 -13 -4 -13 -9 0 -5 -13 -14 -30
-21 -16 -7 -30 -15 -30 -19 0 -4 -13 -15 -30 -24 -16 -10 -35 -23 -42 -30 -19
-17 -69 -47 -90 -54 -10 -3 -18 -9 -18 -14 0 -5 -9 -9 -19 -9 -11 0 -21 -4
-23 -9 -1 -5 -30 -22 -63 -39 -98 -48 -150 -77 -153 -84 -2 -5 -12 -8 -21 -8
-10 0 -21 -3 -25 -7 -10 -10 -76 -10 -76 0 0 4 29 42 65 84 275 323 448 768
462 1188 7 237 -31 432 -114 585 -37 67 -172 210 -199 210 -8 0 -14 4 -14 8 0
12 -164 92 -188 92 -11 0 -23 4 -26 9 -19 31 -478 31 -510 0 -6 -5 -18 -9 -27
-9 -24 0 -176 -78 -213 -109 -83 -71 -133 -131 -165 -196 -18 -38 -37 -78 -42
-87 -5 -10 -9 -31 -9 -47 0 -17 -4 -33 -10 -36 -6 -3 -10 -52 -10 -110 0 -58
4 -107 10 -110 6 -3 10 -16 10 -29 0 -39 66 -159 114 -208 54 -54 106 -81 200
-105 122 -30 252 9 360 108 65 60 92 118 102 222 6 68 9 77 27 77 35 0 88 -50
113 -107 21 -46 24 -69 24 -168 0 -64 -4 -123 -9 -133 -5 -9 -19 -39 -32 -67
-13 -27 -27 -52 -31 -53 -5 -2 -8 -8 -8 -14 0 -20 -105 -161 -139 -186 -20
-15 -37 -30 -39 -34 -2 -5 -9 -8 -16 -8 -7 0 -21 -8 -32 -18 -27 -24 -99 -62
-118 -62 -9 0 -16 -4 -16 -10 0 -5 -13 -10 -29 -10 -17 0 -32 -4 -35 -9 -3 -5
-23 -12 -43 -16 -56 -11 -336 -9 -423 4 -146 20 -160 23 -166 32 -3 5 -14 9
-25 9 -10 0 -27 4 -37 9 -9 5 -57 28 -107 52 -172 83 -346 235 -498 437 -84
112 -120 176 -162 292 -37 101 -46 279 -21 394 60 269 276 445 498 406 35 -6
119 -30 187 -52 l124 -41 23 27 c36 41 57 128 52 207 -6 79 -54 191 -108 253
-59 67 -179 138 -280 165 -70 19 -359 4 -384 -20 -6 -5 -18 -9 -27 -9 -21 0
-99 -41 -99 -52 0 -4 -6 -8 -12 -8 -41 -1 -189 -155 -228 -239 -12 -25 -26
-54 -31 -63 -5 -10 -9 -27 -9 -37 0 -11 -4 -23 -10 -26 -6 -3 -10 -30 -10 -59
0 -43 -5 -58 -26 -81 -43 -46 -49 -25 -49 163 1 186 13 276 57 432 76 263 195
462 356 595 164 136 472 245 690 245 206 0 403 -112 527 -302 53 -79 59 -79
100 2 47 92 60 156 59 295 0 141 -13 203 -59 280 -30 53 -113 128 -182 167
-29 17 -53 31 -53 32 0 1 39 3 88 4 176 5 492 -31 606 -69 33 -11 140 -59 238
-106 189 -91 201 -94 201 -36 0 40 -74 188 -127 255 -61 77 -194 189 -270 227
-67 33 -167 68 -236 83 -25 5 -65 13 -90 18 -25 5 -67 15 -95 21 -33 8 -136
12 -305 12 -255 -1 -347 -6 -385 -23 -11 -5 -32 -11 -47 -14 -16 -3 -40 -9
-55 -12 -16 -3 -37 -9 -48 -13 -28 -11 -116 -51 -137 -62 -10 -5 -27 -9 -38
-9 -11 0 -20 -4 -20 -10 0 -5 -9 -10 -20 -10 -11 0 -20 -3 -20 -7 0 -5 -10
-13 -23 -19 -42 -21 -112 -59 -117 -64 -3 -3 -34 -25 -70 -49 -36 -25 -72 -52
-80 -61 -8 -9 -31 -27 -50 -40 -44 -31 -144 -131 -190 -190 -19 -25 -40 -51
-47 -58 -7 -7 -13 -17 -13 -22 0 -5 -10 -20 -23 -32 -13 -13 -52 -66 -87 -118
-35 -52 -71 -101 -81 -108 -10 -7 -30 -35 -45 -62 -15 -28 -29 -48 -31 -46 -6
6 94 253 147 361 98 200 283 457 450 625 99 100 355 308 482 391 184 120 445
244 638 303 101 30 304 77 450 102 82 15 152 19 325 18 288 -1 421 -21 593
-90 46 -19 87 -34 91 -34 20 0 28 46 16 90 -7 25 -24 89 -39 143 -32 120 -62
181 -113 230 -63 61 -190 115 -338 144 -47 9 -272 8 -402 -2 -65 -5 -93 -4
-93 4 0 6 -15 11 -32 11 -30 1 -31 2 -15 14 26 20 248 92 340 111 135 27 285
38 452 32 348 -13 675 -123 961 -324 206 -144 292 -238 354 -388 7 -16 16 -38
21 -47 5 -10 9 -31 9 -47 0 -17 5 -33 10 -36 6 -3 10 -15 10 -26 0 -32 26 -33
77 -3 104 61 221 207 265 332 45 128 31 315 -33 449 -17 36 -27 69 -22 73 4 4
41 15 80 24 44 10 110 36 166 66 52 28 152 73 223 101 230 90 241 107 107 170
-129 60 -164 76 -203 89 -19 7 -45 16 -57 21 -113 45 -126 51 -145 60 -10 5
-27 9 -38 9 -11 0 -20 5 -20 10 0 6 -6 10 -13 10 -7 0 -37 12 -66 27 -30 14
-71 30 -92 35 -39 8 -86 19 -164 39 -91 23 -133 31 -185 35 -30 3 -64 9 -75
15 -39 19 -509 0 -633 -26 -17 -4 -58 -4 -89 0 l-57 7 52 46 c103 94 128 169
76 231 -14 17 -33 31 -43 31 -9 0 -22 5 -28 11 -17 17 -223 -4 -223 -22 0 -5
-6 -9 -14 -9 -7 0 -40 -13 -72 -29 -32 -16 -81 -39 -109 -51 -27 -12 -58 -26
-67 -31 -10 -5 -29 -9 -42 -9 -14 0 -28 -4 -31 -10 -3 -5 -19 -10 -35 -10 -16
0 -32 -4 -35 -10 -3 -5 -15 -10 -26 -10 -10 0 -28 -4 -39 -10 -11 -5 -29 -14
-40 -20 -11 -5 -31 -10 -44 -10 -14 0 -28 -4 -31 -10 -3 -5 -17 -10 -30 -10
-13 0 -27 -4 -30 -10 -3 -5 -17 -10 -30 -10 -13 0 -27 -4 -30 -10 -3 -5 -19
-10 -35 -10 -16 0 -32 -4 -35 -10 -3 -5 -15 -10 -25 -10 -11 0 -35 -9 -55 -20
-20 -11 -42 -20 -50 -20 -8 0 -15 -4 -15 -10 0 -5 -10 -10 -22 -10 -13 0 -34
-9 -48 -20 -14 -11 -29 -20 -33 -20 -4 0 -17 -9 -29 -20 -12 -11 -28 -20 -35
-20 -7 0 -13 -4 -13 -9 0 -5 -13 -14 -30 -21 -16 -7 -30 -16 -30 -21 0 -5 -6
-9 -12 -9 -7 0 -29 -14 -48 -30 -19 -16 -39 -30 -44 -30 -5 0 -16 -8 -25 -18
-9 -9 -33 -30 -53 -45 -52 -39 -209 -195 -238 -237 -13 -19 -27 -37 -30 -40
-3 -3 -17 -21 -30 -40 -13 -19 -27 -37 -30 -40 -3 -3 -17 -21 -30 -40 -13 -19
-31 -42 -40 -50 -8 -8 -31 -35 -50 -60 -51 -65 -275 -298 -411 -426 -68 -64
-141 -116 -155 -110 -7 3 -18 -2 -25 -10 -7 -8 -26 -25 -43 -36 l-31 -22 21
25 c11 13 54 62 95 109 188 215 391 549 458 755 16 50 43 162 61 250 60 303
109 425 218 538 64 67 65 68 44 83 -18 12 -54 14 -209 10 -193 -4 -269 -11
-279 -27 -3 -5 -13 -9 -24 -9 -20 0 -103 -40 -108 -52 -2 -5 -12 -8 -23 -8
-10 0 -19 -4 -19 -10 0 -5 -6 -10 -14 -10 -23 0 -159 -141 -184 -190 -13 -25
-32 -51 -43 -58 -18 -11 -22 -7 -53 60 -18 40 -57 102 -87 137 -63 76 -175
171 -201 171 -10 0 -18 5 -18 10 0 6 -7 10 -15 10 -8 0 -25 5 -38 12 -47 24
-57 28 -75 28 -10 0 -22 4 -27 9 -14 13 -220 20 -290 10z m5376 -2959 c65 -22
92 -37 151 -83 42 -33 118 -137 118 -161 0 -9 4 -16 9 -16 18 0 30 -163 17
-235 -8 -41 -11 -51 -42 -120 -19 -45 -124 -153 -166 -173 -16 -6 -40 -18 -55
-24 -17 -9 -69 -13 -147 -12 -110 1 -126 4 -181 29 -84 39 -184 141 -216 220
-20 50 -23 78 -24 170 0 98 3 116 26 165 56 119 164 218 267 246 73 20 174 17
243 -6z m635 -2923 c-14 -19 -26 -42 -26 -51 0 -19 -154 -172 -182 -182 -10
-3 -18 -9 -18 -13 0 -4 -30 -23 -67 -42 -38 -19 -69 -37 -71 -41 -2 -5 -12 -8
-23 -8 -10 0 -19 -4 -19 -10 0 -5 -7 -10 -15 -10 -8 0 -23 -4 -33 -9 -23 -12
-111 -51 -142 -63 -14 -6 -33 -14 -42 -19 -10 -5 -25 -9 -35 -9 -9 0 -33 -5
-52 -11 -20 -6 -51 -15 -69 -21 -22 -6 -37 -7 -44 0 -5 5 -24 6 -44 2 -19 -4
-34 -5 -34 -1 2 18 246 155 390 217 232 101 484 243 531 300 24 30 20 4 -5
-29z"/>
<path d="M7121 6558 c-66 -38 -121 -107 -121 -152 0 -14 -4 -28 -10 -31 -28
-18 2 -133 47 -179 53 -54 160 -86 238 -72 51 10 119 75 139 133 32 93 13 218
-40 264 -70 62 -184 78 -253 37z"/>
</g>
</svg>
