<?xml version="1.0" standalone="no"?>
<!DOCTYPE svg PUBLIC "-//W3C//DTD SVG 20010904//EN"
 "http://www.w3.org/TR/2001/REC-SVG-20010904/DTD/svg10.dtd">
<svg version="1.0" xmlns="http://www.w3.org/2000/svg"
 width="1024.000000pt" height="1024.000000pt" viewBox="0 0 1024.000000 1024.000000"
 preserveAspectRatio="xMidYMid meet">
<metadata>
Created by potrace 1.16, written by Peter Selinger 2001-2019
</metadata>
<g transform="translate(0.000000,1024.000000) scale(0.100000,-0.100000)"
fill="#602A02" stroke="none">
<path d="M6632 9597 c-12 -12 -49 -76 -83 -142 -34 -66 -76 -143 -94 -171 -43
-67 -200 -249 -256 -298 -61 -52 -210 -140 -294 -173 -62 -24 -84 -27 -190
-28 -97 0 -126 3 -153 18 -58 32 -115 91 -139 145 -48 109 -24 228 66 334 23
27 73 58 93 58 12 0 38 26 38 38 0 19 -86 45 -165 49 -141 8 -311 -50 -455
-157 -76 -57 -105 -94 -153 -200 -72 -157 -82 -195 -82 -320 0 -112 1 -117 35
-180 60 -113 239 -267 333 -287 15 -3 27 -9 27 -14 0 -5 9 -9 19 -9 11 0 22
-4 25 -9 6 -9 15 -11 126 -33 90 -17 332 -9 355 13 5 5 22 9 37 9 16 0 48 9
72 21 31 14 59 19 97 17 l54 -3 -59 -47 c-120 -95 -349 -195 -531 -232 -223
-45 -516 -47 -686 -3 -174 45 -332 139 -460 274 -58 60 -109 146 -109 182 0
11 -4 23 -10 26 -14 8 -13 150 1 194 26 80 33 92 80 133 26 24 58 50 71 60 38
27 11 37 -112 44 -110 6 -119 5 -210 -25 -149 -48 -238 -115 -320 -242 -78
-122 -120 -266 -120 -416 0 -205 74 -374 225 -511 51 -47 167 -112 199 -112 8
0 18 -4 21 -10 3 -5 19 -10 35 -10 16 0 31 -4 34 -9 3 -4 27 -10 53 -13 85 -8
153 -54 107 -72 -9 -3 -73 -14 -143 -23 -278 -35 -536 24 -761 177 -74 51
-159 135 -209 208 -33 48 -139 257 -195 382 -21 49 -79 129 -103 146 -113 73
-244 -14 -260 -172 -3 -30 -10 -54 -15 -54 -6 0 -58 48 -117 108 -134 135
-207 242 -240 352 -7 25 -17 53 -23 64 -5 10 -9 98 -9 197 0 212 -1 213 -99
122 -163 -151 -261 -347 -280 -558 -19 -215 46 -540 137 -690 120 -198 330
-390 520 -476 37 -17 76 -35 85 -40 10 -5 25 -9 33 -9 8 0 23 -4 33 -9 9 -5
31 -15 47 -22 41 -19 95 -53 95 -60 0 -4 -32 -10 -71 -13 -185 -19 -627 -189
-875 -338 -155 -93 -267 -152 -359 -189 -120 -47 -175 -77 -169 -92 7 -18 88
-77 106 -77 8 0 18 -3 22 -7 15 -15 84 -33 127 -33 68 0 109 -10 109 -27 0 -8
-22 -38 -49 -66 -125 -133 -221 -301 -262 -457 -20 -77 -21 -101 -16 -265 7
-241 47 -465 83 -465 9 0 18 9 21 20 3 11 9 20 14 20 5 0 9 9 9 20 0 11 4 28
9 38 5 9 15 31 22 47 38 85 152 222 229 275 19 13 37 27 40 30 19 20 140 77
215 101 22 7 44 17 49 21 6 4 21 8 35 8 25 0 83 16 113 31 10 5 29 9 42 9 14
0 28 5 31 10 3 6 24 10 45 10 21 0 42 5 45 10 3 6 16 10 29 10 12 0 26 4 31 8
6 4 28 14 50 21 109 34 275 121 323 168 7 7 17 13 22 13 5 0 15 6 22 13 7 7
29 24 48 37 19 13 46 36 60 50 14 14 50 45 80 70 30 24 143 132 250 240 107
108 220 216 250 240 30 25 57 47 60 50 3 3 21 17 40 30 19 14 49 39 67 57 18
17 41 34 53 38 11 3 20 10 20 14 0 5 14 14 30 21 17 7 30 16 30 21 0 5 9 9 20
9 11 0 20 3 20 8 0 4 10 12 23 18 12 6 51 26 87 44 36 18 72 36 80 40 26 12
65 35 70 40 3 3 34 20 70 38 57 28 71 31 113 24 l47 -7 -127 -100 c-310 -242
-697 -667 -885 -970 -235 -381 -325 -622 -383 -1025 -24 -166 -38 -247 -51
-289 -7 -21 -56 29 -114 114 -85 125 -188 203 -315 235 -132 34 -258 22 -382
-35 -137 -63 -214 -155 -257 -307 -46 -160 4 -368 117 -486 33 -35 138 -106
192 -131 17 -7 38 -17 47 -22 10 -5 29 -9 42 -9 14 0 28 -5 31 -10 3 -6 14
-10 24 -10 9 0 30 -13 45 -29 l28 -29 -22 -12 c-12 -6 -65 -16 -117 -21 -183
-17 -364 -105 -447 -218 -60 -82 -86 -163 -86 -266 0 -96 28 -215 67 -287 55
-100 169 -189 294 -227 45 -14 226 -14 234 -1 3 6 17 10 31 10 13 0 32 4 42 9
9 5 31 15 47 22 17 8 32 16 35 20 3 3 21 12 40 21 39 19 80 51 156 120 36 34
61 49 87 52 46 6 47 1 6 -118 -26 -75 -33 -111 -37 -208 -7 -181 21 -282 115
-411 33 -44 121 -113 168 -131 89 -34 232 -47 299 -27 94 28 115 37 156 65 25
17 59 44 75 61 28 29 36 40 68 97 6 13 15 25 18 28 29 24 56 323 39 425 -12
68 -18 88 -41 138 -6 13 -9 39 -7 58 5 55 33 49 107 -21 122 -116 226 -184
316 -205 53 -13 227 -17 238 -6 6 6 23 11 38 11 27 0 111 38 117 53 2 4 9 7
16 7 16 0 76 56 106 100 13 19 30 41 37 48 7 7 20 30 29 50 8 20 20 45 25 54
5 10 9 28 9 41 0 13 5 28 11 34 17 17 4 184 -20 248 -14 37 -56 120 -71 140
-36 48 -112 113 -161 137 -30 15 -128 46 -219 69 -91 23 -169 45 -173 49 -23
20 40 70 89 70 13 0 26 5 29 10 3 6 19 10 35 10 16 0 32 5 35 10 3 6 15 10 26
10 10 0 19 4 19 8 0 4 12 15 28 24 43 26 83 59 134 109 41 42 56 66 88 144 22
53 38 271 21 288 -6 6 -11 22 -11 35 0 13 -14 54 -32 91 -57 121 -198 233
-326 260 -66 14 -192 14 -252 0 -142 -33 -266 -135 -363 -301 -31 -53 -61 -99
-65 -102 -4 -2 -14 -1 -22 4 -22 14 -35 271 -22 422 13 146 21 196 33 204 5 3
9 17 9 31 0 25 12 71 31 118 4 11 13 38 20 60 13 45 21 68 38 108 6 15 15 37
20 50 19 49 96 202 103 205 5 2 8 9 8 16 0 18 24 66 33 66 4 0 7 6 7 13 0 6
14 28 30 47 16 19 30 41 30 48 0 6 4 12 8 12 5 0 20 21 33 48 29 56 28 56 75
110 21 24 45 42 57 42 11 0 29 8 40 18 20 16 20 16 12 -3 -26 -63 -57 -190
-66 -271 -12 -104 -2 -197 31 -270 43 -99 152 -174 253 -174 67 0 83 21 72 96
-13 95 -17 346 -6 357 6 6 11 28 11 48 0 21 5 41 10 44 6 3 10 18 10 32 0 27
16 84 31 115 5 10 9 27 9 38 0 20 4 29 28 77 7 13 12 30 12 38 0 8 5 15 10 15
6 0 10 9 10 20 0 11 3 20 8 20 4 0 12 10 18 23 21 42 59 112 64 117 3 3 11 15
18 28 31 56 38 67 50 80 6 7 33 44 59 80 51 73 308 339 351 364 15 9 38 26 52
38 14 12 41 34 60 49 19 14 44 34 54 44 11 9 26 17 33 17 7 0 13 4 13 9 0 5
14 14 30 21 17 7 30 15 30 19 0 4 13 15 30 24 16 10 35 23 42 30 19 17 69 47
91 54 9 3 17 9 17 14 0 5 9 9 19 9 11 0 21 4 23 9 2 5 30 22 63 39 98 48 150
77 153 85 2 4 12 7 21 7 10 0 21 3 25 7 10 11 76 10 76 0 0 -5 -24 -37 -54
-70 -282 -325 -459 -776 -473 -1202 -7 -237 31 -432 114 -585 37 -67 172 -210
199 -210 8 0 14 -4 14 -8 0 -12 164 -92 188 -92 11 0 23 -4 26 -9 19 -31 478
-31 510 0 6 5 18 9 27 9 24 0 176 78 213 109 83 71 133 131 165 196 18 39 37
78 42 87 5 10 9 31 9 47 0 17 5 33 10 36 6 3 10 52 10 110 0 58 -4 107 -10
110 -5 3 -10 16 -10 29 0 42 -66 160 -120 213 -56 56 -120 86 -222 106 -107
20 -233 -23 -332 -114 -65 -60 -92 -118 -102 -222 -6 -68 -9 -77 -27 -77 -35
0 -88 50 -113 107 -21 46 -24 69 -24 168 0 64 4 123 9 133 5 9 19 40 32 67 13
28 27 52 32 53 4 2 7 8 7 14 0 20 105 161 139 186 20 15 38 30 39 35 2 4 9 7
16 7 7 0 21 8 32 18 27 24 99 62 118 62 9 0 16 5 16 10 0 6 13 10 29 10 17 0
32 4 35 9 3 5 23 12 43 16 56 11 336 9 423 -4 146 -20 160 -23 166 -32 3 -5
14 -9 25 -9 10 0 27 -4 37 -9 9 -5 58 -28 107 -52 172 -83 346 -235 498 -437
84 -112 120 -176 162 -292 37 -101 46 -279 21 -394 -60 -269 -276 -445 -498
-406 -35 6 -119 30 -187 52 l-124 41 -23 -27 c-36 -41 -57 -128 -52 -207 6
-79 54 -191 108 -253 59 -67 179 -138 280 -165 70 -19 359 -4 384 20 6 5 18 9
27 9 21 0 99 41 99 52 0 4 6 8 13 8 40 1 188 155 227 239 12 25 26 54 31 63 5
10 9 27 9 37 0 11 5 23 10 26 6 3 10 30 10 59 0 43 5 58 26 81 43 46 49 25 48
-163 0 -187 -12 -278 -56 -432 -76 -263 -195 -462 -356 -595 -164 -136 -472
-245 -690 -245 -206 0 -403 112 -527 302 -53 79 -59 79 -100 -2 -47 -92 -60
-156 -59 -295 0 -141 13 -203 59 -280 30 -53 113 -128 183 -167 28 -17 52 -31
52 -32 0 -1 -39 -3 -87 -4 -177 -5 -493 31 -607 69 -33 11 -140 59 -238 106
-189 91 -201 94 -201 36 0 -40 74 -188 127 -255 61 -77 195 -189 270 -226 73
-37 205 -82 238 -82 13 0 28 -4 33 -9 6 -5 30 -11 55 -14 25 -3 68 -11 95 -18
34 -8 133 -12 305 -12 255 1 347 6 385 23 11 5 32 11 48 14 15 3 39 9 55 12
15 3 36 9 47 13 28 11 116 51 137 62 10 5 27 9 38 9 11 0 20 5 20 10 0 6 9 10
20 10 11 0 20 3 20 8 0 4 10 12 23 18 42 21 112 59 117 64 3 3 34 25 70 49 36
25 72 52 80 61 8 9 31 27 50 40 44 31 144 131 190 190 19 25 40 51 47 58 7 7
13 17 13 22 0 5 10 20 23 32 13 13 52 66 87 118 35 52 71 101 81 108 10 7 30
35 45 62 15 28 29 48 31 46 6 -6 -94 -253 -147 -361 -98 -200 -283 -457 -450
-625 -99 -100 -355 -308 -482 -391 -184 -120 -445 -244 -638 -303 -101 -30
-304 -77 -450 -102 -82 -15 -152 -19 -325 -18 -288 1 -421 21 -593 90 -46 19
-87 34 -91 34 -20 0 -28 -46 -16 -90 7 -25 24 -89 39 -143 32 -120 62 -181
113 -230 63 -61 190 -115 338 -144 47 -9 272 -8 403 2 64 5 92 4 92 -4 0 -6
15 -11 33 -11 29 -1 30 -2 14 -14 -26 -20 -248 -92 -341 -111 -131 -26 -292
-38 -456 -31 -342 12 -673 124 -956 323 -206 144 -292 238 -354 388 -7 17 -16
38 -21 47 -5 10 -9 31 -9 47 0 17 -4 33 -10 36 -5 3 -10 15 -10 26 0 32 -26
33 -77 3 -104 -61 -221 -207 -265 -332 -45 -128 -31 -315 33 -449 17 -36 27
-69 22 -73 -4 -4 -41 -15 -80 -24 -44 -10 -110 -36 -166 -66 -52 -28 -152 -73
-223 -101 -230 -90 -241 -107 -106 -170 128 -60 163 -76 202 -89 67 -23 167
-63 202 -81 10 -5 27 -9 38 -9 11 0 20 -4 20 -10 0 -5 6 -10 13 -10 7 0 37
-12 66 -27 30 -14 70 -30 90 -34 20 -5 54 -13 76 -18 22 -6 54 -13 70 -16 17
-4 39 -10 50 -15 23 -10 77 -19 155 -26 30 -3 64 -9 75 -15 39 -19 509 0 633
26 17 4 58 4 89 0 l57 -7 -52 -46 c-103 -94 -128 -169 -76 -231 14 -17 33 -31
43 -31 9 0 22 -5 28 -11 17 -17 223 4 223 22 0 5 6 9 14 9 7 0 40 13 72 29 32
16 82 39 109 51 28 12 58 26 67 31 10 5 29 9 42 9 14 0 28 4 31 10 3 5 19 10
35 10 16 0 32 5 35 10 3 6 15 10 26 10 10 0 29 5 42 12 48 25 58 28 81 28 14
0 28 5 31 10 3 6 17 10 30 10 13 0 27 5 30 10 3 6 17 10 30 10 13 0 27 5 30
10 3 6 19 10 35 10 16 0 32 4 35 10 3 5 15 10 25 10 11 0 35 9 55 20 20 11 42
20 50 20 8 0 15 5 15 10 0 6 10 10 23 10 12 0 33 9 47 20 14 11 29 20 33 20 4
0 17 9 29 20 12 11 28 20 35 20 7 0 13 4 13 9 0 5 14 14 30 21 17 7 30 16 30
21 0 5 6 9 13 9 6 0 28 14 47 30 19 16 39 30 44 30 5 0 16 8 25 18 9 9 33 30
53 45 52 39 209 195 238 237 13 19 27 37 30 40 3 3 17 21 30 40 13 19 27 37
30 40 3 3 17 21 30 40 13 19 31 42 40 50 8 8 31 35 50 60 51 65 275 298 411
426 68 64 141 116 155 110 7 -3 18 2 25 10 7 8 26 25 43 36 l31 22 -21 -25
c-11 -13 -54 -62 -95 -109 -188 -215 -391 -549 -458 -755 -16 -50 -43 -162
-61 -250 -60 -304 -109 -425 -218 -539 -92 -96 -88 -98 163 -92 195 4 271 11
281 27 3 5 13 9 24 9 20 0 103 40 108 53 2 4 12 7 23 7 10 0 19 5 19 10 0 6 6
10 14 10 23 0 159 141 184 190 13 25 32 51 43 58 18 11 22 7 53 -60 18 -40 57
-102 87 -137 63 -76 175 -171 201 -171 10 0 18 -4 18 -10 0 -5 7 -10 15 -10
15 0 25 -4 72 -28 13 -7 32 -12 42 -12 11 0 22 -4 25 -8 9 -14 205 -21 286
-11 41 5 94 12 118 15 23 3 42 10 42 15 0 5 13 9 29 9 17 0 33 5 36 10 3 6 17
10 31 10 13 0 32 4 42 8 9 5 40 20 67 33 28 13 59 32 69 41 11 10 26 18 33 18
7 0 13 5 13 10 0 6 6 10 14 10 8 0 30 18 48 41 18 22 47 55 63 72 37 39 95
122 95 136 0 6 4 11 8 11 10 0 72 130 72 151 0 8 4 19 9 25 20 21 39 300 22
317 -6 6 -11 21 -11 33 0 37 -59 140 -109 191 -125 126 -329 107 -429 -40 -40
-59 -72 -158 -79 -249 -7 -88 -14 -95 -82 -79 -97 22 -184 103 -210 199 -7 26
-17 56 -21 67 -24 54 -31 365 -11 490 6 39 13 90 17 115 3 25 10 49 15 54 5 6
9 29 9 52 0 24 5 46 10 49 6 3 10 21 10 40 0 19 4 37 10 40 5 3 10 19 10 35 0
16 5 32 10 35 6 3 10 15 10 26 0 10 4 27 9 37 5 9 15 37 22 62 7 25 16 49 21
54 4 6 8 20 8 33 0 13 4 23 8 23 4 0 14 21 21 47 23 82 33 117 44 143 5 14 14
36 20 50 5 14 13 33 18 42 5 10 9 27 9 37 0 11 5 23 10 26 5 3 10 15 10 26 0
10 4 27 9 37 5 9 14 31 21 47 7 17 16 38 21 47 5 10 9 27 9 37 0 11 5 23 10
26 6 3 10 17 10 31 0 13 5 24 10 24 6 0 10 13 10 29 0 17 5 33 10 36 6 3 10
17 10 30 0 13 5 27 10 30 6 3 10 15 10 26 0 10 4 27 9 37 14 29 31 87 31 110
0 11 4 23 9 26 5 3 11 18 14 33 6 28 18 84 38 171 5 26 12 63 15 82 3 19 9 44
14 55 9 20 17 55 26 110 3 17 9 39 14 50 13 29 30 166 50 405 17 198 14 283
-19 615 -12 118 -33 216 -65 305 -8 25 -16 55 -16 67 0 12 -4 32 -9 45 -5 13
-19 57 -31 98 -34 113 -60 190 -82 240 -11 25 -24 54 -28 65 -4 11 -37 81 -73
156 -208 430 -571 794 -992 995 -146 69 -271 115 -472 173 -232 66 -354 80
-554 62 -206 -19 -346 -62 -490 -151 -50 -31 -59 -29 -34 4 8 11 15 27 15 35
0 15 49 93 63 99 4 2 7 9 7 16 0 7 16 29 35 50 19 21 35 42 35 47 0 4 6 14 13
21 7 7 33 42 57 78 24 36 54 75 66 87 13 12 31 36 40 53 10 16 22 30 26 30 4
0 8 5 8 11 0 12 54 93 82 123 10 11 18 26 18 33 0 7 3 13 8 13 4 0 13 13 20
29 7 16 31 57 52 91 22 33 40 65 40 70 0 6 5 10 10 10 6 0 10 9 10 20 0 11 3
20 8 20 8 0 32 49 32 67 0 7 5 13 10 13 6 0 10 9 10 20 0 11 5 20 10 20 6 0
10 9 10 20 0 11 5 20 10 20 6 0 10 7 10 15 0 8 5 24 10 35 6 11 15 29 20 40 6
11 10 29 10 39 0 11 5 23 10 26 6 3 10 19 10 35 0 16 5 32 10 35 6 3 10 19 10
35 0 16 5 32 10 35 6 3 10 21 10 39 0 17 4 36 9 41 5 6 12 33 15 60 3 28 10
79 16 115 30 186 32 354 5 535 -14 91 -75 195 -115 195 -9 0 -26 -10 -38 -23z
m-3518 -2706 c3 -5 21 -5 41 -1 19 4 35 5 35 1 -2 -18 -246 -155 -390 -217
-230 -100 -397 -193 -507 -281 -49 -39 -54 -36 -18 11 14 18 25 41 25 50 0 19
154 172 183 182 9 3 17 9 17 13 0 4 30 23 68 42 37 19 69 37 70 41 2 5 12 8
23 8 10 0 19 5 19 10 0 6 7 10 15 10 8 0 23 4 33 9 25 13 114 52 137 61 11 4
31 12 45 18 14 6 39 13 55 17 81 17 106 23 112 29 9 9 31 7 37 -3z m95 -2618
c80 -37 181 -140 212 -218 20 -50 23 -78 24 -170 0 -105 -2 -113 -33 -178 -42
-85 -128 -174 -204 -211 -69 -34 -189 -46 -265 -27 -61 16 -132 51 -183 92
-44 35 -120 139 -120 163 0 9 -4 16 -9 16 -18 0 -30 163 -17 235 8 41 11 51
42 120 19 45 124 153 167 173 61 27 73 32 107 36 19 2 77 2 129 -1 72 -3 106
-10 150 -30z"/>
<path d="M2935 4106 c-44 -20 -92 -75 -110 -125 -31 -89 -11 -217 41 -262 71
-62 179 -78 251 -38 67 38 123 107 123 153 0 14 5 28 10 31 28 18 -2 133 -47
179 -60 61 -201 94 -268 62z"/>
</g>
</svg>
