<?xml version="1.0" encoding="UTF-8"?>
<svg version="1.1" xmlns="http://www.w3.org/2000/svg" width="960" height="480">
<path d="M0 0 C2.06539637 1.25446073 2.06539637 1.25446073 5.046875 1.08984375 C7.48969042 0.20627221 9.32642682 -0.74914668 11.546875 -2.03515625 C18.18390481 -5.4672325 25.4725879 -4.99497649 32.5 -2.94921875 C36.85498719 -1.30864139 41.01906505 0.54173495 45.17578125 2.6328125 C47.96062893 4.09646356 47.96062893 4.09646356 50.984375 5.02734375 C51.231875 5.60484375 51.479375 6.18234375 51.734375 6.77734375 C53.61945709 10.17049152 56.65138443 12.10930201 59.984375 14.02734375 C60.644375 14.02734375 61.304375 14.02734375 61.984375 14.02734375 C62.12875 12.95484375 62.273125 11.88234375 62.421875 10.77734375 C62.6075 9.53984375 62.793125 8.30234375 62.984375 7.02734375 C63.0875 6.26421875 63.190625 5.50109375 63.296875 4.71484375 C64.2777748 2.30718061 65.63818229 2.03285491 67.984375 1.02734375 C68.54125 0.49109375 69.098125 -0.04515625 69.671875 -0.59765625 C74.19242071 -3.28554829 79.40544694 -2.32352915 84.359375 -1.22265625 C87.44158178 0.24506127 88.54906776 0.9175114 89.984375 4.02734375 C90.21891883 7.045141 90.15859168 10.00758804 89.984375 13.02734375 C85.67064708 15.32799864 81.84676585 15.16171504 77.09375 15 C74.99730565 14.78178578 74.99730565 14.78178578 73.984375 16.02734375 C77.614375 16.02734375 81.244375 16.02734375 84.984375 16.02734375 C84.984375 16.35734375 84.984375 16.68734375 84.984375 17.02734375 C82.344375 17.02734375 79.704375 17.02734375 76.984375 17.02734375 C77.10615188 18.94200742 77.10615188 18.94200742 77.984375 21.02734375 C83.14523783 24.79337879 87.66623713 25.52878326 93.984375 25.02734375 C100.12360365 23.40665785 106.51931373 21.6431327 109.984375 16.02734375 C110.37176582 12.32095593 110.27679199 8.7377905 109.984375 5.02734375 C108.499375 5.52234375 108.499375 5.52234375 106.984375 6.02734375 C106.654375 7.01734375 106.324375 8.00734375 105.984375 9.02734375 C104.52701413 9.22225827 103.06842907 9.40803733 101.609375 9.58984375 C100.79726563 9.69425781 99.98515625 9.79867187 99.1484375 9.90625 C96.984375 10.02734375 96.984375 10.02734375 94.984375 9.02734375 C94.921875 5.83984375 94.921875 5.83984375 95.984375 2.02734375 C99.73246994 -1.27883606 104.17790189 -3.24094389 109.171875 -3.59765625 C114.04078183 -2.7994748 115.57994026 -1.46012599 118.984375 2.02734375 C120.59163135 5.24185644 120.04185685 8.46346911 119.984375 12.02734375 C125.48727626 9.91562092 130.81915916 7.62952233 136.109375 5.02734375 C175.56733977 -13.24792414 229.09653323 -4.38074553 268.984375 8.02734375 C270.8952907 8.75292129 272.80287409 9.48733546 274.70703125 10.23046875 C279.11007548 11.8713548 282.44236714 12.38760283 287.171875 11.77734375 C288.27917969 11.6484375 289.38648438 11.51953125 290.52734375 11.38671875 C291.33816406 11.268125 292.14898438 11.14953125 292.984375 11.02734375 C292.654375 10.36734375 292.324375 9.70734375 291.984375 9.02734375 C287.364375 9.02734375 282.744375 9.02734375 277.984375 9.02734375 C277.654375 7.37734375 277.324375 5.72734375 276.984375 4.02734375 C284.06612454 1.26373417 289.84685513 1.46861021 296.984375 4.02734375 C299.38167431 5.5342176 300.98422358 7.02717214 302.859375 9.15234375 C305.68474127 11.64531399 307.21143764 12.10132291 310.984375 12.02734375 C312.76493848 10.94025342 312.76493848 10.94025342 314.484375 9.52734375 C317.65104167 7.02039931 317.65104167 7.02039931 320.984375 7.08984375 C321.974375 7.39921875 322.964375 7.70859375 323.984375 8.02734375 C344.66565441 14.27074886 368.38539141 12.16890185 389.72265625 12.125 C392.42791211 12.12256486 395.13316794 12.12165952 397.83842468 12.12071228 C404.1701088 12.11763805 410.50177509 12.10947896 416.83345145 12.09936279 C424.05749861 12.08807822 431.28154675 12.08266051 438.50560057 12.07766736 C453.33186772 12.06729177 468.15812105 12.04977038 482.984375 12.02734375 C482.984375 14.66734375 482.984375 17.30734375 482.984375 20.02734375 C482.23930443 20.02550016 481.49423386 20.02365658 480.72658539 20.02175713 C462.58132208 19.97755154 444.43606955 19.94447425 426.29076385 19.92371941 C417.51576298 19.91341525 408.74079809 19.89937138 399.96582031 19.87646484 C392.31584476 19.85650461 384.66589528 19.84362106 377.01589441 19.83916676 C372.96683683 19.83656384 368.91785383 19.8304638 364.86882019 19.81588364 C361.05380155 19.80225809 357.23888786 19.79813112 353.4238472 19.80112839 C352.02750197 19.80058044 350.63115305 19.79663268 349.23482895 19.7889328 C336.9433363 19.52216131 336.9433363 19.52216131 325.859375 24.15234375 C322.37672178 26.42363933 321.06838237 26.74805093 316.984375 26.02734375 C315.46241489 25.23482759 313.96359203 24.39703417 312.484375 23.52734375 C308.75310662 21.3497306 306.37521099 19.97736123 301.984375 21.02734375 C300.18756403 22.42632066 298.54874228 23.9528267 296.87109375 25.4921875 C289.6499783 31.36775349 279.77403914 30.7757706 270.984375 30.02734375 C261.01269571 28.41900838 252.37515171 24.61140977 243.41699219 20.11352539 C239.61948889 18.21036922 236.26388483 16.53435395 231.984375 16.02734375 C230.88931008 19.3125385 230.88476892 21.7639779 230.921875 25.21484375 C230.93541016 26.84486328 230.93541016 26.84486328 230.94921875 28.5078125 C230.96082031 29.33925781 230.97242188 30.17070312 230.984375 31.02734375 C226.97939706 33.4511356 224.06287735 35.04562345 219.296875 34.96484375 C215.91305553 34.00715899 213.73427299 33.21339711 210.984375 31.02734375 C210.390625 27.99609375 210.390625 27.99609375 210.484375 24.52734375 C210.4946875 23.38265625 210.505 22.23796875 210.515625 21.05859375 C210.984375 18.02734375 210.984375 18.02734375 212.37890625 16.1953125 C214.16517444 14.89581326 215.97048648 13.93012136 217.984375 13.02734375 C217.984375 12.36734375 217.984375 11.70734375 217.984375 11.02734375 C209.57270203 5.71071072 201.95232019 4.57528245 192.19140625 6.609375 C188.9750958 7.55905276 188.9750958 7.55905276 185.984375 9.02734375 C185.654375 10.01734375 185.324375 11.00734375 184.984375 12.02734375 C183.664375 12.02734375 182.344375 12.02734375 180.984375 12.02734375 C181.58765625 12.20910156 182.1909375 12.39085937 182.8125 12.578125 C187.05163125 13.91140015 190.5935215 15.04339267 193.984375 18.02734375 C194.644375 18.35734375 195.304375 18.68734375 195.984375 19.02734375 C195.79246873 28.0120465 195.79246873 28.0120465 192.546875 32.08984375 C189.26707429 34.56969307 187.59104019 35.19765577 183.546875 35.27734375 C182.76441406 35.303125 181.98195313 35.32890625 181.17578125 35.35546875 C178.50505991 34.95557464 177.66460061 34.08035253 175.984375 32.02734375 C176.546875 30.15234375 176.546875 30.15234375 177.984375 28.02734375 C181.609375 26.77734375 181.609375 26.77734375 184.984375 26.02734375 C185.36656267 24.37119718 185.69832602 22.70277351 185.984375 21.02734375 C184.75041559 19.57344106 184.75041559 19.57344106 181.01171875 19.76953125 C175.73671321 19.8341019 171.43129184 21.2776891 166.546875 23.15234375 C164.77897353 23.79777332 163.0107373 24.44228655 161.2421875 25.0859375 C160.36079102 25.41190918 159.47939453 25.73788086 158.57128906 26.07373047 C134.1899802 35.06140435 103.68160865 44.84394614 78.56640625 33.7578125 C73.59412861 31.35571981 68.74392527 28.82654285 63.984375 26.02734375 C63.324375 25.69734375 62.664375 25.36734375 61.984375 25.02734375 C61.200625 24.22296875 60.416875 23.41859375 59.609375 22.58984375 C56.99786768 19.78011032 56.99786768 19.78011032 52.984375 18.02734375 C52.984375 21.98734375 52.984375 25.94734375 52.984375 30.02734375 C47.90625 32.95703125 47.90625 32.95703125 45.984375 34.02734375 C45.35015625 34.3934375 44.7159375 34.75953125 44.0625 35.13671875 C37.79197371 37.82408716 30.82326347 36.17873076 24.671875 33.96484375 C23.25455078 33.39056641 23.25455078 33.39056641 21.80859375 32.8046875 C17.25799711 31.55217197 14.06710346 32.44086584 9.984375 34.65234375 C6.33010889 36.32721572 4.80448256 36.14154179 0.984375 35.02734375 C-0.500625 34.22296875 -0.500625 34.22296875 -2.015625 33.40234375 C-7.21267787 31.02036118 -11.81323939 33.20544416 -16.953125 35.08984375 C-23.38448576 37.25477777 -27.95398934 38.20238061 -34.203125 35.15234375 C-35.4779922 34.45129661 -36.7488914 33.74298294 -38.015625 33.02734375 C-38.73878906 32.77984375 -39.46195312 32.53234375 -40.20703125 32.27734375 C-42.015625 31.02734375 -42.015625 31.02734375 -42.625 28.20703125 C-42.67140625 27.11648437 -42.7178125 26.0259375 -42.765625 24.90234375 C-42.82234375 23.80664062 -42.8790625 22.7109375 -42.9375 21.58203125 C-42.96328125 20.73898438 -42.9890625 19.8959375 -43.015625 19.02734375 C-44.005625 18.69734375 -44.995625 18.36734375 -46.015625 18.02734375 C-48.07067196 19.46010914 -49.92313418 20.91472971 -51.828125 22.52734375 C-65.68533612 33.67621577 -81.09243005 39.58044929 -99.015625 38.02734375 C-118.04666101 35.58160544 -136.57884966 29.18337371 -154.515625 22.58984375 C-160.13763944 20.53387717 -165.93873425 18.42217621 -172.015625 19.02734375 C-175.18229167 20.86067708 -175.18229167 20.86067708 -177.015625 24.02734375 C-177.015625 25.01734375 -177.015625 26.00734375 -177.015625 27.02734375 C-173.385625 27.02734375 -169.755625 27.02734375 -166.015625 27.02734375 C-166.015625 29.00734375 -166.015625 30.98734375 -166.015625 33.02734375 C-171.5840506 35.90756389 -176.89696112 37.16922953 -183.05859375 35.4609375 C-184.953125 34.71484375 -184.953125 34.71484375 -188.015625 33.02734375 C-189.02059352 30.01243818 -189.11897803 27.98552683 -189.078125 24.83984375 C-189.06910156 23.93878906 -189.06007813 23.03773438 -189.05078125 22.109375 C-189.03337891 21.07876953 -189.03337891 21.07876953 -189.015625 20.02734375 C-177.67849516 13.32347131 -177.67849516 13.32347131 -171.015625 13.02734375 C-171.015625 12.36734375 -171.015625 11.70734375 -171.015625 11.02734375 C-172.59860526 10.54701195 -174.18202478 10.06812763 -175.765625 9.58984375 C-176.64734375 9.32300781 -177.5290625 9.05617187 -178.4375 8.78125 C-186.8216121 6.32953237 -193.133623 6.13115232 -201.16796875 9.95703125 C-203.17188715 11.01199183 -203.17188715 11.01199183 -205.015625 13.02734375 C-204.54254546 14.88587051 -204.06079742 16.74270515 -203.53125 18.5859375 C-202.59444826 23.02155181 -202.86638009 27.51683098 -203.015625 32.02734375 C-203.61375 32.31609375 -204.211875 32.60484375 -204.828125 32.90234375 C-207.20890292 34.07476401 -207.20890292 34.07476401 -210.015625 36.02734375 C-216.12252155 36.58251616 -216.12252155 36.58251616 -219.328125 34.58984375 C-220.1634375 33.81640625 -220.1634375 33.81640625 -221.015625 33.02734375 C-221.675625 32.69734375 -222.335625 32.36734375 -223.015625 32.02734375 C-223.015625 27.07734375 -223.015625 22.12734375 -223.015625 17.02734375 C-230.89362654 16.55073867 -235.78715858 17.74191836 -242.765625 21.27734375 C-255.27037875 27.22690556 -271.63156046 34.72274844 -285.578125 29.77734375 C-288.48257981 28.29871221 -291.28034558 26.79723043 -294.015625 25.02734375 C-294.675625 24.69734375 -295.335625 24.36734375 -296.015625 24.02734375 C-296.015625 23.36734375 -296.015625 22.70734375 -296.015625 22.02734375 C-296.94375 22.02734375 -297.871875 22.02734375 -298.828125 22.02734375 C-300.890625 22.02734375 -302.953125 22.02734375 -305.015625 22.02734375 C-307.35521509 23.51382364 -309.54060754 25.1551226 -311.76171875 26.8125 C-314.015625 28.02734375 -314.015625 28.02734375 -316.09765625 27.80859375 C-318.81887719 26.70015345 -321.41287767 25.38787076 -324.015625 24.02734375 C-324.015625 23.36734375 -324.015625 22.70734375 -324.015625 22.02734375 C-325.16195341 22.02099584 -325.16195341 22.02099584 -326.33143997 22.01451969 C-344.91764138 21.91126183 -363.50380425 21.80263134 -382.08993912 21.68800449 C-391.0780126 21.63270194 -400.06609006 21.57922479 -409.05419922 21.5300293 C-416.88727755 21.48715113 -424.72032701 21.44086394 -432.5533607 21.3904652 C-436.70173528 21.36389355 -440.85010425 21.33904119 -444.99851227 21.31826973 C-448.9021692 21.29866993 -452.80577133 21.27451615 -456.7093792 21.24685287 C-458.1428649 21.23750015 -459.57636262 21.2298185 -461.00986671 21.22392464 C-462.96593228 21.21563332 -464.92196669 21.20076786 -466.87799072 21.18556213 C-467.97308079 21.17910958 -469.06817085 21.17265703 -470.19644547 21.16600895 C-472.63984044 21.04582723 -474.68491039 20.73404457 -477.015625 20.02734375 C-477.015625 18.70734375 -477.015625 17.38734375 -477.015625 16.02734375 C-465.44807761 11.95822863 -453.93709153 11.87533935 -441.78320312 11.94555664 C-439.84425138 11.95026332 -437.90529964 11.95496788 -435.96634769 11.95959175 C-433.90877203 11.96543054 -431.85121955 11.97375028 -429.7936554 11.98274422 C-425.49017076 12.00120712 -421.18669388 12.01067883 -416.88317871 12.0186615 C-404.6554815 12.04269186 -392.42783461 12.07884033 -380.20019531 12.12329102 C-373.4262096 12.14783729 -366.65224279 12.16519647 -359.87821913 12.1748504 C-355.6007995 12.18138356 -351.32353745 12.19691797 -347.04617214 12.21916783 C-343.76842416 12.23364494 -340.49066595 12.23507716 -337.21289062 12.23852539 C-335.43934708 12.25166779 -335.43934708 12.25166779 -333.62997437 12.26507568 C-332.5479776 12.26377151 -331.46598083 12.26246735 -330.35119629 12.26112366 C-328.94210873 12.26583726 -328.94210873 12.26583726 -327.50455475 12.2706461 C-324.85160179 12.01130986 -323.25080731 11.45994117 -321.015625 10.02734375 C-319.74757934 7.99374895 -319.74757934 7.99374895 -319.015625 6.02734375 C-313.2243603 5.57312691 -311.41059868 6.46950791 -307.015625 10.02734375 C-304.05432614 10.9392835 -301.07030902 11.52155729 -298.015625 12.02734375 C-297.83 11.28484375 -297.644375 10.54234375 -297.453125 9.77734375 C-295.78257992 6.58151838 -293.98095969 5.54651968 -290.8046875 3.9453125 C-288.83413733 2.99620899 -288.83413733 2.99620899 -286.578125 1.21484375 C-282.77642501 -0.54691966 -280.09347816 0.26706604 -276.015625 1.02734375 C-276.675625 3.33734375 -277.335625 5.64734375 -278.015625 8.02734375 C-272.66545825 10.06914208 -268.54161094 7.48807531 -263.640625 5.33984375 C-250.0002274 -0.38012247 -236.8200948 -4.09279666 -221.90991211 -4.1496582 C-220.75924255 -4.159515 -220.75924255 -4.159515 -219.58532715 -4.16957092 C-217.07120632 -4.18912102 -214.55714477 -4.20092706 -212.04296875 -4.2109375 C-210.74160068 -4.21705079 -210.74160068 -4.21705079 -209.41394234 -4.22328758 C-204.81901419 -4.24407342 -200.22411522 -4.25840569 -195.62915039 -4.26782227 C-190.9246733 -4.27885424 -186.22067334 -4.31323861 -181.5163641 -4.35299397 C-177.86224084 -4.37935183 -174.20822793 -4.38753107 -170.55401802 -4.39110374 C-168.82195384 -4.39592252 -167.08989298 -4.40739875 -165.35792351 -4.42614174 C-151.30757968 -4.56871126 -138.17210856 -3.31626622 -125.953125 4.33984375 C-121.16117784 7.33270776 -121.16117784 7.33270776 -115.58203125 7.7578125 C-114.73511719 7.51675781 -113.88820313 7.27570313 -113.015625 7.02734375 C-112.95375 5.93421875 -112.891875 4.84109375 -112.828125 3.71484375 C-112.015625 0.02734375 -112.015625 0.02734375 -109.83984375 -1.67578125 C-105.01540539 -3.89115267 -100.2136762 -3.62690612 -95.015625 -2.97265625 C-91.94482194 -1.28672516 -90.62049998 -0.32199275 -89.203125 2.83984375 C-88.93717899 5.94254726 -88.84273228 8.91527484 -89.015625 12.02734375 C-89.675625 12.68734375 -90.335625 13.34734375 -91.015625 14.02734375 C-93.015625 13.90234375 -93.015625 13.90234375 -95.015625 13.02734375 C-96.45709799 10.75133377 -97.16007922 8.59398109 -98.015625 6.02734375 C-100.325625 5.69734375 -102.635625 5.36734375 -105.015625 5.02734375 C-104.14438398 11.51405378 -104.14438398 11.51405378 -101.515625 17.40234375 C-93.83200076 22.3966995 -86.1651722 24.22500137 -77.015625 23.02734375 C-73.97428009 21.35810304 -73.97428009 21.35810304 -73.015625 19.02734375 C-74.005625 18.36734375 -74.995625 17.70734375 -76.015625 17.02734375 C-74.5615625 17.05828125 -74.5615625 17.05828125 -73.078125 17.08984375 C-70.14096605 17.38352874 -70.14096605 17.38352874 -69.015625 16.02734375 C-70.0675 16.06859375 -71.119375 16.10984375 -72.203125 16.15234375 C-75.80750568 16.03416733 -77.96382695 15.91227784 -81.015625 14.02734375 C-82.48353637 10.25271453 -82.21143975 6.85395094 -81.015625 3.02734375 C-77.8168801 -0.39988292 -76.01766951 -1.68635782 -71.515625 -2.97265625 C-67.43101885 -2.97265625 -65.47847748 -2.0804795 -62.015625 0.02734375 C-61.0875 0.41921875 -60.159375 0.81109375 -59.203125 1.21484375 C-56.63566734 3.34216581 -56.60778959 4.02248973 -56.203125 7.21484375 C-56.1103125 9.10203125 -56.1103125 9.10203125 -56.015625 11.02734375 C-53.30972104 11.98101827 -53.30972104 11.98101827 -50.015625 12.02734375 C-47.53895722 10.63282361 -46.04003084 9.09994973 -44.015625 7.02734375 C-44.015625 6.36734375 -44.015625 5.70734375 -44.015625 5.02734375 C-43.49484375 4.93324219 -42.9740625 4.83914062 -42.4375 4.7421875 C-39.16259958 3.77556367 -36.27393902 2.1717708 -33.265625 0.58984375 C-21.45999455 -5.40628162 -11.70958919 -7.16278062 0 0 Z M-172.015625 4.02734375 C-171.1652063 4.32016235 -171.1652063 4.32016235 -170.29760742 4.61889648 C-160.14288352 8.1427563 -150.16021876 11.76048748 -140.515625 16.52734375 C-133.60958686 19.92624257 -126.62444381 22.83171427 -119.390625 25.46484375 C-118.49021484 25.79484375 -117.58980469 26.12484375 -116.66210938 26.46484375 C-108.15062702 29.494247 -100.32289818 31.37043886 -91.265625 31.21484375 C-90.53730469 31.21419922 -89.80898438 31.21355469 -89.05859375 31.21289062 C-85.26042339 31.18187108 -81.70774095 30.93583685 -78.015625 30.02734375 C-78.015625 29.69734375 -78.015625 29.36734375 -78.015625 29.02734375 C-78.88960937 29.09695312 -78.88960937 29.09695312 -79.78125 29.16796875 C-92.18328778 29.71397041 -102.24214662 24.11714488 -112.765625 18.15234375 C-141.38809395 2.20846928 -141.38809395 2.20846928 -172.015625 4.02734375 Z M14.984375 4.02734375 C14.28688917 5.34481699 13.61477543 6.67648568 12.984375 8.02734375 C15.04431961 9.63488471 17.10717976 11.23842425 19.171875 12.83984375 C19.75001953 13.29166016 20.32816406 13.74347656 20.92382812 14.20898438 C23.51429384 16.21403411 25.99610334 18.03404794 28.84765625 19.6640625 C30.984375 21.02734375 30.984375 21.02734375 31.984375 24.02734375 C33.964375 23.69734375 35.944375 23.36734375 37.984375 23.02734375 C38.108125 21.91359375 38.231875 20.79984375 38.359375 19.65234375 C38.984375 16.02734375 38.984375 16.02734375 40.984375 14.02734375 C42.97258813 13.62970112 44.97381839 13.28959026 46.984375 13.02734375 C46.324375 12.36734375 45.664375 11.70734375 44.984375 11.02734375 C42.87616703 11.34586145 42.87616703 11.34586145 40.984375 12.02734375 C40.984375 11.36734375 40.984375 10.70734375 40.984375 10.02734375 C41.644375 9.69734375 42.304375 9.36734375 42.984375 9.02734375 C41.23756207 8.04250267 39.4867899 7.06468188 37.734375 6.08984375 C36.75984375 5.54457031 35.7853125 4.99929687 34.78125 4.4375 C30.5060642 2.28199431 27.13273709 1.87200926 22.359375 1.83984375 C21.39773438 1.82566406 20.43609375 1.81148437 19.4453125 1.796875 C16.80631751 1.78000551 16.80631751 1.78000551 14.984375 4.02734375 Z M-230.015625 3.02734375 C-230.015625 3.35734375 -230.015625 3.68734375 -230.015625 4.02734375 C-221.765625 4.02734375 -213.515625 4.02734375 -205.015625 4.02734375 C-205.015625 3.69734375 -205.015625 3.36734375 -205.015625 3.02734375 C-213.265625 3.02734375 -221.515625 3.02734375 -230.015625 3.02734375 Z M-34.015625 8.02734375 C-34.015625 9.01734375 -34.015625 10.00734375 -34.015625 11.02734375 C-34.675625 11.68734375 -35.335625 12.34734375 -36.015625 13.02734375 C-34.345 13.46046875 -34.345 13.46046875 -32.640625 13.90234375 C-29.015625 15.02734375 -29.015625 15.02734375 -27.015625 17.02734375 C-26.29635205 19.34500104 -25.6246357 21.67830249 -25.015625 24.02734375 C-23.695625 24.35734375 -22.375625 24.68734375 -21.015625 25.02734375 C-20.7475 24.38796875 -20.479375 23.74859375 -20.203125 23.08984375 C-19.015625 21.02734375 -19.015625 21.02734375 -16.015625 20.02734375 C-15.9228125 18.88265625 -15.9228125 18.88265625 -15.828125 17.71484375 C-15.015625 15.02734375 -15.015625 15.02734375 -12.953125 13.46484375 C-11.98375 12.99046875 -11.014375 12.51609375 -10.015625 12.02734375 C-9.31953125 11.67414063 -8.6234375 11.3209375 -7.90625 10.95703125 C-5.94990914 9.96498606 -3.98623735 8.99064557 -2.015625 8.02734375 C-2.510625 6.54234375 -2.510625 6.54234375 -3.015625 5.02734375 C-5.6690572 3.98970768 -5.6690572 3.98970768 -8.828125 3.33984375 C-9.88644531 3.08847656 -10.94476563 2.83710938 -12.03515625 2.578125 C-19.38766134 1.21940519 -28.10591843 3.2995785 -34.015625 8.02734375 Z M113.6875 22.99023438 C112.75808594 23.48458984 111.82867188 23.97894531 110.87109375 24.48828125 C110.04826904 24.92962402 109.22544434 25.3709668 108.37768555 25.82568359 C105.95761826 27.04077807 103.51188178 28.05840523 100.984375 29.02734375 C100.984375 29.68734375 100.984375 30.34734375 100.984375 31.02734375 C118.99970066 32.50400979 136.34708371 23.6820695 152.296875 16.40234375 C154.23053202 15.53384642 156.16477506 14.66665264 158.09960938 13.80078125 C168.62363006 9.08672268 168.62363006 9.08672268 178.984375 4.02734375 C178.984375 3.69734375 178.984375 3.36734375 178.984375 3.02734375 C154.202709 1.93537316 135.11878195 11.5873337 113.6875 22.99023438 Z M219.984375 3.02734375 C221.304375 4.01734375 222.624375 5.00734375 223.984375 6.02734375 C223.654375 6.68734375 223.324375 7.34734375 222.984375 8.02734375 C224.7478125 8.42953125 224.7478125 8.42953125 226.546875 8.83984375 C227.38734375 9.03191406 228.2278125 9.22398437 229.09375 9.421875 C231.03109503 9.82767024 232.98062333 10.17888946 234.9375 10.4765625 C247.87055895 12.59698263 259.9708224 17.47702879 272.19799805 22.04345703 C278.27850426 24.19052091 283.79662042 25.15599551 289.921875 22.52734375 C290.9325 22.03234375 291.943125 21.53734375 292.984375 21.02734375 C292.489375 20.03734375 292.489375 20.03734375 291.984375 19.02734375 C289.81107892 18.57727109 287.61811478 18.22220636 285.421875 17.90234375 C278.02246115 16.69118868 271.12311663 14.54116024 264.046875 12.08984375 C249.36203286 7.0445122 235.5687785 3.48103818 219.984375 3.02734375 Z M-251.56298828 8.19775391 C-254.29474131 9.12175319 -257.04120099 9.98905458 -259.79296875 10.8515625 C-263.56668673 12.03649263 -267.33069509 13.24629567 -271.08984375 14.4765625 C-275.36247796 15.85587757 -279.64678424 16.9948936 -284.015625 18.02734375 C-282.530625 19.01734375 -282.530625 19.01734375 -281.015625 20.02734375 C-281.675625 20.68734375 -282.335625 21.34734375 -283.015625 22.02734375 C-272.26641639 24.01793794 -263.53025779 20.68455081 -253.640625 16.58984375 C-241.67513108 11.81995673 -232.02654244 8.1798115 -219.06298828 9.86865234 C-213.31380217 10.49477443 -210.62998329 9.15786918 -206.015625 6.02734375 C-220.25996875 1.27922917 -237.62120532 3.48123419 -251.56298828 8.19775391 Z M-103.015625 4.02734375 C-103.015625 4.35734375 -103.015625 4.68734375 -103.015625 5.02734375 C-101.035625 5.02734375 -99.055625 5.02734375 -97.015625 5.02734375 C-97.015625 4.69734375 -97.015625 4.36734375 -97.015625 4.02734375 C-98.995625 4.02734375 -100.975625 4.02734375 -103.015625 4.02734375 Z M87.984375 4.02734375 C88.984375 6.02734375 88.984375 6.02734375 88.984375 6.02734375 Z M11.984375 5.02734375 C12.984375 7.02734375 12.984375 7.02734375 12.984375 7.02734375 Z M63.984375 5.02734375 C64.984375 7.02734375 64.984375 7.02734375 64.984375 7.02734375 Z M95.984375 5.02734375 C96.984375 8.02734375 96.984375 8.02734375 96.984375 8.02734375 Z M111.984375 8.02734375 C112.984375 12.02734375 112.984375 12.02734375 112.984375 12.02734375 Z M-106.015625 9.02734375 C-105.015625 11.02734375 -105.015625 11.02734375 -105.015625 11.02734375 Z M-286.015625 10.02734375 C-286.015625 10.68734375 -286.015625 11.34734375 -286.015625 12.02734375 C-284.035625 12.02734375 -282.055625 12.02734375 -280.015625 12.02734375 C-280.015625 11.69734375 -280.015625 11.36734375 -280.015625 11.02734375 C-282.985625 10.53234375 -282.985625 10.53234375 -286.015625 10.02734375 Z M-280.015625 10.02734375 C-276.015625 11.02734375 -276.015625 11.02734375 -276.015625 11.02734375 Z M283.984375 13.02734375 C283.984375 13.35734375 283.984375 13.68734375 283.984375 14.02734375 C286.954375 14.35734375 289.924375 14.68734375 292.984375 15.02734375 C292.984375 14.36734375 292.984375 13.70734375 292.984375 13.02734375 C290.014375 13.02734375 287.044375 13.02734375 283.984375 13.02734375 Z M293.984375 13.02734375 C294.314375 13.68734375 294.644375 14.34734375 294.984375 15.02734375 C295.314375 14.36734375 295.644375 13.70734375 295.984375 13.02734375 C295.324375 13.02734375 294.664375 13.02734375 293.984375 13.02734375 Z M303.984375 13.02734375 C307.984375 14.02734375 307.984375 14.02734375 307.984375 14.02734375 Z M318.984375 14.02734375 C318.324375 15.34734375 317.664375 16.66734375 316.984375 18.02734375 C318.634375 18.02734375 320.284375 18.02734375 321.984375 18.02734375 C321.984375 17.03734375 321.984375 16.04734375 321.984375 15.02734375 C320.994375 14.69734375 320.004375 14.36734375 318.984375 14.02734375 Z M-229.015625 15.02734375 C-229.015625 15.35734375 -229.015625 15.68734375 -229.015625 16.02734375 C-225.715625 16.02734375 -222.415625 16.02734375 -219.015625 16.02734375 C-219.015625 15.69734375 -219.015625 15.36734375 -219.015625 15.02734375 C-222.315625 15.02734375 -225.615625 15.02734375 -229.015625 15.02734375 Z M-312.015625 16.02734375 C-311.355625 16.68734375 -310.695625 17.34734375 -310.015625 18.02734375 C-310.015625 17.36734375 -310.015625 16.70734375 -310.015625 16.02734375 C-310.675625 16.02734375 -311.335625 16.02734375 -312.015625 16.02734375 Z M-287.015625 19.02734375 C-286.685625 19.68734375 -286.355625 20.34734375 -286.015625 21.02734375 C-285.025625 20.69734375 -284.035625 20.36734375 -283.015625 20.02734375 C-284.335625 19.69734375 -285.655625 19.36734375 -287.015625 19.02734375 Z M221.984375 20.02734375 C222.984375 23.02734375 222.984375 23.02734375 222.984375 23.02734375 Z M-27.015625 21.02734375 C-26.015625 24.02734375 -26.015625 24.02734375 -26.015625 24.02734375 Z M218.984375 21.02734375 C219.984375 24.02734375 219.984375 24.02734375 219.984375 24.02734375 Z M-214.015625 22.02734375 C-213.685625 23.01734375 -213.355625 24.00734375 -213.015625 25.02734375 C-212.685625 24.03734375 -212.355625 23.04734375 -212.015625 22.02734375 C-212.675625 22.02734375 -213.335625 22.02734375 -214.015625 22.02734375 Z M-212.015625 23.02734375 C-211.015625 25.02734375 -211.015625 25.02734375 -211.015625 25.02734375 Z M33.984375 24.02734375 C37.984375 25.02734375 37.984375 25.02734375 37.984375 25.02734375 Z M-28.015625 25.02734375 C-28.015625 25.35734375 -28.015625 25.68734375 -28.015625 26.02734375 C-26.035625 26.02734375 -24.055625 26.02734375 -22.015625 26.02734375 C-22.015625 25.69734375 -22.015625 25.36734375 -22.015625 25.02734375 C-23.995625 25.02734375 -25.975625 25.02734375 -28.015625 25.02734375 Z M181.984375 28.02734375 C185.984375 29.02734375 185.984375 29.02734375 185.984375 29.02734375 Z " fill="#000000" transform="translate(477.015625,222.97265625)"/>
<path d="M0 0 C49.17 0 98.34 0 149 0 C149 0.33 149 0.66 149 1 C99.83 1 50.66 1 0 1 C0 0.67 0 0.34 0 0 Z " fill="#000000" transform="translate(4,245)"/>
<path d="M0 0 C34.65 0 69.3 0 105 0 C105 0.33 105 0.66 105 1 C70.35 1 35.7 1 0 1 C0 0.67 0 0.34 0 0 Z " fill="#000000" transform="translate(814,243)"/>
<path d="M0 0 C28.71 0 57.42 0 87 0 C87 0.33 87 0.66 87 1 C58.29 1 29.58 1 0 1 C0 0.67 0 0.34 0 0 Z " fill="#000000" transform="translate(21,233)"/>
<path d="M0 0 C22.77 0 45.54 0 69 0 C69 0.33 69 0.66 69 1 C46.23 1 23.46 1 0 1 C0 0.67 0 0.34 0 0 Z " fill="#000000" transform="translate(840,234)"/>
<path d="M0 0 C16.5 0 33 0 50 0 C50 0.33 50 0.66 50 1 C33.5 1 17 1 0 1 C0 0.67 0 0.34 0 0 Z " fill="#000000" transform="translate(910,233)"/>
<path d="M0 0 C14.19 0 28.38 0 43 0 C43 0.33 43 0.66 43 1 C28.81 1 14.62 1 0 1 C0 0.67 0 0.34 0 0 Z " fill="#000000" transform="translate(109,234)"/>
<path d="M0 0 C12.54 0 25.08 0 38 0 C38 0.33 38 0.66 38 1 C25.46 1 12.92 1 0 1 C0 0.67 0 0.34 0 0 Z " fill="#000000" transform="translate(922,244)"/>
<path d="M0 0 C9.57 0 19.14 0 29 0 C29 0.33 29 0.66 29 1 C19.43 1 9.86 1 0 1 C0 0.67 0 0.34 0 0 Z " fill="#000000" transform="translate(246,217)"/>
<path d="M0 0 C8.91 0 17.82 0 27 0 C27 0.33 27 0.66 27 1 C18.09 1 9.18 1 0 1 C0 0.67 0 0.34 0 0 Z " fill="#000000" transform="translate(301,217)"/>
<path d="M0 0 C8.58 0 17.16 0 26 0 C26 0.33 26 0.66 26 1 C17.42 1 8.84 1 0 1 C0 0.67 0 0.34 0 0 Z " fill="#000000" transform="translate(654,217)"/>
<path d="M0 0 C5.94 0.33 11.88 0.66 18 1 C18 1.33 18 1.66 18 2 C5.33029613 3.51708428 5.33029613 3.51708428 0 1 C0 0.67 0 0.34 0 0 Z " fill="#000000" transform="translate(308,226)"/>
<path d="M0 0 C7.92 0 15.84 0 24 0 C24 0.33 24 0.66 24 1 C16.08 1 8.16 1 0 1 C0 0.67 0 0.34 0 0 Z " fill="#000000" transform="translate(276,218)"/>
<path d="M0 0 C7.26 0 14.52 0 22 0 C22 0.33 22 0.66 22 1 C14.74 1 7.48 1 0 1 C0 0.67 0 0.34 0 0 Z " fill="#000000" transform="translate(818,233)"/>
<path d="M0 0 C6.6 0 13.2 0 20 0 C20 0.33 20 0.66 20 1 C13.4 1 6.8 1 0 1 C0 0.67 0 0.34 0 0 Z " fill="#000000" transform="translate(568,262)"/>
<path d="M0 0 C5.28 0 10.56 0 16 0 C16 0.33 16 0.66 16 1 C10.72 1 5.44 1 0 1 C0 0.67 0 0.34 0 0 Z " fill="#000000" transform="translate(747,254)"/>
<path d="M0 0 C4.62 0 9.24 0 14 0 C10.4513865 2.36574234 9.4235475 2.10865265 5.3125 1.625 C3.82169922 1.45871094 3.82169922 1.45871094 2.30078125 1.2890625 C1.54152344 1.19367188 0.78226563 1.09828125 0 1 C0 0.67 0 0.34 0 0 Z " fill="#000000" transform="translate(639,227)"/>
<path d="M0 0 C4.62 0 9.24 0 14 0 C14 0.33 14 0.66 14 1 C9.38 1 4.76 1 0 1 C0 0.67 0 0.34 0 0 Z " fill="#000000" transform="translate(378,262)"/>
<path d="M0 0 C4.62 0 9.24 0 14 0 C14 0.33 14 0.66 14 1 C9.38 1 4.76 1 0 1 C0 0.67 0 0.34 0 0 Z " fill="#000000" transform="translate(492,217)"/>
<path d="M0 0 C3.96 0 7.92 0 12 0 C12 0.33 12 0.66 12 1 C8.04 1 4.08 1 0 1 C0 0.67 0 0.34 0 0 Z " fill="#000000" transform="translate(388,245)"/>
<path d="M0 0 C3.96 0 7.92 0 12 0 C12 0.33 12 0.66 12 1 C8.04 1 4.08 1 0 1 C0 0.67 0 0.34 0 0 Z " fill="#000000" transform="translate(680,218)"/>
<path d="M0 0 C3.96 0 7.92 0 12 0 C12 0.33 12 0.66 12 1 C8.04 1 4.08 1 0 1 C0 0.67 0 0.34 0 0 Z " fill="#000000" transform="translate(370,218)"/>
<path d="M0 0 C3.63 0 7.26 0 11 0 C11 0.33 11 0.66 11 1 C7.37 1 3.74 1 0 1 C0 0.67 0 0.34 0 0 Z " fill="#000000" transform="translate(508,260)"/>
<path d="M0 0 C3.125 0.375 3.125 0.375 6 1 C6 1.33 6 1.66 6 2 C3.36 2 0.72 2 -2 2 C-1.34 1.34 -0.68 0.68 0 0 Z " fill="#000000" transform="translate(379,251)"/>
<path d="M0 0 C1.98 0 3.96 0 6 0 C4 2 4 2 1.375 2.125 C0.59125 2.08375 -0.1925 2.0425 -1 2 C-0.67 1.34 -0.34 0.68 0 0 Z " fill="#000000" transform="translate(763,243)"/>
<path d="M0 0 C3.63 0 7.26 0 11 0 C11 0.33 11 0.66 11 1 C7.37 1 3.74 1 0 1 C0 0.67 0 0.34 0 0 Z " fill="#000000" transform="translate(10,234)"/>
<path d="M0 0 C3.63 0 7.26 0 11 0 C11 0.33 11 0.66 11 1 C7.37 1 3.74 1 0 1 C0 0.67 0 0.34 0 0 Z " fill="#000000" transform="translate(673,229)"/>
<path d="M0 0 C3.63 0 7.26 0 11 0 C11 0.33 11 0.66 11 1 C7.37 1 3.74 1 0 1 C0 0.67 0 0.34 0 0 Z " fill="#000000" transform="translate(494,226)"/>
<path d="M0 0 C0.763125 0.20625 1.52625 0.4125 2.3125 0.625 C2.3125 0.955 2.3125 1.285 2.3125 1.625 C-0.3275 1.625 -2.9675 1.625 -5.6875 1.625 C-2.6875 -0.375 -2.6875 -0.375 0 0 Z " fill="#000000" transform="translate(585.6875,251.375)"/>
<path d="M0 0 C3.3 0 6.6 0 10 0 C10 0.33 10 0.66 10 1 C6.7 1 3.4 1 0 1 C0 0.67 0 0.34 0 0 Z " fill="#000000" transform="translate(759,232)"/>
<path d="M0 0 C3.3 0 6.6 0 10 0 C10 0.33 10 0.66 10 1 C6.7 1 3.4 1 0 1 C0 0.67 0 0.34 0 0 Z " fill="#000000" transform="translate(643,218)"/>
<path d="M0 0 C2.97 0 5.94 0 9 0 C9 0.33 9 0.66 9 1 C6.03 1 3.06 1 0 1 C0 0.67 0 0.34 0 0 Z " fill="#000000" transform="translate(656,259)"/>
<path d="M0 0 C2.97 0 5.94 0 9 0 C9 0.33 9 0.66 9 1 C6.03 1 3.06 1 0 1 C0 0.67 0 0.34 0 0 Z " fill="#000000" transform="translate(653,243)"/>
<path d="M0 0 C1.485 0.99 1.485 0.99 3 2 C2.34 2 1.68 2 1 2 C1 3.65 1 5.3 1 7 C0.67 7 0.34 7 0 7 C0 4.69 0 2.38 0 0 Z " fill="#000000" transform="translate(531,242)"/>
<path d="M0 0 C0.33 0 0.66 0 1 0 C1 2.97 1 5.94 1 9 C0.67 9 0.34 9 0 9 C0 6.03 0 3.06 0 0 Z " fill="#000000" transform="translate(709,241)"/>
<path d="M0 0 C2.31 0.33 4.62 0.66 7 1 C5.1875 1.625 5.1875 1.625 3 2 C2.01 1.34 1.02 0.68 0 0 Z " fill="#000000" transform="translate(754,233)"/>
<path d="M0 0 C2.97 0 5.94 0 9 0 C9 0.33 9 0.66 9 1 C6.03 1 3.06 1 0 1 C0 0.67 0 0.34 0 0 Z " fill="#000000" transform="translate(809,232)"/>
<path d="M0 0 C2.97 0 5.94 0 9 0 C9 0.33 9 0.66 9 1 C6.03 1 3.06 1 0 1 C0 0.67 0 0.34 0 0 Z " fill="#000000" transform="translate(702,228)"/>
<path d="M0 0 C0.33 0 0.66 0 1 0 C1 1.98 1 3.96 1 6 C1.66 6.33 2.32 6.66 3 7 C2.01 7 1.02 7 0 7 C0 4.69 0 2.38 0 0 Z " fill="#000000" transform="translate(598,227)"/>
<path d="M0 0 C2.64 0 5.28 0 8 0 C8 0.33 8 0.66 8 1 C5.36 1 2.72 1 0 1 C0 0.67 0 0.34 0 0 Z " fill="#000000" transform="translate(588,261)"/>
<path d="M0 0 C2.64 0 5.28 0 8 0 C8 0.33 8 0.66 8 1 C5.36 1 2.72 1 0 1 C0 0.67 0 0.34 0 0 Z " fill="#000000" transform="translate(296,260)"/>
<path d="M0 0 C2.64 0 5.28 0 8 0 C8 0.33 8 0.66 8 1 C5.36 1 2.72 1 0 1 C0 0.67 0 0.34 0 0 Z " fill="#000000" transform="translate(196,255)"/>
<path d="M0 0 C0.33 0 0.66 0 1 0 C1 2.64 1 5.28 1 8 C0.67 8 0.34 8 0 8 C0 5.36 0 2.72 0 0 Z " fill="#000000" transform="translate(287,245)"/>
<path d="M0 0 C1.98 0 3.96 0 6 0 C6 0.33 6 0.66 6 1 C3.69 1.33 1.38 1.66 -1 2 C-0.67 1.34 -0.34 0.68 0 0 Z " fill="#000000" transform="translate(779,244)"/>
<path d="M0 0 C0.33 0 0.66 0 1 0 C1 2.64 1 5.28 1 8 C0.67 8 0.34 8 0 8 C0 5.36 0 2.72 0 0 Z " fill="#000000" transform="translate(433,242)"/>
<path d="M0 0 C2.64 0 5.28 0 8 0 C8 0.33 8 0.66 8 1 C5.36 1 2.72 1 0 1 C0 0.67 0 0.34 0 0 Z " fill="#000000" transform="translate(702,230)"/>
<path d="M0 0 C2.64 0 5.28 0 8 0 C8 0.33 8 0.66 8 1 C5.36 1 2.72 1 0 1 C0 0.67 0 0.34 0 0 Z " fill="#000000" transform="translate(760,223)"/>
<path d="M0 0 C2.64 0 5.28 0 8 0 C8 0.33 8 0.66 8 1 C5.36 1 2.72 1 0 1 C0 0.67 0 0.34 0 0 Z " fill="#000000" transform="translate(693,219)"/>
<path d="M0 0 C2.64 0 5.28 0 8 0 C8 0.33 8 0.66 8 1 C5.36 1 2.72 1 0 1 C0 0.67 0 0.34 0 0 Z " fill="#000000" transform="translate(582,218)"/>
<path d="M0 0 C2.31 0 4.62 0 7 0 C7 0.33 7 0.66 7 1 C4.69 1 2.38 1 0 1 C0 0.67 0 0.34 0 0 Z " fill="#000000" transform="translate(447,261)"/>
<path d="M0 0 C2.31 0 4.62 0 7 0 C7 0.33 7 0.66 7 1 C4.69 1 2.38 1 0 1 C0 0.67 0 0.34 0 0 Z " fill="#000000" transform="translate(371,261)"/>
<path d="M0 0 C2.31 0 4.62 0 7 0 C7 0.33 7 0.66 7 1 C4.69 1 2.38 1 0 1 C0 0.67 0 0.34 0 0 Z " fill="#000000" transform="translate(260,260)"/>
<path d="M0 0 C2.31 0 4.62 0 7 0 C7 0.33 7 0.66 7 1 C4.69 1 2.38 1 0 1 C0 0.67 0 0.34 0 0 Z " fill="#000000" transform="translate(564,247)"/>
<path d="M0 0 C0.99 0.33 1.98 0.66 3 1 C1.35 1.33 -0.3 1.66 -2 2 C-1.34 1.34 -0.68 0.68 0 0 Z " fill="#000000" transform="translate(301,234)"/>
<path d="M0 0 C2.31 0 4.62 0 7 0 C7 0.33 7 0.66 7 1 C4.69 1 2.38 1 0 1 C0 0.67 0 0.34 0 0 Z " fill="#000000" transform="translate(284,230)"/>
<path d="M0 0 C0.33 0 0.66 0 1 0 C1 2.31 1 4.62 1 7 C0.67 7 0.34 7 0 7 C0 4.69 0 2.38 0 0 Z " fill="#000000" transform="translate(389,228)"/>
<path d="M0 0 C2.31 0 4.62 0 7 0 C7 0.33 7 0.66 7 1 C4.69 1 2.38 1 0 1 C0 0.67 0 0.34 0 0 Z " fill="#000000" transform="translate(701,220)"/>
<path d="M0 0 C2.31 0 4.62 0 7 0 C7 0.33 7 0.66 7 1 C4.69 1 2.38 1 0 1 C0 0.67 0 0.34 0 0 Z " fill="#000000" transform="translate(636,219)"/>
<path d="M0 0 C2.31 0 4.62 0 7 0 C7 0.33 7 0.66 7 1 C4.69 1 2.38 1 0 1 C0 0.67 0 0.34 0 0 Z " fill="#000000" transform="translate(239,218)"/>
<path d="M0 0 C1.98 0 3.96 0 6 0 C6 0.33 6 0.66 6 1 C4.02 1 2.04 1 0 1 C0 0.67 0 0.34 0 0 Z " fill="#000000" transform="translate(596,260)"/>
<path d="M0 0 C1.98 0 3.96 0 6 0 C6 0.33 6 0.66 6 1 C4.02 1 2.04 1 0 1 C0 0.67 0 0.34 0 0 Z " fill="#000000" transform="translate(204,254)"/>
<path d="M0 0 C1.98 0 3.96 0 6 0 C6 0.33 6 0.66 6 1 C4.02 1 2.04 1 0 1 C0 0.67 0 0.34 0 0 Z " fill="#000000" transform="translate(794,250)"/>
<path d="M0 0 C1.98 0 3.96 0 6 0 C6 0.33 6 0.66 6 1 C4.02 1 2.04 1 0 1 C0 0.67 0 0.34 0 0 Z " fill="#000000" transform="translate(808,244)"/>
<path d="M0 0 C1.98 0 3.96 0 6 0 C6 0.33 6 0.66 6 1 C4.02 1 2.04 1 0 1 C0 0.67 0 0.34 0 0 Z " fill="#000000" transform="translate(757,242)"/>
<path d="M0 0 C0.99 0.33 1.98 0.66 3 1 C1.68 1.33 0.36 1.66 -1 2 C-0.67 1.34 -0.34 0.68 0 0 Z " fill="#000000" transform="translate(796,238)"/>
<path d="M0 0 C0.33 1.32 0.66 2.64 1 4 C0.01 3.67 -0.98 3.34 -2 3 C-1.34 3 -0.68 3 0 3 C0 2.01 0 1.02 0 0 Z " fill="#000000" transform="translate(753,229)"/>
<path d="M0 0 C1.98 0 3.96 0 6 0 C6 0.33 6 0.66 6 1 C4.02 1 2.04 1 0 1 C0 0.67 0 0.34 0 0 Z " fill="#000000" transform="translate(710,231)"/>
<path d="M0 0 C1.98 0 3.96 0 6 0 C6 0.33 6 0.66 6 1 C4.02 1 2.04 1 0 1 C0 0.67 0 0.34 0 0 Z " fill="#000000" transform="translate(253,230)"/>
<path d="M0 0 C1.98 0 3.96 0 6 0 C6 0.33 6 0.66 6 1 C4.02 1 2.04 1 0 1 C0 0.67 0 0.34 0 0 Z " fill="#000000" transform="translate(711,229)"/>
<path d="M0 0 C0.99 0.33 1.98 0.66 3 1 C1.68 1.33 0.36 1.66 -1 2 C-0.67 1.34 -0.34 0.68 0 0 Z " fill="#000000" transform="translate(471,229)"/>
<path d="M0 0 C1.98 0 3.96 0 6 0 C6 0.33 6 0.66 6 1 C4.02 1 2.04 1 0 1 C0 0.67 0 0.34 0 0 Z " fill="#000000" transform="translate(462,227)"/>
<path d="M0 0 C1.98 0 3.96 0 6 0 C6 0.33 6 0.66 6 1 C4.02 1 2.04 1 0 1 C0 0.67 0 0.34 0 0 Z " fill="#000000" transform="translate(453,227)"/>
<path d="M0 0 C1.98 0 3.96 0 6 0 C6 0.33 6 0.66 6 1 C4.02 1 2.04 1 0 1 C0 0.67 0 0.34 0 0 Z " fill="#000000" transform="translate(459,216)"/>
<path d="M0 0 C1.65 0 3.3 0 5 0 C5 0.33 5 0.66 5 1 C3.35 1 1.7 1 0 1 C0 0.67 0 0.34 0 0 Z " fill="#000000" transform="translate(393,261)"/>
<path d="M0 0 C1.65 0 3.3 0 5 0 C5 0.33 5 0.66 5 1 C3.35 1 1.7 1 0 1 C0 0.67 0 0.34 0 0 Z " fill="#000000" transform="translate(454,260)"/>
<path d="M0 0 C1.65 0 3.3 0 5 0 C5 0.33 5 0.66 5 1 C3.35 1 1.7 1 0 1 C0 0.67 0 0.34 0 0 Z " fill="#000000" transform="translate(366,260)"/>
<path d="M0 0 C1.65 0 3.3 0 5 0 C5 0.33 5 0.66 5 1 C3.35 1 1.7 1 0 1 C0 0.67 0 0.34 0 0 Z " fill="#000000" transform="translate(695,259)"/>
<path d="M0 0 C1.65 0 3.3 0 5 0 C5 0.33 5 0.66 5 1 C3.35 1 1.7 1 0 1 C0 0.67 0 0.34 0 0 Z " fill="#000000" transform="translate(602,259)"/>
<path d="M0 0 C1.65 0 3.3 0 5 0 C5 0.33 5 0.66 5 1 C3.35 1 1.7 1 0 1 C0 0.67 0 0.34 0 0 Z " fill="#000000" transform="translate(191,254)"/>
<path d="M0 0 C1.65 0 3.3 0 5 0 C5 0.33 5 0.66 5 1 C3.35 1 1.7 1 0 1 C0 0.67 0 0.34 0 0 Z " fill="#000000" transform="translate(372,251)"/>
<path d="M0 0 C1.65 0 3.3 0 5 0 C5 0.33 5 0.66 5 1 C3.35 1 1.7 1 0 1 C0 0.67 0 0.34 0 0 Z " fill="#000000" transform="translate(304,248)"/>
<path d="M0 0 C1.65 0 3.3 0 5 0 C5 0.33 5 0.66 5 1 C3.35 1 1.7 1 0 1 C0 0.67 0 0.34 0 0 Z " fill="#000000" transform="translate(757,245)"/>
<path d="M0 0 C1.65 0 3.3 0 5 0 C5 0.33 5 0.66 5 1 C3.35 1 1.7 1 0 1 C0 0.67 0 0.34 0 0 Z " fill="#000000" transform="translate(305,242)"/>
<path d="M0 0 C1.65 0 3.3 0 5 0 C5 0.33 5 0.66 5 1 C3.35 1 1.7 1 0 1 C0 0.67 0 0.34 0 0 Z " fill="#000000" transform="translate(196,241)"/>
<path d="M0 0 C1.65 0 3.3 0 5 0 C5 0.33 5 0.66 5 1 C3.35 1 1.7 1 0 1 C0 0.67 0 0.34 0 0 Z " fill="#000000" transform="translate(5,235)"/>
<path d="M0 0 C1.65 0 3.3 0 5 0 C5 0.33 5 0.66 5 1 C3.35 1 1.7 1 0 1 C0 0.67 0 0.34 0 0 Z " fill="#000000" transform="translate(575,234)"/>
<path d="M0 0 C1.65 0 3.3 0 5 0 C5 0.33 5 0.66 5 1 C3.35 1 1.7 1 0 1 C0 0.67 0 0.34 0 0 Z " fill="#000000" transform="translate(716,232)"/>
<path d="M0 0 C1.65 0 3.3 0 5 0 C5 0.33 5 0.66 5 1 C3.35 1 1.7 1 0 1 C0 0.67 0 0.34 0 0 Z " fill="#000000" transform="translate(291,231)"/>
<path d="M0 0 C1.65 0 3.3 0 5 0 C5 0.33 5 0.66 5 1 C3.35 1 1.7 1 0 1 C0 0.67 0 0.34 0 0 Z " fill="#000000" transform="translate(259,231)"/>
<path d="M0 0 C1.65 0 3.3 0 5 0 C5 0.33 5 0.66 5 1 C3.35 1 1.7 1 0 1 C0 0.67 0 0.34 0 0 Z " fill="#000000" transform="translate(242,230)"/>
<path d="M0 0 C1.65 0 3.3 0 5 0 C5 0.33 5 0.66 5 1 C3.35 1 1.7 1 0 1 C0 0.67 0 0.34 0 0 Z " fill="#000000" transform="translate(247,229)"/>
<path d="M0 0 C1.65 0 3.3 0 5 0 C5 0.33 5 0.66 5 1 C3.35 1 1.7 1 0 1 C0 0.67 0 0.34 0 0 Z " fill="#000000" transform="translate(237,229)"/>
<path d="M0 0 C1.65 0 3.3 0 5 0 C5 0.33 5 0.66 5 1 C3.35 1 1.7 1 0 1 C0 0.67 0 0.34 0 0 Z " fill="#000000" transform="translate(634,228)"/>
<path d="M0 0 C1.65 0 3.3 0 5 0 C5 0.33 5 0.66 5 1 C3.35 1 1.7 1 0 1 C0 0.67 0 0.34 0 0 Z " fill="#000000" transform="translate(326,228)"/>
<path d="M0 0 C1.65 0 3.3 0 5 0 C5 0.33 5 0.66 5 1 C3.35 1 1.7 1 0 1 C0 0.67 0 0.34 0 0 Z " fill="#000000" transform="translate(242,228)"/>
<path d="M0 0 C1.65 0 3.3 0 5 0 C5 0.33 5 0.66 5 1 C3.35 1 1.7 1 0 1 C0 0.67 0 0.34 0 0 Z " fill="#000000" transform="translate(160,227)"/>
<path d="M0 0 C1.65 0 3.3 0 5 0 C5 0.33 5 0.66 5 1 C3.35 1 1.7 1 0 1 C0 0.67 0 0.34 0 0 Z " fill="#000000" transform="translate(719,223)"/>
<path d="M0 0 C0.66 0.33 1.32 0.66 2 1 C1.01 1.66 0.02 2.32 -1 3 C-0.67 2.01 -0.34 1.02 0 0 Z " fill="#000000" transform="translate(543,223)"/>
<path d="M0 0 C1.65 0 3.3 0 5 0 C5 0.33 5 0.66 5 1 C3.35 1 1.7 1 0 1 C0 0.67 0 0.34 0 0 Z " fill="#000000" transform="translate(714,222)"/>
<path d="M0 0 C1.65 0 3.3 0 5 0 C5 0.33 5 0.66 5 1 C3.35 1 1.7 1 0 1 C0 0.67 0 0.34 0 0 Z " fill="#000000" transform="translate(708,221)"/>
<path d="M0 0 C0.99 0.33 1.98 0.66 3 1 C2.67 1.66 2.34 2.32 2 3 C1.34 2.01 0.68 1.02 0 0 Z " fill="#000000" transform="translate(384,221)"/>
<path d="M0 0 C1.65 0 3.3 0 5 0 C5 0.33 5 0.66 5 1 C3.35 1 1.7 1 0 1 C0 0.67 0 0.34 0 0 Z " fill="#000000" transform="translate(631,220)"/>
<path d="M0 0 C1.65 0 3.3 0 5 0 C5 0.33 5 0.66 5 1 C3.35 1 1.7 1 0 1 C0 0.67 0 0.34 0 0 Z " fill="#000000" transform="translate(234,219)"/>
<path d="M0 0 C1.65 0 3.3 0 5 0 C5 0.33 5 0.66 5 1 C3.35 1 1.7 1 0 1 C0 0.67 0 0.34 0 0 Z " fill="#000000" transform="translate(328,218)"/>
<path d="M0 0 C1.65 0 3.3 0 5 0 C5 0.33 5 0.66 5 1 C3.35 1 1.7 1 0 1 C0 0.67 0 0.34 0 0 Z " fill="#000000" transform="translate(465,217)"/>
<path d="M0 0 C4 1 4 1 4 1 Z " fill="#000000" transform="translate(481,260)"/>
<path d="M0 0 C4 1 4 1 4 1 Z " fill="#000000" transform="translate(504,259)"/>
<path d="M0 0 C4 1 4 1 4 1 Z " fill="#000000" transform="translate(362,259)"/>
<path d="M0 0 C4 1 4 1 4 1 Z " fill="#000000" transform="translate(607,258)"/>
<path d="M0 0 C4 1 4 1 4 1 Z " fill="#000000" transform="translate(358,258)"/>
<path d="M0 0 C4 1 4 1 4 1 Z " fill="#000000" transform="translate(611,257)"/>
<path d="M0 0 C4 1 4 1 4 1 Z " fill="#000000" transform="translate(354,257)"/>
<path d="M0 0 C4 1 4 1 4 1 Z " fill="#000000" transform="translate(618,255)"/>
<path d="M0 0 C4 1 4 1 4 1 Z " fill="#000000" transform="translate(468,255)"/>
<path d="M0 0 C4 1 4 1 4 1 Z " fill="#000000" transform="translate(763,253)"/>
<path d="M0 0 C4 1 4 1 4 1 Z " fill="#000000" transform="translate(743,253)"/>
<path d="M0 0 C4 1 4 1 4 1 Z " fill="#000000" transform="translate(210,253)"/>
<path d="M0 0 C4 1 4 1 4 1 Z " fill="#000000" transform="translate(739,252)"/>
<path d="M0 0 C4 1 4 1 4 1 Z " fill="#000000" transform="translate(214,252)"/>
<path d="M0 0 C4 1 4 1 4 1 Z " fill="#000000" transform="translate(588,251)"/>
<path d="M0 0 C4 1 4 1 4 1 Z " fill="#000000" transform="translate(592,250)"/>
<path d="M0 0 C1 4 1 4 1 4 Z " fill="#000000" transform="translate(253,249)"/>
<path d="M0 0 C4 1 4 1 4 1 Z " fill="#000000" transform="translate(655,249)"/>
<path d="M0 0 C4 1 4 1 4 1 Z " fill="#000000" transform="translate(596,249)"/>
<path d="M0 0 C4 1 4 1 4 1 Z " fill="#000000" transform="translate(365,249)"/>
<path d="M0 0 C4 1 4 1 4 1 Z " fill="#000000" transform="translate(300,249)"/>
<path d="M0 0 C4 1 4 1 4 1 Z " fill="#000000" transform="translate(600,248)"/>
<path d="M0 0 C1 4 1 4 1 4 Z " fill="#000000" transform="translate(275,247)"/>
<path d="M0 0 C0.66 0.33 1.32 0.66 2 1 C1.01 1 0.02 1 -1 1 C-0.67 0.67 -0.34 0.34 0 0 Z " fill="#000000" transform="translate(423,247)"/>
<path d="M0 0 C1 4 1 4 1 4 Z " fill="#000000" transform="translate(686,245)"/>
<path d="M0 0 C4 1 4 1 4 1 Z " fill="#000000" transform="translate(571,246)"/>
<path d="M0 0 C4 1 4 1 4 1 Z " fill="#000000" transform="translate(560,246)"/>
<path d="M0 0 C4 1 4 1 4 1 Z " fill="#000000" transform="translate(752,244)"/>
<path d="M0 0 C4 1 4 1 4 1 Z " fill="#000000" transform="translate(649,244)"/>
<path d="M0 0 C4 1 4 1 4 1 Z " fill="#000000" transform="translate(314,244)"/>
<path d="M0 0 C4 1 4 1 4 1 Z " fill="#000000" transform="translate(310,243)"/>
<path d="M0 0 C4 1 4 1 4 1 Z " fill="#000000" transform="translate(753,241)"/>
<path d="M0 0 C4 1 4 1 4 1 Z " fill="#000000" transform="translate(710,240)"/>
<path d="M0 0 C4 1 4 1 4 1 Z " fill="#000000" transform="translate(201,240)"/>
<path d="M0 0 C4 1 4 1 4 1 Z " fill="#000000" transform="translate(205,239)"/>
<path d="M0 0 C0.33 0.99 0.66 1.98 1 3 C0.34 2.67 -0.32 2.34 -1 2 C-0.67 1.34 -0.34 0.68 0 0 Z " fill="#000000" transform="translate(538,234)"/>
<path d="M0 0 C1 4 1 4 1 4 Z " fill="#000000" transform="translate(380,232)"/>
<path d="M0 0 C4 1 4 1 4 1 Z " fill="#000000" transform="translate(152,233)"/>
<path d="M0 0 C4 1 4 1 4 1 Z " fill="#000000" transform="translate(725,232)"/>
<path d="M0 0 C4 1 4 1 4 1 Z " fill="#000000" transform="translate(226,232)"/>
<path d="M0 0 C4 1 4 1 4 1 Z " fill="#000000" transform="translate(804,231)"/>
<path d="M0 0 C0.66 0.33 1.32 0.66 2 1 C1.01 1 0.02 1 -1 1 C-0.67 0.67 -0.34 0.34 0 0 Z " fill="#000000" transform="translate(790,231)"/>
<path d="M0 0 C4 1 4 1 4 1 Z " fill="#000000" transform="translate(721,231)"/>
<path d="M0 0 C1 4 1 4 1 4 Z " fill="#000000" transform="translate(539,230)"/>
<path d="M0 0 C1 4 1 4 1 4 Z " fill="#000000" transform="translate(421,230)"/>
<path d="M0 0 C4 1 4 1 4 1 Z " fill="#000000" transform="translate(280,231)"/>
<path d="M0 0 C4 1 4 1 4 1 Z " fill="#000000" transform="translate(238,231)"/>
<path d="M0 0 C4 1 4 1 4 1 Z " fill="#000000" transform="translate(717,230)"/>
<path d="M0 0 C4 1 4 1 4 1 Z " fill="#000000" transform="translate(233,230)"/>
<path d="M0 0 C4 1 4 1 4 1 Z " fill="#000000" transform="translate(630,229)"/>
<path d="M0 0 C4 1 4 1 4 1 Z " fill="#000000" transform="translate(331,229)"/>
<path d="M0 0 C4 1 4 1 4 1 Z " fill="#000000" transform="translate(795,228)"/>
<path d="M0 0 C4 1 4 1 4 1 Z " fill="#000000" transform="translate(739,228)"/>
<path d="M0 0 C4 1 4 1 4 1 Z " fill="#000000" transform="translate(732,226)"/>
<path d="M0 0 C4 1 4 1 4 1 Z " fill="#000000" transform="translate(728,225)"/>
<path d="M0 0 C4 1 4 1 4 1 Z " fill="#000000" transform="translate(768,224)"/>
<path d="M0 0 C4 1 4 1 4 1 Z " fill="#000000" transform="translate(724,224)"/>
<path d="M0 0 C4 1 4 1 4 1 Z " fill="#000000" transform="translate(479,223)"/>
<path d="M0 0 C4 1 4 1 4 1 Z " fill="#000000" transform="translate(623,222)"/>
<path d="M0 0 C4 1 4 1 4 1 Z " fill="#000000" transform="translate(627,221)"/>
<path d="M0 0 C4 1 4 1 4 1 Z " fill="#000000" transform="translate(193,221)"/>
<path d="M0 0 C4 1 4 1 4 1 Z " fill="#000000" transform="translate(230,220)"/>
<path d="M0 0 C4 1 4 1 4 1 Z " fill="#000000" transform="translate(333,219)"/>
<path d="M0 0 C4 1 4 1 4 1 Z " fill="#000000" transform="translate(506,218)"/>
<path d="M0 0 C4 1 4 1 4 1 Z " fill="#000000" transform="translate(405,218)"/>
<path d="M0 0 C4 1 4 1 4 1 Z " fill="#000000" transform="translate(454,217)"/>
<path d="M0 0 C3 1 3 1 3 1 Z " fill="#000000" transform="translate(565,261)"/>
<path d="M0 0 C3 1 3 1 3 1 Z " fill="#000000" transform="translate(444,260)"/>
<path d="M0 0 C3 1 3 1 3 1 Z " fill="#000000" transform="translate(398,260)"/>
<path d="M0 0 C3 1 3 1 3 1 Z " fill="#000000" transform="translate(559,259)"/>
<path d="M0 0 C3 1 3 1 3 1 Z " fill="#000000" transform="translate(519,259)"/>
<path d="M0 0 C3 1 3 1 3 1 Z " fill="#000000" transform="translate(478,259)"/>
<path d="M0 0 C3 1 3 1 3 1 Z " fill="#000000" transform="translate(665,258)"/>
<path d="M0 0 C3 1 3 1 3 1 Z " fill="#000000" transform="translate(556,258)"/>
<path d="M0 0 C3 1 3 1 3 1 Z " fill="#000000" transform="translate(501,258)"/>
<path d="M0 0 C3 1 3 1 3 1 Z " fill="#000000" transform="translate(461,258)"/>
<path d="M0 0 C3 1 3 1 3 1 Z " fill="#000000" transform="translate(404,258)"/>
<path d="M0 0 C3 1 3 1 3 1 Z " fill="#000000" transform="translate(615,256)"/>
<path d="M0 0 C3 1 3 1 3 1 Z " fill="#000000" transform="translate(490,256)"/>
<path d="M0 0 C3 1 3 1 3 1 Z " fill="#000000" transform="translate(351,256)"/>
<path d="M0 0 C3 1 3 1 3 1 Z " fill="#000000" transform="translate(493,255)"/>
<path d="M0 0 C3 1 3 1 3 1 Z " fill="#000000" transform="translate(348,255)"/>
<path d="M0 0 C3 1 3 1 3 1 Z " fill="#000000" transform="translate(622,254)"/>
<path d="M0 0 C3 1 3 1 3 1 Z " fill="#000000" transform="translate(344,254)"/>
<path d="M0 0 C3 1 3 1 3 1 Z " fill="#000000" transform="translate(625,253)"/>
<path d="M0 0 C3 1 3 1 3 1 Z " fill="#000000" transform="translate(341,253)"/>
<path d="M0 0 C3 1 3 1 3 1 Z " fill="#000000" transform="translate(767,252)"/>
<path d="M0 0 C3 1 3 1 3 1 Z " fill="#000000" transform="translate(338,252)"/>
<path d="M0 0 C3 1 3 1 3 1 Z " fill="#000000" transform="translate(160,252)"/>
<path d="M0 0 C3 1 3 1 3 1 Z " fill="#000000" transform="translate(736,251)"/>
<path d="M0 0 C3 1 3 1 3 1 Z " fill="#000000" transform="translate(630,251)"/>
<path d="M0 0 C3 1 3 1 3 1 Z " fill="#000000" transform="translate(335,251)"/>
<path d="M0 0 C3 1 3 1 3 1 Z " fill="#000000" transform="translate(218,251)"/>
<path d="M0 0 C3 1 3 1 3 1 Z " fill="#000000" transform="translate(733,250)"/>
<path d="" fill="#000000" transform="translate(0,0)"/>
<path d="" fill="#000000" transform="translate(0,0)"/>
<path d="M0 0 C3 1 3 1 3 1 Z " fill="#000000" transform="translate(633,250)"/>
<path d="M0 0 C3 1 3 1 3 1 Z " fill="#000000" transform="translate(369,250)"/>
<path d="M0 0 C3 1 3 1 3 1 Z " fill="#000000" transform="translate(332,250)"/>
<path d="M0 0 C3 1 3 1 3 1 Z " fill="#000000" transform="translate(221,250)"/>
<path d="M0 0 C3 1 3 1 3 1 Z " fill="#000000" transform="translate(638,248)"/>
<path d="M0 0 C3 1 3 1 3 1 Z " fill="#000000" transform="translate(362,248)"/>
<path d="M0 0 C3 1 3 1 3 1 Z " fill="#000000" transform="translate(327,248)"/>
<path d="M0 0 C3 1 3 1 3 1 Z " fill="#000000" transform="translate(226,248)"/>
<path d="M0 0 C3 1 3 1 3 1 Z " fill="#000000" transform="translate(641,247)"/>
<path d="M0 0 C3 1 3 1 3 1 Z " fill="#000000" transform="translate(359,247)"/>
<path d="M0 0 C3 1 3 1 3 1 Z " fill="#000000" transform="translate(324,247)"/>
<path d="M0 0 C3 1 3 1 3 1 Z " fill="#000000" transform="translate(356,246)"/>
<path d="M0 0 C3 1 3 1 3 1 Z " fill="#000000" transform="translate(321,246)"/>
<path d="" fill="#000000" transform="translate(0,0)"/>
<path d="M0 0 C3 1 3 1 3 1 Z " fill="#000000" transform="translate(575,245)"/>
<path d="M0 0 C3 1 3 1 3 1 Z " fill="#000000" transform="translate(557,245)"/>
<path d="M0 0 C3 1 3 1 3 1 Z " fill="#000000" transform="translate(318,245)"/>
<path d="" fill="#000000" transform="translate(0,0)"/>
<path d="M0 0 C3 1 3 1 3 1 Z " fill="#000000" transform="translate(233,245)"/>
<path d="M0 0 C3 1 3 1 3 1 Z " fill="#000000" transform="translate(400,244)"/>
<path d="M0 0 C3 1 3 1 3 1 Z " fill="#000000" transform="translate(385,244)"/>
<path d="M0 0 C3 1 3 1 3 1 Z " fill="#000000" transform="translate(351,244)"/>
<path d="" fill="#000000" transform="translate(0,0)"/>
<path d="M0 0 C3 1 3 1 3 1 Z " fill="#000000" transform="translate(0,244)"/>
<path d="M0 0 C3 1 3 1 3 1 Z " fill="#000000" transform="translate(749,243)"/>
<path d="M0 0 C3 1 3 1 3 1 Z " fill="#000000" transform="translate(382,243)"/>
<path d="M0 0 C3 1 3 1 3 1 Z " fill="#000000" transform="translate(302,243)"/>
<path d="M0 0 C3 1 3 1 3 1 Z " fill="#000000" transform="translate(746,242)"/>
<path d="M0 0 C3 1 3 1 3 1 Z " fill="#000000" transform="translate(346,242)"/>
<path d="M0 0 C3 1 3 1 3 1 Z " fill="#000000" transform="translate(209,242)"/>
<path d="M0 0 C3 1 3 1 3 1 Z " fill="#000000" transform="translate(743,241)"/>
<path d="M0 0 C3 1 3 1 3 1 Z " fill="#000000" transform="translate(618,241)"/>
<path d="M0 0 C3 1 3 1 3 1 Z " fill="#000000" transform="translate(212,241)"/>
<path d="M0 0 C3 1 3 1 3 1 Z " fill="#000000" transform="translate(750,240)"/>
<path d="M0 0 C3 1 3 1 3 1 Z " fill="#000000" transform="translate(740,240)"/>
<path d="M0 0 C3 1 3 1 3 1 Z " fill="#000000" transform="translate(245,240)"/>
<path d="M0 0 C3 1 3 1 3 1 Z " fill="#000000" transform="translate(747,239)"/>
<path d="M0 0 C3 1 3 1 3 1 Z " fill="#000000" transform="translate(217,239)"/>
<path d="M0 0 C3 1 3 1 3 1 Z " fill="#000000" transform="translate(744,238)"/>
<path d="M0 0 C3 1 3 1 3 1 Z " fill="#000000" transform="translate(735,238)"/>
<path d="M0 0 C3 1 3 1 3 1 Z " fill="#000000" transform="translate(383,238)"/>
<path d="M0 0 C3 1 3 1 3 1 Z " fill="#000000" transform="translate(741,237)"/>
<path d="M0 0 C3 1 3 1 3 1 Z " fill="#000000" transform="translate(627,237)"/>
<path d="M0 0 C3 1 3 1 3 1 Z " fill="#000000" transform="translate(211,237)"/>
<path d="M0 0 C3 1 3 1 3 1 Z " fill="#000000" transform="translate(214,236)"/>
<path d="M0 0 C3 1 3 1 3 1 Z " fill="#000000" transform="translate(736,235)"/>
<path d="M0 0 C3 1 3 1 3 1 Z " fill="#000000" transform="translate(727,235)"/>
<path d="M0 0 C3 1 3 1 3 1 Z " fill="#000000" transform="translate(662,235)"/>
<path d="M0 0 C3 1 3 1 3 1 Z " fill="#000000" transform="translate(614,235)"/>
<path d="M0 0 C3 1 3 1 3 1 Z " fill="#000000" transform="translate(348,235)"/>
<path d="M0 0 C3 1 3 1 3 1 Z " fill="#000000" transform="translate(226,235)"/>
<path d="M0 0 C3 1 3 1 3 1 Z " fill="#000000" transform="translate(217,235)"/>
<path d="M0 0 C3 1 3 1 3 1 Z " fill="#000000" transform="translate(785,234)"/>
<path d="M0 0 C3 1 3 1 3 1 Z " fill="#000000" transform="translate(732,234)"/>
<path d="M0 0 C3 1 3 1 3 1 Z " fill="#000000" transform="translate(724,234)"/>
<path d="M0 0 C0.66 0 1.32 0 2 0 C1.67 0.66 1.34 1.32 1 2 C0.67 1.34 0.34 0.68 0 0 Z " fill="#000000" transform="translate(693,234)"/>
<path d="M0 0 C3 1 3 1 3 1 Z " fill="#000000" transform="translate(229,234)"/>
<path d="M0 0 C3 1 3 1 3 1 Z " fill="#000000" transform="translate(220,234)"/>
<path d="M0 0 C3 1 3 1 3 1 Z " fill="#000000" transform="translate(176,234)"/>
<path d="M0 0 C3 1 3 1 3 1 Z " fill="#000000" transform="translate(729,233)"/>
<path d="M0 0 C3 1 3 1 3 1 Z " fill="#000000" transform="translate(721,233)"/>
<path d="M0 0 C3 1 3 1 3 1 Z " fill="#000000" transform="translate(232,233)"/>
<path d="M0 0 C3 1 3 1 3 1 Z " fill="#000000" transform="translate(223,233)"/>
<path d="M0 0 C3 1 3 1 3 1 Z " fill="#000000" transform="translate(173,233)"/>
<path d="M0 0 C3 1 3 1 3 1 Z " fill="#000000" transform="translate(341,232)"/>
<path d="M0 0 C3 1 3 1 3 1 Z " fill="#000000" transform="translate(324,232)"/>
<path d="M0 0 C3 1 3 1 3 1 Z " fill="#000000" transform="translate(296,232)"/>
<path d="M0 0 C3 1 3 1 3 1 Z " fill="#000000" transform="translate(277,232)"/>
<path d="M0 0 C3 1 3 1 3 1 Z " fill="#000000" transform="translate(235,232)"/>
<path d="M0 0 C3 1 3 1 3 1 Z " fill="#000000" transform="translate(170,232)"/>
<path d="M0 0 C3 1 3 1 3 1 Z " fill="#000000" transform="translate(624,231)"/>
<path d="" fill="#000000" transform="translate(0,0)"/>
<path d="M0 0 C3 1 3 1 3 1 Z " fill="#000000" transform="translate(338,231)"/>
<path d="M0 0 C3 1 3 1 3 1 Z " fill="#000000" transform="translate(230,231)"/>
<path d="M0 0 C3 1 3 1 3 1 Z " fill="#000000" transform="translate(801,230)"/>
<path d="M0 0 C3 1 3 1 3 1 Z " fill="#000000" transform="translate(746,230)"/>
<path d="M0 0 C3 1 3 1 3 1 Z " fill="#000000" transform="translate(685,230)"/>
<path d="M0 0 C3 1 3 1 3 1 Z " fill="#000000" transform="translate(669,230)"/>
<path d="M0 0 C3 1 3 1 3 1 Z " fill="#000000" transform="translate(627,230)"/>
<path d="" fill="#000000" transform="translate(0,0)"/>
<path d="M0 0 C3 1 3 1 3 1 Z " fill="#000000" transform="translate(358,230)"/>
<path d="M0 0 C3 1 3 1 3 1 Z " fill="#000000" transform="translate(335,230)"/>
<path d="M0 0 C3 1 3 1 3 1 Z " fill="#000000" transform="translate(743,229)"/>
<path d="M0 0 C3 1 3 1 3 1 Z " fill="#000000" transform="translate(645,229)"/>
<path d="M0 0 C3 1 3 1 3 1 Z " fill="#000000" transform="translate(584,228)"/>
<path d="M0 0 C3 1 3 1 3 1 Z " fill="#000000" transform="translate(468,228)"/>
<path d="M0 0 C3 1 3 1 3 1 Z " fill="#000000" transform="translate(450,228)"/>
<path d="" fill="#000000" transform="translate(0,0)"/>
<path d="M0 0 C3 1 3 1 3 1 Z " fill="#000000" transform="translate(208,228)"/>
<path d="M0 0 C3 1 3 1 3 1 Z " fill="#000000" transform="translate(736,227)"/>
<path d="M0 0 C3 1 3 1 3 1 Z " fill="#000000" transform="translate(505,227)"/>
<path d="" fill="#000000" transform="translate(0,0)"/>
<path d="M0 0 C3 1 3 1 3 1 Z " fill="#000000" transform="translate(459,226)"/>
<path d="M0 0 C3 1 3 1 3 1 Z " fill="#000000" transform="translate(213,226)"/>
<path d="M0 0 C3 1 3 1 3 1 Z " fill="#000000" transform="translate(757,224)"/>
<path d="M0 0 C3 1 3 1 3 1 Z " fill="#000000" transform="translate(617,224)"/>
<path d="M0 0 C3 1 3 1 3 1 Z " fill="#000000" transform="translate(218,224)"/>
<path d="M0 0 C3 1 3 1 3 1 Z " fill="#000000" transform="translate(620,223)"/>
<path d="M0 0 C3 1 3 1 3 1 Z " fill="#000000" transform="translate(221,223)"/>
<path d="M0 0 C3 1 3 1 3 1 Z " fill="#000000" transform="translate(224,222)"/>
<path d="M0 0 C3 1 3 1 3 1 Z " fill="#000000" transform="translate(340,221)"/>
<path d="M0 0 C3 1 3 1 3 1 Z " fill="#000000" transform="translate(227,221)"/>
<path d="M0 0 C3 1 3 1 3 1 Z " fill="#000000" transform="translate(337,220)"/>
<path d="M0 0 C3 1 3 1 3 1 Z " fill="#000000" transform="translate(555,219)"/>
<path d="M0 0 C3 1 3 1 3 1 Z " fill="#000000" transform="translate(549,219)"/>
<path d="M0 0 C3 1 3 1 3 1 Z " fill="#000000" transform="translate(409,219)"/>
<path d="M0 0 C3 1 3 1 3 1 Z " fill="#000000" transform="translate(402,219)"/>
<path d="M0 0 C3 1 3 1 3 1 Z " fill="#000000" transform="translate(552,218)"/>
<path d="M0 0 C3 1 3 1 3 1 Z " fill="#000000" transform="translate(451,218)"/>
<path d="M0 0 C2 1 2 1 2 1 Z " fill="#000000" transform="translate(562,260)"/>
<path d="M0 0 C2 1 2 1 2 1 Z " fill="#000000" transform="translate(485,259)"/>
<path d="M0 0 C2 1 2 1 2 1 Z " fill="#000000" transform="translate(459,259)"/>
<path d="M0 0 C2 1 2 1 2 1 Z " fill="#000000" transform="translate(442,259)"/>
<path d="M0 0 C2 1 2 1 2 1 Z " fill="#000000" transform="translate(402,259)"/>
<path d="M0 0 C2 1 2 1 2 1 Z " fill="#000000" transform="translate(304,259)"/>
<path d="M0 0 C2 1 2 1 2 1 Z " fill="#000000" transform="translate(267,259)"/>
<path d="M0 0 C2 1 2 1 2 1 Z " fill="#000000" transform="translate(700,258)"/>
<path d="M0 0 C2 1 2 1 2 1 Z " fill="#000000" transform="translate(693,258)"/>
<path d="M0 0 C2 1 2 1 2 1 Z " fill="#000000" transform="translate(654,258)"/>
<path d="M0 0 C2 1 2 1 2 1 Z " fill="#000000" transform="translate(487,258)"/>
<path d="M0 0 C2 1 2 1 2 1 Z " fill="#000000" transform="translate(476,258)"/>
<path d="M0 0 C2 1 2 1 2 1 Z " fill="#000000" transform="translate(440,258)"/>
<path d="M0 0 C2 1 2 1 2 1 Z " fill="#000000" transform="translate(292,258)"/>
<path d="M0 0 C2 1 2 1 2 1 Z " fill="#000000" transform="translate(702,257)"/>
<path d="M0 0 C2 1 2 1 2 1 Z " fill="#000000" transform="translate(554,257)"/>
<path d="M0 0 C2 1 2 1 2 1 Z " fill="#000000" transform="translate(523,257)"/>
<path d="M0 0 C2 1 2 1 2 1 Z " fill="#000000" transform="translate(499,257)"/>
<path d="M0 0 C2 1 2 1 2 1 Z " fill="#000000" transform="translate(474,257)"/>
<path d="M0 0 C2 1 2 1 2 1 Z " fill="#000000" transform="translate(464,257)"/>
<path d="M0 0 C2 1 2 1 2 1 Z " fill="#000000" transform="translate(407,257)"/>
<path d="" fill="#000000" transform="translate(0,0)"/>
<path d="M0 0 C2 1 2 1 2 1 Z " fill="#000000" transform="translate(552,256)"/>
<path d="M0 0 C2 1 2 1 2 1 Z " fill="#000000" transform="translate(496,256)"/>
<path d="M0 0 C2 1 2 1 2 1 Z " fill="#000000" transform="translate(472,256)"/>
<path d="M0 0 C2 1 2 1 2 1 Z " fill="#000000" transform="translate(466,256)"/>
<path d="M0 0 C2 1 2 1 2 1 Z " fill="#000000" transform="translate(409,256)"/>
<path d="M0 0 C2 1 2 1 2 1 Z " fill="#000000" transform="translate(550,255)"/>
<path d="M0 0 C2 1 2 1 2 1 Z " fill="#000000" transform="translate(411,255)"/>
<path d="" fill="#000000" transform="translate(0,0)"/>
<path d="M0 0 C2 1 2 1 2 1 Z " fill="#000000" transform="translate(548,254)"/>
<path d="" fill="#000000" transform="translate(0,0)"/>
<path d="M0 0 C2 1 2 1 2 1 Z " fill="#000000" transform="translate(546,253)"/>
<path d="" fill="#000000" transform="translate(0,0)"/>
<path d="M0 0 C2 1 2 1 2 1 Z " fill="#000000" transform="translate(189,253)"/>
<path d="M0 0 C2 1 2 1 2 1 Z " fill="#000000" transform="translate(628,252)"/>
<path d="M0 0 C2 1 2 1 2 1 Z " fill="#000000" transform="translate(416,252)"/>
<path d="" fill="#000000" transform="translate(0,0)"/>
<path d="M0 0 C2 1 2 1 2 1 Z " fill="#000000" transform="translate(770,251)"/>
<path d="" fill="#000000" transform="translate(0,0)"/>
<path d="M0 0 C2 1 2 1 2 1 Z " fill="#000000" transform="translate(543,251)"/>
<path d="" fill="#000000" transform="translate(0,0)"/>
<path d="M0 0 C2 1 2 1 2 1 Z " fill="#000000" transform="translate(186,251)"/>
<path d="M0 0 C2 1 2 1 2 1 Z " fill="#000000" transform="translate(585,250)"/>
<path d="" fill="#000000" transform="translate(0,0)"/>
<path d="M0 0 C2 1 2 1 2 1 Z " fill="#000000" transform="translate(419,250)"/>
<path d="M0 0 C2 1 2 1 2 1 Z " fill="#000000" transform="translate(377,250)"/>
<path d="M0 0 C2 1 2 1 2 1 Z " fill="#000000" transform="translate(164,250)"/>
<path d="M0 0 C2 1 2 1 2 1 Z " fill="#000000" transform="translate(792,249)"/>
<path d="M0 0 C2 1 2 1 2 1 Z " fill="#000000" transform="translate(773,249)"/>
<path d="M0 0 C2 1 2 1 2 1 Z " fill="#000000" transform="translate(731,249)"/>
<path d="M0 0 C2 1 2 1 2 1 Z " fill="#000000" transform="translate(636,249)"/>
<path d="M0 0 C2 1 2 1 2 1 Z " fill="#000000" transform="translate(587,249)"/>
<path d="M0 0 C2 1 2 1 2 1 Z " fill="#000000" transform="translate(375,249)"/>
<path d="M0 0 C2 1 2 1 2 1 Z " fill="#000000" transform="translate(330,249)"/>
<path d="M0 0 C2 1 2 1 2 1 Z " fill="#000000" transform="translate(224,249)"/>
<path d="M0 0 C2 1 2 1 2 1 Z " fill="#000000" transform="translate(801,248)"/>
<path d="M0 0 C2 1 2 1 2 1 Z " fill="#000000" transform="translate(790,248)"/>
<path d="M0 0 C2 1 2 1 2 1 Z " fill="#000000" transform="translate(729,248)"/>
<path d="" fill="#000000" transform="translate(0,0)"/>
<path d="M0 0 C2 1 2 1 2 1 Z " fill="#000000" transform="translate(589,248)"/>
<path d="M0 0 C2 1 2 1 2 1 Z " fill="#000000" transform="translate(373,248)"/>
<path d="" fill="#000000" transform="translate(0,0)"/>
<path d="M0 0 C2 1 2 1 2 1 Z " fill="#000000" transform="translate(727,247)"/>
<path d="M0 0 C2 1 2 1 2 1 Z " fill="#000000" transform="translate(604,247)"/>
<path d="M0 0 C2 1 2 1 2 1 Z " fill="#000000" transform="translate(591,247)"/>
<path d="M0 0 C2 1 2 1 2 1 Z " fill="#000000" transform="translate(371,247)"/>
<path d="M0 0 C2 1 2 1 2 1 Z " fill="#000000" transform="translate(229,247)"/>
<path d="M0 0 C2 1 2 1 2 1 Z " fill="#000000" transform="translate(168,247)"/>
<path d="M0 0 C2 1 2 1 2 1 Z " fill="#000000" transform="translate(804,246)"/>
<path d="M0 0 C2 1 2 1 2 1 Z " fill="#000000" transform="translate(787,246)"/>
<path d="M0 0 C2 1 2 1 2 1 Z " fill="#000000" transform="translate(725,246)"/>
<path d="M0 0 C2 1 2 1 2 1 Z " fill="#000000" transform="translate(644,246)"/>
<path d="M0 0 C2 1 2 1 2 1 Z " fill="#000000" transform="translate(607,246)"/>
<path d="M0 0 C2 1 2 1 2 1 Z " fill="#000000" transform="translate(536,246)"/>
<path d="M0 0 C2 1 2 1 2 1 Z " fill="#000000" transform="translate(231,246)"/>
<path d="M0 0 C2 1 2 1 2 1 Z " fill="#000000" transform="translate(170,246)"/>
<path d="M0 0 C2 1 2 1 2 1 Z " fill="#000000" transform="translate(806,245)"/>
<path d="M0 0 C2 1 2 1 2 1 Z " fill="#000000" transform="translate(723,245)"/>
<path d="M0 0 C2 1 2 1 2 1 Z " fill="#000000" transform="translate(647,245)"/>
<path d="M0 0 C2 1 2 1 2 1 Z " fill="#000000" transform="translate(609,245)"/>
<path d="M0 0 C2 1 2 1 2 1 Z " fill="#000000" transform="translate(594,245)"/>
<path d="M0 0 C2 1 2 1 2 1 Z " fill="#000000" transform="translate(509,245)"/>
<path d="M0 0 C2 1 2 1 2 1 Z " fill="#000000" transform="translate(368,245)"/>
<path d="M0 0 C2 1 2 1 2 1 Z " fill="#000000" transform="translate(354,245)"/>
<path d="M0 0 C2 1 2 1 2 1 Z " fill="#000000" transform="translate(172,245)"/>
<path d="M0 0 C2 1 2 1 2 1 Z " fill="#000000" transform="translate(721,244)"/>
<path d="" fill="#000000" transform="translate(0,0)"/>
<path d="M0 0 C2 1 2 1 2 1 Z " fill="#000000" transform="translate(611,244)"/>
<path d="M0 0 C2 1 2 1 2 1 Z " fill="#000000" transform="translate(596,244)"/>
<path d="M0 0 C2 1 2 1 2 1 Z " fill="#000000" transform="translate(578,244)"/>
<path d="M0 0 C2 1 2 1 2 1 Z " fill="#000000" transform="translate(427,244)"/>
<path d="M0 0 C2 1 2 1 2 1 Z " fill="#000000" transform="translate(366,244)"/>
<path d="M0 0 C2 1 2 1 2 1 Z " fill="#000000" transform="translate(236,244)"/>
<path d="M0 0 C2 1 2 1 2 1 Z " fill="#000000" transform="translate(719,243)"/>
<path d="M0 0 C2 1 2 1 2 1 Z " fill="#000000" transform="translate(614,243)"/>
<path d="M0 0 C2 1 2 1 2 1 Z " fill="#000000" transform="translate(598,243)"/>
<path d="M0 0 C2 1 2 1 2 1 Z " fill="#000000" transform="translate(580,243)"/>
<path d="" fill="#000000" transform="translate(0,0)"/>
<path d="M0 0 C2 1 2 1 2 1 Z " fill="#000000" transform="translate(364,243)"/>
<path d="M0 0 C2 1 2 1 2 1 Z " fill="#000000" transform="translate(349,243)"/>
<path d="M0 0 C2 1 2 1 2 1 Z " fill="#000000" transform="translate(238,243)"/>
<path d="M0 0 C2 1 2 1 2 1 Z " fill="#000000" transform="translate(717,242)"/>
<path d="M0 0 C2 1 2 1 2 1 Z " fill="#000000" transform="translate(616,242)"/>
<path d="M0 0 C2 1 2 1 2 1 Z " fill="#000000" transform="translate(600,242)"/>
<path d="M0 0 C2 1 2 1 2 1 Z " fill="#000000" transform="translate(380,242)"/>
<path d="M0 0 C2 1 2 1 2 1 Z " fill="#000000" transform="translate(362,242)"/>
<path d="M0 0 C2 1 2 1 2 1 Z " fill="#000000" transform="translate(240,242)"/>
<path d="M0 0 C2 1 2 1 2 1 Z " fill="#000000" transform="translate(714,241)"/>
<path d="M0 0 C2 1 2 1 2 1 Z " fill="#000000" transform="translate(602,241)"/>
<path d="M0 0 C2 1 2 1 2 1 Z " fill="#000000" transform="translate(583,241)"/>
<path d="" fill="#000000" transform="translate(0,0)"/>
<path d="M0 0 C2 1 2 1 2 1 Z " fill="#000000" transform="translate(378,241)"/>
<path d="M0 0 C2 1 2 1 2 1 Z " fill="#000000" transform="translate(360,241)"/>
<path d="M0 0 C2 1 2 1 2 1 Z " fill="#000000" transform="translate(344,241)"/>
<path d="M0 0 C2 1 2 1 2 1 Z " fill="#000000" transform="translate(242,241)"/>
<path d="M0 0 C2 1 2 1 2 1 Z " fill="#000000" transform="translate(621,240)"/>
<path d="M0 0 C2 1 2 1 2 1 Z " fill="#000000" transform="translate(604,240)"/>
<path d="M0 0 C2 1 2 1 2 1 Z " fill="#000000" transform="translate(376,240)"/>
<path d="M0 0 C2 1 2 1 2 1 Z " fill="#000000" transform="translate(358,240)"/>
<path d="M0 0 C2 1 2 1 2 1 Z " fill="#000000" transform="translate(342,240)"/>
<path d="M0 0 C2 1 2 1 2 1 Z " fill="#000000" transform="translate(215,240)"/>
<path d="M0 0 C2 1 2 1 2 1 Z " fill="#000000" transform="translate(738,239)"/>
<path d="M0 0 C2 1 2 1 2 1 Z " fill="#000000" transform="translate(623,239)"/>
<path d="M0 0 C2 1 2 1 2 1 Z " fill="#000000" transform="translate(606,239)"/>
<path d="M0 0 C2 1 2 1 2 1 Z " fill="#000000" transform="translate(399,239)"/>
<path d="M0 0 C2 1 2 1 2 1 Z " fill="#000000" transform="translate(340,239)"/>
<path d="M0 0 C2 1 2 1 2 1 Z " fill="#000000" transform="translate(625,238)"/>
<path d="M0 0 C2 1 2 1 2 1 Z " fill="#000000" transform="translate(608,238)"/>
<path d="M0 0 C2 1 2 1 2 1 Z " fill="#000000" transform="translate(338,238)"/>
<path d="M0 0 C2 1 2 1 2 1 Z " fill="#000000" transform="translate(293,238)"/>
<path d="M0 0 C2 1 2 1 2 1 Z " fill="#000000" transform="translate(220,238)"/>
<path d="M0 0 C2 1 2 1 2 1 Z " fill="#000000" transform="translate(209,238)"/>
<path d="M0 0 C2 1 2 1 2 1 Z " fill="#000000" transform="translate(733,237)"/>
<path d="M0 0 C2 1 2 1 2 1 Z " fill="#000000" transform="translate(610,237)"/>
<path d="M0 0 C2 1 2 1 2 1 Z " fill="#000000" transform="translate(353,237)"/>
<path d="M0 0 C2 1 2 1 2 1 Z " fill="#000000" transform="translate(335,237)"/>
<path d="M0 0 C2 1 2 1 2 1 Z " fill="#000000" transform="translate(222,237)"/>
<path d="M0 0 C2 1 2 1 2 1 Z " fill="#000000" transform="translate(0,237)"/>
<path d="M0 0 C2 1 2 1 2 1 Z " fill="#000000" transform="translate(739,236)"/>
<path d="M0 0 C2 1 2 1 2 1 Z " fill="#000000" transform="translate(730,236)"/>
<path d="M0 0 C2 1 2 1 2 1 Z " fill="#000000" transform="translate(692,236)"/>
<path d="M0 0 C2 1 2 1 2 1 Z " fill="#000000" transform="translate(665,236)"/>
<path d="M0 0 C2 1 2 1 2 1 Z " fill="#000000" transform="translate(630,236)"/>
<path d="M0 0 C2 1 2 1 2 1 Z " fill="#000000" transform="translate(612,236)"/>
<path d="M0 0 C2 1 2 1 2 1 Z " fill="#000000" transform="translate(499,236)"/>
<path d="M0 0 C2 1 2 1 2 1 Z " fill="#000000" transform="translate(351,236)"/>
<path d="M0 0 C2 1 2 1 2 1 Z " fill="#000000" transform="translate(333,236)"/>
<path d="M0 0 C2 1 2 1 2 1 Z " fill="#000000" transform="translate(297,236)"/>
<path d="M0 0 C2 1 2 1 2 1 Z " fill="#000000" transform="translate(224,236)"/>
<path d="M0 0 C2 1 2 1 2 1 Z " fill="#000000" transform="translate(2,236)"/>
<path d="M0 0 C2 1 2 1 2 1 Z " fill="#000000" transform="translate(632,235)"/>
<path d="M0 0 C2 1 2 1 2 1 Z " fill="#000000" transform="translate(446,235)"/>
<path d="M0 0 C2 1 2 1 2 1 Z " fill="#000000" transform="translate(331,235)"/>
<path d="M0 0 C2 1 2 1 2 1 Z " fill="#000000" transform="translate(272,235)"/>
<path d="M0 0 C2 1 2 1 2 1 Z " fill="#000000" transform="translate(634,234)"/>
<path d="M0 0 C2 1 2 1 2 1 Z " fill="#000000" transform="translate(617,234)"/>
<path d="M0 0 C2 1 2 1 2 1 Z " fill="#000000" transform="translate(534,234)"/>
<path d="M0 0 C2 1 2 1 2 1 Z " fill="#000000" transform="translate(346,234)"/>
<path d="M0 0 C2 1 2 1 2 1 Z " fill="#000000" transform="translate(329,234)"/>
<path d="M0 0 C2 1 2 1 2 1 Z " fill="#000000" transform="translate(636,233)"/>
<path d="M0 0 C2 1 2 1 2 1 Z " fill="#000000" transform="translate(619,233)"/>
<path d="" fill="#000000" transform="translate(0,0)"/>
<path d="M0 0 C2 1 2 1 2 1 Z " fill="#000000" transform="translate(344,233)"/>
<path d="M0 0 C2 1 2 1 2 1 Z " fill="#000000" transform="translate(327,233)"/>
<path d="M0 0 C2 1 2 1 2 1 Z " fill="#000000" transform="translate(299,233)"/>
<path d="M0 0 C2 1 2 1 2 1 Z " fill="#000000" transform="translate(275,233)"/>
<path d="M0 0 C2 1 2 1 2 1 Z " fill="#000000" transform="translate(690,232)"/>
<path d="M0 0 C2 1 2 1 2 1 Z " fill="#000000" transform="translate(663,232)"/>
<path d="M0 0 C2 1 2 1 2 1 Z " fill="#000000" transform="translate(639,232)"/>
<path d="M0 0 C2 1 2 1 2 1 Z " fill="#000000" transform="translate(622,232)"/>
<path d="M0 0 C2 1 2 1 2 1 Z " fill="#000000" transform="translate(601,232)"/>
<path d="M0 0 C2 1 2 1 2 1 Z " fill="#000000" transform="translate(494,232)"/>
<path d="M0 0 C2 1 2 1 2 1 Z " fill="#000000" transform="translate(749,231)"/>
<path d="M0 0 C2 1 2 1 2 1 Z " fill="#000000" transform="translate(688,231)"/>
<path d="M0 0 C2 1 2 1 2 1 Z " fill="#000000" transform="translate(666,231)"/>
<path d="M0 0 C2 1 2 1 2 1 Z " fill="#000000" transform="translate(641,231)"/>
<path d="M0 0 C2 1 2 1 2 1 Z " fill="#000000" transform="translate(603,231)"/>
<path d="M0 0 C2 1 2 1 2 1 Z " fill="#000000" transform="translate(530,231)"/>
<path d="M0 0 C2 1 2 1 2 1 Z " fill="#000000" transform="translate(515,231)"/>
<path d="M0 0 C2 1 2 1 2 1 Z " fill="#000000" transform="translate(468,231)"/>
<path d="M0 0 C2 1 2 1 2 1 Z " fill="#000000" transform="translate(444,231)"/>
<path d="M0 0 C2 1 2 1 2 1 Z " fill="#000000" transform="translate(429,231)"/>
<path d="M0 0 C2 1 2 1 2 1 Z " fill="#000000" transform="translate(322,231)"/>
<path d="M0 0 C2 1 2 1 2 1 Z " fill="#000000" transform="translate(201,231)"/>
<path d="M0 0 C2 1 2 1 2 1 Z " fill="#000000" transform="translate(643,230)"/>
<path d="M0 0 C2 1 2 1 2 1 Z " fill="#000000" transform="translate(605,230)"/>
<path d="M0 0 C2 1 2 1 2 1 Z " fill="#000000" transform="translate(513,230)"/>
<path d="M0 0 C2 1 2 1 2 1 Z " fill="#000000" transform="translate(491,230)"/>
<path d="M0 0 C2 1 2 1 2 1 Z " fill="#000000" transform="translate(446,230)"/>
<path d="M0 0 C2 1 2 1 2 1 Z " fill="#000000" transform="translate(320,230)"/>
<path d="M0 0 C2 1 2 1 2 1 Z " fill="#000000" transform="translate(264,230)"/>
<path d="M0 0 C2 1 2 1 2 1 Z " fill="#000000" transform="translate(204,230)"/>
<path d="M0 0 C2 1 2 1 2 1 Z " fill="#000000" transform="translate(799,229)"/>
<path d="M0 0 C2 1 2 1 2 1 Z " fill="#000000" transform="translate(793,229)"/>
<path d="M0 0 C2 1 2 1 2 1 Z " fill="#000000" transform="translate(607,229)"/>
<path d="M0 0 C2 1 2 1 2 1 Z " fill="#000000" transform="translate(511,229)"/>
<path d="M0 0 C2 1 2 1 2 1 Z " fill="#000000" transform="translate(448,229)"/>
<path d="" fill="#000000" transform="translate(0,0)"/>
<path d="M0 0 C2 1 2 1 2 1 Z " fill="#000000" transform="translate(317,229)"/>
<path d="M0 0 C2 1 2 1 2 1 Z " fill="#000000" transform="translate(266,229)"/>
<path d="M0 0 C2 1 2 1 2 1 Z " fill="#000000" transform="translate(206,229)"/>
<path d="M0 0 C2 1 2 1 2 1 Z " fill="#000000" transform="translate(166,229)"/>
<path d="M0 0 C2 1 2 1 2 1 Z " fill="#000000" transform="translate(609,228)"/>
<path d="M0 0 C2 1 2 1 2 1 Z " fill="#000000" transform="translate(509,228)"/>
<path d="M0 0 C2 1 2 1 2 1 Z " fill="#000000" transform="translate(355,228)"/>
<path d="M0 0 C2 1 2 1 2 1 Z " fill="#000000" transform="translate(611,227)"/>
<path d="" fill="#000000" transform="translate(0,0)"/>
<path d="" fill="#000000" transform="translate(0,0)"/>
<path d="M0 0 C2 1 2 1 2 1 Z " fill="#000000" transform="translate(353,227)"/>
<path d="M0 0 C2 1 2 1 2 1 Z " fill="#000000" transform="translate(211,227)"/>
<path d="M0 0 C2 1 2 1 2 1 Z " fill="#000000" transform="translate(613,226)"/>
<path d="" fill="#000000" transform="translate(0,0)"/>
<path d="" fill="#000000" transform="translate(0,0)"/>
<path d="M0 0 C2 1 2 1 2 1 Z " fill="#000000" transform="translate(351,226)"/>
<path d="M0 0 C2 1 2 1 2 1 Z " fill="#000000" transform="translate(772,225)"/>
<path d="M0 0 C2 1 2 1 2 1 Z " fill="#000000" transform="translate(615,225)"/>
<path d="M0 0 C2 1 2 1 2 1 Z " fill="#000000" transform="translate(522,225)"/>
<path d="M0 0 C2 1 2 1 2 1 Z " fill="#000000" transform="translate(437,225)"/>
<path d="M0 0 C2 1 2 1 2 1 Z " fill="#000000" transform="translate(349,225)"/>
<path d="M0 0 C2 1 2 1 2 1 Z " fill="#000000" transform="translate(216,225)"/>
<path d="M0 0 C2 1 2 1 2 1 Z " fill="#000000" transform="translate(186,225)"/>
<path d="M0 0 C2 1 2 1 2 1 Z " fill="#000000" transform="translate(347,224)"/>
<path d="M0 0 C2 1 2 1 2 1 Z " fill="#000000" transform="translate(519,223)"/>
<path d="M0 0 C2 1 2 1 2 1 Z " fill="#000000" transform="translate(440,223)"/>
<path d="M0 0 C2 1 2 1 2 1 Z " fill="#000000" transform="translate(345,223)"/>
<path d="M0 0 C2 1 2 1 2 1 Z " fill="#000000" transform="translate(189,223)"/>
<path d="M0 0 C2 1 2 1 2 1 Z " fill="#000000" transform="translate(517,222)"/>
<path d="M0 0 C2 1 2 1 2 1 Z " fill="#000000" transform="translate(483,222)"/>
<path d="M0 0 C2 1 2 1 2 1 Z " fill="#000000" transform="translate(477,222)"/>
<path d="M0 0 C2 1 2 1 2 1 Z " fill="#000000" transform="translate(442,222)"/>
<path d="M0 0 C2 1 2 1 2 1 Z " fill="#000000" transform="translate(343,222)"/>
<path d="M0 0 C2 1 2 1 2 1 Z " fill="#000000" transform="translate(197,222)"/>
<path d="M0 0 C2 1 2 1 2 1 Z " fill="#000000" transform="translate(191,222)"/>
<path d="M0 0 C2 1 2 1 2 1 Z " fill="#000000" transform="translate(515,221)"/>
<path d="M0 0 C2 1 2 1 2 1 Z " fill="#000000" transform="translate(444,221)"/>
<path d="M0 0 C2 1 2 1 2 1 Z " fill="#000000" transform="translate(558,220)"/>
<path d="M0 0 C2 1 2 1 2 1 Z " fill="#000000" transform="translate(547,220)"/>
<path d="M0 0 C2 1 2 1 2 1 Z " fill="#000000" transform="translate(513,220)"/>
<path d="M0 0 C2 1 2 1 2 1 Z " fill="#000000" transform="translate(486,220)"/>
<path d="M0 0 C2 1 2 1 2 1 Z " fill="#000000" transform="translate(474,220)"/>
<path d="M0 0 C2 1 2 1 2 1 Z " fill="#000000" transform="translate(446,220)"/>
<path d="M0 0 C2 1 2 1 2 1 Z " fill="#000000" transform="translate(412,220)"/>
<path d="M0 0 C2 1 2 1 2 1 Z " fill="#000000" transform="translate(400,220)"/>
<path d="M0 0 C2 1 2 1 2 1 Z " fill="#000000" transform="translate(590,219)"/>
<path d="M0 0 C2 1 2 1 2 1 Z " fill="#000000" transform="translate(510,219)"/>
<path d="M0 0 C2 1 2 1 2 1 Z " fill="#000000" transform="translate(488,219)"/>
<path d="M0 0 C2 1 2 1 2 1 Z " fill="#000000" transform="translate(472,219)"/>
<path d="M0 0 C2 1 2 1 2 1 Z " fill="#000000" transform="translate(448,219)"/>
<path d="M0 0 C2 1 2 1 2 1 Z " fill="#000000" transform="translate(490,218)"/>
<path d="M0 0 C2 1 2 1 2 1 Z " fill="#000000" transform="translate(470,218)"/>
<path d="" fill="#000000" transform="translate(0,0)"/>
<path d="" fill="#000000" transform="translate(0,0)"/>
<path d="" fill="#000000" transform="translate(0,0)"/>
<path d="" fill="#000000" transform="translate(0,0)"/>
<path d="" fill="#000000" transform="translate(0,0)"/>
<path d="" fill="#000000" transform="translate(0,0)"/>
<path d="" fill="#000000" transform="translate(0,0)"/>
<path d="" fill="#000000" transform="translate(0,0)"/>
<path d="" fill="#000000" transform="translate(0,0)"/>
<path d="" fill="#000000" transform="translate(0,0)"/>
<path d="" fill="#000000" transform="translate(0,0)"/>
<path d="" fill="#000000" transform="translate(0,0)"/>
<path d="" fill="#000000" transform="translate(0,0)"/>
<path d="" fill="#000000" transform="translate(0,0)"/>
<path d="" fill="#000000" transform="translate(0,0)"/>
<path d="" fill="#000000" transform="translate(0,0)"/>
<path d="" fill="#000000" transform="translate(0,0)"/>
<path d="" fill="#000000" transform="translate(0,0)"/>
<path d="" fill="#000000" transform="translate(0,0)"/>
<path d="" fill="#000000" transform="translate(0,0)"/>
<path d="" fill="#000000" transform="translate(0,0)"/>
<path d="" fill="#000000" transform="translate(0,0)"/>
<path d="" fill="#000000" transform="translate(0,0)"/>
<path d="" fill="#000000" transform="translate(0,0)"/>
<path d="" fill="#000000" transform="translate(0,0)"/>
<path d="" fill="#000000" transform="translate(0,0)"/>
<path d="" fill="#000000" transform="translate(0,0)"/>
<path d="" fill="#000000" transform="translate(0,0)"/>
<path d="" fill="#000000" transform="translate(0,0)"/>
<path d="" fill="#000000" transform="translate(0,0)"/>
<path d="" fill="#000000" transform="translate(0,0)"/>
<path d="" fill="#000000" transform="translate(0,0)"/>
<path d="" fill="#000000" transform="translate(0,0)"/>
<path d="" fill="#000000" transform="translate(0,0)"/>
<path d="" fill="#000000" transform="translate(0,0)"/>
<path d="" fill="#000000" transform="translate(0,0)"/>
<path d="" fill="#000000" transform="translate(0,0)"/>
<path d="" fill="#000000" transform="translate(0,0)"/>
<path d="" fill="#000000" transform="translate(0,0)"/>
<path d="" fill="#000000" transform="translate(0,0)"/>
<path d="" fill="#000000" transform="translate(0,0)"/>
<path d="" fill="#000000" transform="translate(0,0)"/>
<path d="" fill="#000000" transform="translate(0,0)"/>
<path d="" fill="#000000" transform="translate(0,0)"/>
<path d="" fill="#000000" transform="translate(0,0)"/>
<path d="" fill="#000000" transform="translate(0,0)"/>
<path d="" fill="#000000" transform="translate(0,0)"/>
<path d="" fill="#000000" transform="translate(0,0)"/>
<path d="" fill="#000000" transform="translate(0,0)"/>
<path d="" fill="#000000" transform="translate(0,0)"/>
<path d="" fill="#000000" transform="translate(0,0)"/>
<path d="" fill="#000000" transform="translate(0,0)"/>
<path d="" fill="#000000" transform="translate(0,0)"/>
<path d="" fill="#000000" transform="translate(0,0)"/>
<path d="" fill="#000000" transform="translate(0,0)"/>
<path d="" fill="#000000" transform="translate(0,0)"/>
<path d="" fill="#000000" transform="translate(0,0)"/>
<path d="" fill="#000000" transform="translate(0,0)"/>
<path d="" fill="#000000" transform="translate(0,0)"/>
<path d="" fill="#000000" transform="translate(0,0)"/>
<path d="" fill="#000000" transform="translate(0,0)"/>
<path d="" fill="#000000" transform="translate(0,0)"/>
<path d="" fill="#000000" transform="translate(0,0)"/>
<path d="" fill="#000000" transform="translate(0,0)"/>
<path d="" fill="#000000" transform="translate(0,0)"/>
<path d="" fill="#000000" transform="translate(0,0)"/>
<path d="" fill="#000000" transform="translate(0,0)"/>
<path d="" fill="#000000" transform="translate(0,0)"/>
<path d="" fill="#000000" transform="translate(0,0)"/>
<path d="" fill="#000000" transform="translate(0,0)"/>
<path d="" fill="#000000" transform="translate(0,0)"/>
<path d="" fill="#000000" transform="translate(0,0)"/>
<path d="" fill="#000000" transform="translate(0,0)"/>
<path d="" fill="#000000" transform="translate(0,0)"/>
<path d="" fill="#000000" transform="translate(0,0)"/>
<path d="" fill="#000000" transform="translate(0,0)"/>
<path d="" fill="#000000" transform="translate(0,0)"/>
<path d="" fill="#000000" transform="translate(0,0)"/>
<path d="" fill="#000000" transform="translate(0,0)"/>
<path d="" fill="#000000" transform="translate(0,0)"/>
<path d="" fill="#000000" transform="translate(0,0)"/>
<path d="" fill="#000000" transform="translate(0,0)"/>
<path d="" fill="#000000" transform="translate(0,0)"/>
<path d="" fill="#000000" transform="translate(0,0)"/>
<path d="" fill="#000000" transform="translate(0,0)"/>
<path d="" fill="#000000" transform="translate(0,0)"/>
<path d="" fill="#000000" transform="translate(0,0)"/>
<path d="" fill="#000000" transform="translate(0,0)"/>
<path d="" fill="#000000" transform="translate(0,0)"/>
<path d="" fill="#000000" transform="translate(0,0)"/>
<path d="" fill="#000000" transform="translate(0,0)"/>
<path d="" fill="#000000" transform="translate(0,0)"/>
<path d="" fill="#000000" transform="translate(0,0)"/>
<path d="" fill="#000000" transform="translate(0,0)"/>
<path d="" fill="#000000" transform="translate(0,0)"/>
<path d="" fill="#000000" transform="translate(0,0)"/>
<path d="" fill="#000000" transform="translate(0,0)"/>
<path d="" fill="#000000" transform="translate(0,0)"/>
<path d="" fill="#000000" transform="translate(0,0)"/>
<path d="" fill="#000000" transform="translate(0,0)"/>
<path d="" fill="#000000" transform="translate(0,0)"/>
<path d="" fill="#000000" transform="translate(0,0)"/>
<path d="" fill="#000000" transform="translate(0,0)"/>
<path d="" fill="#000000" transform="translate(0,0)"/>
<path d="" fill="#000000" transform="translate(0,0)"/>
<path d="" fill="#000000" transform="translate(0,0)"/>
<path d="" fill="#000000" transform="translate(0,0)"/>
<path d="" fill="#000000" transform="translate(0,0)"/>
<path d="" fill="#000000" transform="translate(0,0)"/>
<path d="" fill="#000000" transform="translate(0,0)"/>
<path d="" fill="#000000" transform="translate(0,0)"/>
<path d="" fill="#000000" transform="translate(0,0)"/>
<path d="" fill="#000000" transform="translate(0,0)"/>
<path d="" fill="#000000" transform="translate(0,0)"/>
<path d="" fill="#000000" transform="translate(0,0)"/>
<path d="" fill="#000000" transform="translate(0,0)"/>
<path d="" fill="#000000" transform="translate(0,0)"/>
<path d="" fill="#000000" transform="translate(0,0)"/>
<path d="" fill="#000000" transform="translate(0,0)"/>
<path d="" fill="#000000" transform="translate(0,0)"/>
<path d="" fill="#000000" transform="translate(0,0)"/>
<path d="" fill="#000000" transform="translate(0,0)"/>
<path d="" fill="#000000" transform="translate(0,0)"/>
<path d="" fill="#000000" transform="translate(0,0)"/>
<path d="" fill="#000000" transform="translate(0,0)"/>
<path d="" fill="#000000" transform="translate(0,0)"/>
<path d="" fill="#000000" transform="translate(0,0)"/>
<path d="" fill="#000000" transform="translate(0,0)"/>
<path d="" fill="#000000" transform="translate(0,0)"/>
<path d="" fill="#000000" transform="translate(0,0)"/>
<path d="" fill="#000000" transform="translate(0,0)"/>
<path d="" fill="#000000" transform="translate(0,0)"/>
<path d="" fill="#000000" transform="translate(0,0)"/>
<path d="" fill="#000000" transform="translate(0,0)"/>
<path d="" fill="#000000" transform="translate(0,0)"/>
<path d="" fill="#000000" transform="translate(0,0)"/>
<path d="" fill="#000000" transform="translate(0,0)"/>
<path d="" fill="#000000" transform="translate(0,0)"/>
<path d="" fill="#000000" transform="translate(0,0)"/>
<path d="" fill="#000000" transform="translate(0,0)"/>
<path d="" fill="#000000" transform="translate(0,0)"/>
<path d="" fill="#000000" transform="translate(0,0)"/>
<path d="" fill="#000000" transform="translate(0,0)"/>
<path d="" fill="#000000" transform="translate(0,0)"/>
<path d="" fill="#000000" transform="translate(0,0)"/>
<path d="" fill="#000000" transform="translate(0,0)"/>
<path d="" fill="#000000" transform="translate(0,0)"/>
<path d="" fill="#000000" transform="translate(0,0)"/>
<path d="" fill="#000000" transform="translate(0,0)"/>
<path d="" fill="#000000" transform="translate(0,0)"/>
<path d="" fill="#000000" transform="translate(0,0)"/>
<path d="" fill="#000000" transform="translate(0,0)"/>
<path d="" fill="#000000" transform="translate(0,0)"/>
<path d="" fill="#000000" transform="translate(0,0)"/>
<path d="" fill="#000000" transform="translate(0,0)"/>
<path d="" fill="#000000" transform="translate(0,0)"/>
<path d="" fill="#000000" transform="translate(0,0)"/>
<path d="" fill="#000000" transform="translate(0,0)"/>
<path d="" fill="#000000" transform="translate(0,0)"/>
<path d="" fill="#000000" transform="translate(0,0)"/>
<path d="" fill="#000000" transform="translate(0,0)"/>
<path d="" fill="#000000" transform="translate(0,0)"/>
<path d="" fill="#000000" transform="translate(0,0)"/>
<path d="" fill="#000000" transform="translate(0,0)"/>
<path d="" fill="#000000" transform="translate(0,0)"/>
<path d="" fill="#000000" transform="translate(0,0)"/>
<path d="" fill="#000000" transform="translate(0,0)"/>
<path d="" fill="#000000" transform="translate(0,0)"/>
<path d="" fill="#000000" transform="translate(0,0)"/>
<path d="" fill="#000000" transform="translate(0,0)"/>
<path d="" fill="#000000" transform="translate(0,0)"/>
<path d="" fill="#000000" transform="translate(0,0)"/>
<path d="" fill="#000000" transform="translate(0,0)"/>
<path d="" fill="#000000" transform="translate(0,0)"/>
<path d="" fill="#000000" transform="translate(0,0)"/>
<path d="" fill="#000000" transform="translate(0,0)"/>
<path d="" fill="#000000" transform="translate(0,0)"/>
<path d="" fill="#000000" transform="translate(0,0)"/>
<path d="" fill="#000000" transform="translate(0,0)"/>
<path d="" fill="#000000" transform="translate(0,0)"/>
<path d="" fill="#000000" transform="translate(0,0)"/>
<path d="" fill="#000000" transform="translate(0,0)"/>
</svg>
