<?xml version="1.0" standalone="no"?>
<!DOCTYPE svg PUBLIC "-//W3C//DTD SVG 20010904//EN"
 "http://www.w3.org/TR/2001/REC-SVG-20010904/DTD/svg10.dtd">
<svg version="1.0" xmlns="http://www.w3.org/2000/svg"
 width="947.000000pt" height="233.000000pt" viewBox="0 0 947.000000 233.000000"
 preserveAspectRatio="xMidYMid meet">
<metadata>
Created by potrace 1.16, written by Peter Selinger 2001-2019
</metadata>
<g transform="translate(0.000000,233.000000) scale(0.100000,-0.100000)"
fill="#602A02" stroke="none">
<path d="M8824 2279 c-5 -8 -1 -17 10 -23 49 -29 59 -42 52 -69 -3 -15 -18
-34 -32 -44 -24 -16 -31 -15 -117 5 -228 53 -503 75 -699 54 -119 -13 -295
-62 -403 -112 -77 -35 -273 -151 -325 -192 l-25 -20 -7 45 c-9 63 -34 111 -89
171 l-47 51 -7 -30 c-26 -118 -75 -255 -134 -377 -134 -277 -266 -454 -403
-541 -16 -10 -28 -14 -28 -10 0 3 25 43 55 88 103 154 145 275 145 425 0 95
-30 241 -63 305 -42 84 -137 167 -222 195 -39 13 -201 18 -212 6 -3 -3 8 -21
25 -40 53 -61 53 -113 -1 -276 -27 -80 -32 -110 -31 -190 0 -86 4 -108 44
-225 41 -120 44 -137 44 -230 -1 -80 -5 -110 -22 -148 -97 -215 -384 -480
-707 -651 -147 -78 -441 -204 -451 -193 -2 2 18 27 45 55 107 111 144 283 69
323 -21 11 -22 8 -33 -56 -19 -114 -148 -256 -302 -334 -44 -22 -168 -54 -186
-48 -5 1 9 23 32 47 23 25 50 61 60 80 21 40 41 125 41 176 0 73 -75 167 -146
180 -73 13 -160 -11 -204 -58 -28 -31 -25 -48 9 -48 67 0 151 -104 136 -169
-19 -89 -110 -151 -290 -197 -85 -22 -113 -25 -187 -19 -157 11 -436 73 -471
105 -4 4 41 10 100 13 178 10 327 69 428 171 50 51 94 120 83 131 -3 3 -49 9
-102 14 -53 4 -99 11 -102 14 -12 11 6 24 50 37 113 31 191 159 225 370 24
141 26 197 10 255 -13 49 -70 175 -78 175 -4 0 -23 -33 -43 -72 -48 -99 -104
-158 -191 -206 -99 -55 -149 -101 -197 -180 l-40 -67 0 62 c0 83 -15 116 -49
108 -45 -11 -164 -67 -216 -100 -74 -48 -109 -90 -154 -186 -47 -100 -108
-164 -166 -175 -66 -12 -166 1 -240 33 -39 16 -145 74 -235 128 -183 110 -179
99 -50 124 52 11 320 116 495 194 120 54 186 69 330 74 174 7 205 24 205 112
0 43 -18 61 -59 61 -12 0 -21 4 -21 9 0 22 54 71 95 87 44 16 53 16 166 -2 47
-8 93 16 115 58 12 22 15 50 12 103 -4 85 -37 145 -93 172 -19 9 -35 19 -35
23 0 10 181 77 241 89 71 15 131 3 217 -45 35 -19 68 -32 73 -28 32 19 -44
166 -123 239 -65 60 -102 75 -253 101 -254 45 -441 -18 -621 -209 -82 -88
-114 -132 -254 -352 -118 -186 -133 -205 -240 -308 -174 -166 -353 -252 -546
-264 -62 -4 -93 -2 -98 5 -4 7 4 14 21 18 120 26 225 59 263 81 66 39 190 169
227 238 17 33 48 107 68 165 20 58 47 123 60 146 31 53 96 111 152 136 55 24
49 34 -43 59 -212 59 -470 -40 -556 -212 -9 -19 -31 -70 -49 -113 -63 -156
-159 -262 -276 -306 -93 -35 -236 -61 -321 -58 -82 3 -94 16 -33 34 119 36
239 123 304 222 67 101 94 163 113 270 14 81 15 105 5 161 -33 179 -206 352
-354 355 -77 1 -203 -53 -273 -117 -75 -68 -98 -115 -98 -197 0 -102 49 -175
132 -197 43 -11 100 15 132 59 40 54 40 80 1 72 -22 -5 -32 -1 -45 17 -53 76
32 146 144 119 134 -32 208 -190 150 -318 -41 -91 -120 -191 -179 -226 -149
-90 -265 -131 -451 -161 -179 -28 -329 -75 -430 -134 -36 -21 -99 -58 -140
-82 -41 -24 -111 -62 -156 -84 -119 -60 -278 -170 -366 -254 -43 -40 -78 -67
-78 -60 0 26 93 154 160 219 72 71 136 108 297 170 125 47 199 94 235 146 43
62 41 82 -14 123 -26 20 -75 47 -109 60 -79 30 -66 38 83 49 101 8 120 13 183
44 146 74 220 208 115 208 -42 0 -43 11 -4 48 50 48 67 94 66 172 -1 36 6 116
14 179 9 70 12 117 6 123 -6 6 -43 -2 -95 -21 -48 -17 -125 -37 -172 -46 -78
-15 -92 -15 -161 -1 -113 24 -167 9 -262 -71 -40 -35 -62 -65 -94 -131 -40
-83 -43 -86 -49 -57 -15 68 -2 140 45 248 12 26 -9 22 -138 -27 -215 -82 -300
-171 -361 -382 -31 -109 -33 -218 -5 -330 23 -91 77 -207 116 -249 32 -34 32
-34 57 76 24 102 108 215 213 287 35 24 230 122 284 142 19 8 75 38 125 67 65
40 83 47 65 28 -26 -27 -100 -75 -250 -160 -104 -59 -222 -152 -284 -225 -64
-75 -99 -151 -142 -305 -34 -125 -79 -276 -130 -435 -73 -231 -87 -337 -58
-428 17 -53 111 -180 123 -165 4 4 15 33 24 64 21 67 80 162 129 205 20 17 62
44 94 60 51 25 71 29 146 29 82 0 89 -2 114 -27 35 -34 44 -110 19 -157 -9
-18 -14 -35 -12 -38 13 -12 103 41 157 92 76 74 104 131 97 202 -16 156 -156
228 -332 173 -39 -12 -76 -24 -82 -26 -31 -13 -8 14 36 43 121 80 321 127 511
121 109 -3 132 -7 175 -28 58 -29 95 -78 95 -126 l0 -33 -35 15 c-77 32 -165
8 -185 -49 -17 -50 -12 -177 9 -222 39 -84 109 -121 214 -110 204 20 287 109
287 309 0 94 -19 162 -76 265 -66 120 -116 164 -240 210 l-79 29 37 7 c20 4
99 5 175 3 161 -4 196 -16 289 -100 108 -99 154 -220 154 -406 l0 -114 43 7
c46 8 82 27 109 59 17 20 17 19 17 -44 1 -114 -65 -214 -161 -246 -47 -15 -48
-17 -35 -37 8 -12 45 -38 83 -57 57 -29 79 -35 129 -34 138 3 253 83 294 205
40 121 37 277 -6 364 -31 62 -138 203 -212 278 -41 42 -72 77 -68 77 18 0 165
-73 246 -122 115 -68 269 -188 330 -254 68 -74 111 -163 111 -228 0 -67 -19
-94 -68 -98 -35 -3 -37 -5 -34 -33 5 -49 45 -118 81 -142 44 -30 137 -31 198
-4 77 36 130 141 121 241 -3 27 -2 50 1 50 3 0 33 -16 66 -36 99 -60 310 -162
428 -208 124 -48 198 -68 463 -123 l179 -38 265 1 c274 1 431 12 563 39 103
21 317 84 447 130 218 78 419 49 523 -77 32 -38 35 -40 44 -22 19 37 46 182
39 209 -9 36 -46 68 -96 85 -86 28 -33 45 145 45 108 0 136 -3 165 -19 19 -10
87 -71 150 -135 91 -92 129 -123 182 -148 37 -18 74 -33 82 -33 13 0 30 84 39
194 2 28 2 28 34 -17 47 -68 77 -79 223 -87 101 -5 133 -11 168 -29 24 -12 45
-21 47 -19 2 2 11 48 21 102 14 82 15 113 5 184 -9 76 -15 90 -43 120 -47 48
-98 72 -158 72 -27 0 -50 4 -50 8 0 5 22 21 50 36 27 15 52 32 56 37 19 32
-166 142 -285 169 -80 19 -189 7 -316 -33 -131 -42 -153 -35 -85 24 49 43 263
156 348 184 37 12 75 16 121 13 97 -5 165 -42 269 -145 84 -83 160 -133 205
-133 21 0 24 7 35 70 7 39 12 84 12 100 0 42 16 37 41 -12 27 -54 46 -76 84
-96 43 -23 155 -19 230 7 32 12 60 21 61 21 1 0 7 -14 13 -30 13 -38 24 -38
55 3 37 48 48 85 49 157 0 110 -29 174 -104 226 -35 24 -55 30 -123 35 l-81 5
73 34 c39 19 72 37 72 41 0 13 -75 80 -115 104 -54 32 -154 55 -245 55 -90 0
-283 -31 -362 -59 -89 -31 -73 -6 52 81 202 141 412 205 593 178 158 -23 231
-66 286 -170 l33 -61 46 35 c26 19 61 51 77 71 26 33 30 44 28 96 -4 148 -115
226 -333 236 -58 2 -112 7 -120 9 -34 12 26 26 124 31 88 4 111 2 177 -19 97
-32 180 -87 229 -152 50 -68 55 -79 75 -167 9 -42 25 -90 36 -108 25 -41 75
-71 119 -71 19 0 55 -5 79 -11 37 -8 45 -7 56 7 19 26 35 7 35 -40 0 -23 5
-47 12 -54 20 -20 75 -14 105 12 27 23 28 28 28 118 0 86 -3 98 -36 168 -20
41 -58 99 -85 129 -41 45 -44 53 -24 46 62 -19 201 -158 245 -244 66 -131 85
-249 60 -372 -23 -119 -72 -215 -140 -277 -117 -107 -281 -125 -339 -38 -21
33 -21 34 17 50 42 17 67 67 67 136 0 66 -20 103 -73 135 -56 32 -123 41 -184
25 -67 -19 -164 -117 -188 -190 -37 -112 -4 -259 75 -338 16 -17 30 -33 30
-36 0 -3 -21 1 -47 9 -28 9 -89 15 -145 15 -209 0 -346 -63 -423 -195 -38 -64
-95 -229 -95 -273 0 -42 26 -152 40 -166 4 -4 25 10 46 34 72 80 141 98 283
74 190 -33 248 -13 435 149 125 109 168 135 270 164 103 30 135 50 245 151
101 93 95 95 105 -24 6 -72 34 -148 76 -209 45 -65 81 -87 155 -93 56 -4 69
-1 107 21 24 14 53 36 66 50 l23 25 -57 7 c-99 12 -144 85 -129 210 4 33 9
182 11 330 2 149 3 272 4 274 0 1 16 -11 35 -28 19 -17 48 -37 65 -46 41 -21
143 -46 152 -37 10 10 -59 197 -109 297 -62 121 -220 331 -319 423 -47 44 -82
82 -77 85 4 2 24 7 44 11 55 10 109 76 109 134 0 52 -30 130 -61 162 -59 58
-187 108 -205 79z m-5161 -514 c-10 -13 -21 -25 -25 -25 -8 0 -90 -111 -169
-230 -87 -131 -176 -218 -268 -263 -72 -36 -111 -46 -111 -28 0 5 4 11 9 13 5
2 53 39 106 83 70 58 129 120 210 221 110 136 226 254 253 254 9 0 8 -7 -5
-25z m3603 -526 c82 -13 249 -76 324 -124 70 -45 25 -43 -80 4 -176 78 -215
85 -482 86 -130 0 -230 4 -222 8 60 34 312 48 460 26z m-3260 -456 c-47 -90
-253 -242 -391 -288 -63 -21 -259 -33 -269 -16 -4 6 -1 11 6 11 50 0 214 33
265 54 73 29 279 161 345 223 55 50 64 53 44 16z m2534 -134 c115 -18 330
-104 330 -131 0 -11 -28 -3 -88 24 -124 55 -156 61 -397 67 -241 6 -246 8
-110 40 55 13 187 13 265 0z m1740 -159 c0 -19 -353 -210 -366 -197 -6 6 46
56 88 85 57 39 99 60 183 93 78 30 95 34 95 19z"/>
<path d="M5254 2206 c-50 -23 -100 -78 -138 -153 -20 -39 -20 -104 -1 -158 24
-65 18 -73 -22 -29 -47 51 -82 69 -157 83 -123 23 -225 -41 -300 -186 -32 -64
-15 -175 37 -232 40 -44 135 -108 186 -127 28 -10 51 -21 51 -24 0 -3 -29 -14
-64 -23 -114 -30 -179 -67 -205 -114 -14 -28 -14 -121 0 -179 14 -56 83 -134
142 -163 58 -28 135 -28 189 0 23 12 67 46 98 75 31 30 60 54 63 54 4 0 7 -42
7 -92 0 -74 4 -99 19 -124 28 -47 80 -82 138 -94 72 -16 116 8 163 86 33 55
35 64 34 141 0 46 0 83 1 83 1 0 21 -19 45 -41 66 -63 118 -82 222 -82 78 0
91 3 127 26 60 40 108 118 120 198 12 74 5 113 -33 169 -35 53 -83 79 -187
100 -50 10 -93 21 -96 24 -8 8 60 33 124 46 104 22 144 57 179 156 17 50 17
54 0 115 -27 99 -57 143 -119 174 -81 39 -143 43 -208 13 -30 -14 -76 -44
-104 -67 -54 -44 -71 -51 -60 -23 48 126 52 170 19 235 -25 48 -87 109 -129
127 -71 30 -88 31 -141 6z m143 -601 c49 -21 71 -41 95 -90 36 -70 23 -167
-31 -229 -43 -49 -151 -77 -214 -57 -43 14 -94 63 -113 108 -17 38 -18 130 -3
170 14 37 57 82 94 99 41 18 128 17 172 -1z"/>
<path d="M5280 1527 c-51 -25 -87 -115 -62 -153 11 -17 68 -44 94 -44 30 0 84
33 98 60 16 31 4 73 -33 107 -40 38 -65 46 -97 30z"/>
</g>
</svg>
