<?xml version="1.0" standalone="no"?>
<!DOCTYPE svg PUBLIC "-//W3C//DTD SVG 20010904//EN"
 "http://www.w3.org/TR/2001/REC-SVG-20010904/DTD/svg10.dtd">
<svg version="1.0" xmlns="http://www.w3.org/2000/svg"
 width="233.000000pt" height="947.000000pt" viewBox="0 0 233.000000 947.000000"
 preserveAspectRatio="xMidYMid meet">
<metadata>
Created by potrace 1.16, written by Peter Selinger 2001-2019
</metadata>
<g transform="translate(0.000000,947.000000) scale(0.100000,-0.100000)"
fill="#602A02" stroke="none">
<path d="M1125 9410 c-55 -20 -136 -55 -180 -77 -121 -62 -331 -220 -423 -319
-44 -47 -82 -82 -85 -77 -2 4 -7 24 -11 44 -10 55 -76 109 -134 109 -52 0
-130 -30 -162 -61 -17 -17 -42 -54 -56 -81 -44 -87 -31 -171 14 -93 25 42 53
45 87 10 29 -28 30 -38 9 -119 -51 -198 -76 -515 -56 -708 13 -119 62 -295
112 -403 35 -77 151 -273 192 -325 l20 -25 -45 -7 c-63 -9 -111 -34 -171 -89
l-51 -47 30 -7 c118 -26 255 -75 377 -134 277 -134 454 -266 541 -403 10 -16
14 -28 10 -28 -3 0 -43 25 -88 55 -154 103 -275 145 -425 145 -95 0 -241 -30
-305 -63 -84 -42 -167 -137 -195 -222 -13 -39 -18 -201 -6 -212 3 -3 21 8 40
25 61 53 113 53 276 -1 80 -27 110 -32 190 -31 86 0 108 4 225 44 120 41 137
44 230 44 80 -1 110 -5 148 -22 215 -97 480 -384 651 -707 78 -147 204 -441
193 -451 -2 -2 -27 18 -55 45 -111 107 -283 144 -323 69 -11 -21 -8 -22 56
-33 114 -19 256 -148 334 -302 22 -44 54 -168 48 -186 -1 -5 -23 9 -47 32 -25
23 -61 50 -80 60 -40 21 -125 41 -176 41 -73 0 -167 -75 -180 -146 -13 -73 11
-160 58 -204 31 -28 48 -25 48 9 0 67 104 151 169 136 89 -19 151 -110 197
-290 22 -85 25 -113 19 -187 -11 -157 -73 -436 -105 -471 -4 -4 -10 41 -13
100 -10 178 -69 327 -171 428 -51 50 -120 94 -131 83 -3 -3 -9 -49 -14 -102
-4 -53 -11 -99 -14 -102 -11 -12 -24 6 -37 50 -31 113 -159 191 -370 225 -141
24 -197 26 -255 10 -49 -13 -175 -70 -175 -78 0 -4 33 -23 73 -43 98 -48 157
-104 205 -191 55 -99 101 -149 180 -197 l67 -40 -62 0 c-83 0 -116 -15 -108
-49 11 -45 67 -164 100 -216 48 -74 90 -109 186 -154 100 -47 164 -108 175
-166 12 -66 -1 -166 -33 -240 -16 -39 -74 -145 -128 -235 -110 -183 -99 -179
-124 -50 -11 52 -116 320 -194 495 -54 120 -69 186 -74 330 -7 174 -24 205
-112 205 -43 0 -61 -18 -61 -59 0 -12 -4 -21 -9 -21 -22 0 -71 54 -87 95 -16
44 -16 53 2 166 8 47 -16 93 -58 115 -22 12 -50 15 -103 12 -85 -4 -145 -37
-172 -93 -9 -19 -19 -35 -23 -35 -10 0 -77 181 -89 241 -15 71 -3 131 45 217
19 35 32 68 28 73 -19 32 -166 -44 -239 -123 -60 -65 -75 -102 -101 -253 -45
-254 18 -441 209 -621 88 -82 132 -114 352 -254 186 -118 205 -133 308 -240
166 -174 252 -353 264 -546 4 -62 2 -93 -5 -98 -7 -4 -14 4 -18 21 -26 120
-59 225 -81 263 -39 66 -169 190 -238 227 -33 17 -107 48 -165 68 -58 20 -123
47 -146 60 -53 31 -111 96 -136 152 -24 55 -34 49 -59 -43 -59 -212 40 -470
212 -556 19 -9 70 -31 113 -49 156 -63 262 -159 306 -276 35 -92 61 -236 58
-319 -3 -82 -16 -96 -33 -37 -37 121 -124 241 -223 306 -101 67 -163 94 -270
113 -81 14 -105 15 -161 5 -179 -33 -352 -206 -355 -354 -1 -77 53 -203 117
-273 68 -75 115 -98 197 -98 102 0 175 49 197 132 11 43 -15 100 -59 132 -54
40 -80 40 -72 1 5 -22 1 -32 -17 -45 -76 -53 -146 32 -119 144 32 134 190 208
318 150 91 -41 191 -120 226 -179 90 -149 131 -265 161 -451 28 -179 75 -329
134 -430 21 -36 58 -99 82 -140 24 -41 62 -111 84 -156 60 -119 170 -278 254
-366 40 -43 67 -78 60 -78 -26 0 -154 93 -219 160 -71 72 -108 136 -170 297
-47 125 -94 199 -146 235 -62 43 -82 41 -123 -14 -20 -26 -47 -75 -60 -109
-30 -79 -38 -66 -49 83 -8 101 -13 120 -44 183 -74 146 -208 220 -208 115 0
-42 -11 -43 -48 -4 -48 50 -94 67 -172 66 -36 -1 -116 6 -179 14 -70 9 -117
12 -123 6 -6 -6 2 -43 21 -95 17 -48 37 -125 46 -172 15 -78 15 -92 1 -161
-24 -113 -9 -167 71 -262 35 -40 65 -62 131 -94 83 -40 86 -43 57 -49 -68 -15
-140 -2 -248 45 -26 12 -22 -9 27 -138 82 -215 171 -300 382 -361 109 -31 218
-33 330 -5 91 23 207 77 249 116 34 32 34 32 -76 57 -102 24 -215 108 -287
213 -24 35 -122 230 -142 284 -8 19 -38 75 -67 125 -40 65 -47 83 -28 65 27
-26 75 -100 160 -250 59 -104 152 -222 225 -284 75 -64 151 -99 305 -142 125
-34 276 -79 435 -130 231 -73 337 -87 428 -58 53 17 180 111 165 123 -4 4 -33
15 -64 24 -67 21 -162 80 -205 129 -17 20 -44 62 -60 94 -25 51 -29 71 -29
146 0 82 2 89 27 114 34 35 110 44 157 19 18 -9 35 -14 38 -12 12 13 -41 103
-92 157 -74 76 -131 104 -202 97 -156 -16 -228 -156 -173 -332 12 -39 24 -76
26 -82 13 -31 -14 -8 -43 36 -80 121 -127 321 -121 511 3 109 7 132 28 175 29
58 78 95 126 95 l33 0 -15 -35 c-32 -77 -8 -165 49 -185 50 -17 177 -12 222 9
84 39 121 109 110 214 -20 204 -109 287 -309 287 -94 0 -162 -19 -265 -76
-120 -66 -164 -116 -210 -240 l-29 -79 -7 37 c-4 20 -5 99 -3 175 4 161 16
196 100 289 99 108 220 154 406 154 l114 0 -7 43 c-8 46 -27 82 -59 109 -20
17 -19 17 44 17 114 1 214 -65 246 -161 15 -47 17 -48 37 -35 12 8 38 45 57
83 29 57 35 79 34 129 -3 138 -83 253 -205 294 -121 40 -277 37 -364 -6 -62
-31 -203 -138 -278 -212 -42 -41 -77 -72 -77 -68 0 18 73 165 122 246 68 115
188 269 254 330 74 68 163 111 228 111 67 0 94 -19 98 -68 3 -35 5 -37 33 -34
49 5 118 45 142 81 30 44 31 137 4 198 -36 77 -141 130 -241 121 -27 -3 -50
-2 -50 1 0 3 16 33 36 66 60 99 162 310 208 428 48 124 68 198 123 463 l38
179 -1 265 c-1 274 -12 431 -39 563 -21 103 -84 317 -130 447 -78 218 -49 419
77 523 38 32 40 35 22 44 -37 19 -182 46 -209 39 -36 -9 -68 -46 -85 -96 -28
-86 -45 -33 -45 145 0 108 3 136 19 165 10 19 71 87 135 150 92 91 123 129
149 182 17 37 32 74 32 82 0 13 -84 30 -194 39 -28 2 -28 2 17 34 68 47 79 77
87 223 5 101 11 133 29 168 12 24 21 45 19 47 -2 2 -48 11 -102 21 -82 14
-113 15 -184 5 -76 -9 -90 -15 -120 -43 -48 -47 -72 -98 -72 -158 0 -27 -4
-50 -8 -50 -5 0 -21 22 -36 50 -15 27 -32 52 -37 56 -32 19 -142 -166 -169
-285 -19 -80 -7 -189 33 -316 42 -131 35 -153 -24 -85 -43 49 -156 263 -184
348 -12 37 -16 75 -13 121 5 97 42 165 145 269 83 84 133 160 133 205 0 21 -7
24 -70 35 -39 7 -84 12 -100 12 -42 0 -37 16 13 41 53 27 75 46 95 84 23 43
19 155 -7 230 -12 32 -21 60 -21 61 0 1 13 7 30 13 38 13 38 24 -3 55 -48 37
-85 48 -157 49 -110 0 -174 -29 -226 -104 -24 -35 -30 -55 -35 -123 l-5 -81
-34 73 c-19 39 -37 72 -41 72 -13 0 -80 -75 -104 -115 -32 -54 -55 -154 -55
-245 0 -90 31 -283 59 -362 31 -89 6 -73 -81 52 -141 202 -205 412 -178 593
23 158 66 231 170 286 l61 33 -35 46 c-19 26 -51 61 -71 77 -33 26 -44 30 -96
28 -148 -4 -226 -115 -236 -333 -2 -58 -7 -112 -9 -120 -12 -34 -26 26 -31
124 -4 88 -2 111 19 177 32 97 87 180 152 229 68 50 79 55 167 75 42 9 90 25
108 36 41 25 71 75 71 119 0 19 5 55 11 79 8 37 7 45 -7 56 -26 19 -7 35 40
35 23 0 47 5 54 12 20 20 14 75 -12 105 -23 27 -28 28 -118 28 -86 0 -98 -3
-168 -36 -41 -20 -99 -58 -129 -85 -45 -41 -53 -44 -46 -24 19 62 158 201 244
245 131 66 249 85 372 60 119 -23 215 -72 277 -140 107 -117 125 -281 38 -339
-33 -21 -34 -21 -50 17 -17 42 -67 67 -136 67 -66 0 -103 -20 -135 -73 -32
-56 -41 -123 -25 -184 19 -67 117 -164 190 -188 112 -37 259 -4 338 75 17 16
33 30 36 30 3 0 -1 -21 -9 -47 -9 -28 -15 -89 -15 -145 0 -209 63 -346 195
-423 64 -38 229 -95 273 -95 42 0 152 26 166 40 4 4 -10 25 -34 46 -80 72 -98
141 -74 283 33 190 13 248 -149 435 -109 125 -135 168 -164 270 -30 103 -50
135 -151 245 -93 101 -95 95 24 105 72 6 148 34 209 76 65 45 87 81 93 155 4
56 1 69 -21 107 -14 24 -36 53 -50 66 l-25 23 -7 -57 c-12 -99 -85 -144 -210
-129 -33 4 -181 9 -330 11 -148 2 -271 3 -273 4 -2 0 13 19 32 42 52 61 101
206 71 213 -5 2 -55 -14 -110 -35z m780 -1224 c54 -92 139 -266 132 -272 -12
-12 -96 95 -136 174 -20 40 -71 172 -71 186 0 25 27 -8 75 -88z m-694 -676
c-78 -176 -85 -215 -86 -482 0 -130 -4 -230 -8 -222 -34 60 -48 310 -26 460
13 82 76 249 124 324 45 70 43 25 -4 -80z m603 -662 c-3 -13 -15 -42 -26 -66
-55 -124 -61 -156 -67 -397 -5 -201 -8 -225 -18 -190 -60 199 -35 418 70 618
30 57 55 78 41 35z m-209 -2885 c88 -81 195 -244 230 -348 21 -63 33 -259 16
-269 -6 -4 -11 -1 -11 6 0 50 -33 214 -54 265 -27 69 -179 304 -221 343 -15
14 -31 33 -37 43 -9 17 -8 17 19 3 15 -8 42 -27 58 -43z m-1015 -325 c0 -8
111 -90 230 -169 131 -87 218 -176 263 -268 36 -72 46 -111 28 -111 -5 0 -11
4 -13 9 -1 5 -39 53 -83 106 -58 70 -120 129 -221 210 -136 110 -254 226 -254
253 0 9 7 8 25 -5 13 -10 25 -21 25 -25z"/>
<path d="M1089 6006 c-94 -33 -132 -86 -159 -217 -10 -50 -21 -93 -24 -96 -8
-8 -33 60 -46 124 -22 104 -57 144 -156 179 -50 17 -54 17 -115 0 -99 -27
-143 -57 -174 -119 -39 -81 -43 -143 -13 -208 14 -30 44 -76 67 -104 44 -54
51 -71 24 -60 -134 51 -175 53 -248 10 -61 -36 -103 -85 -125 -149 l-21 -58
24 -52 c24 -52 78 -101 154 -140 39 -20 104 -20 158 -1 65 24 73 18 29 -22
-51 -47 -69 -82 -83 -157 -23 -123 41 -225 186 -300 64 -32 175 -15 232 37 44
40 108 135 127 186 10 28 21 51 24 51 3 0 14 -29 23 -64 30 -114 67 -179 114
-205 28 -14 121 -14 179 0 56 14 134 83 163 142 28 58 28 135 0 189 -12 23
-46 67 -75 98 -30 31 -54 60 -54 63 0 4 42 7 93 7 73 0 98 4 123 19 47 28 82
80 94 138 16 72 -8 116 -86 163 -55 33 -64 35 -141 34 -46 0 -83 0 -83 1 0 1
19 21 41 45 63 66 82 118 82 222 0 78 -3 91 -26 127 -40 60 -118 108 -197 120
-77 13 -67 13 -111 -3z m-94 -514 c63 -31 101 -87 111 -166 11 -79 -36 -159
-113 -192 -41 -18 -134 -18 -176 0 -39 16 -82 61 -96 99 -25 65 -6 172 37 220
55 61 159 78 237 39z"/>
<path d="M875 5410 c-37 -15 -78 -68 -78 -100 0 -49 61 -100 120 -100 36 0 47
8 67 47 20 40 20 66 1 103 -26 51 -65 69 -110 50z"/>
</g>
</svg>
