<?xml version="1.0" standalone="no"?>
<!DOCTYPE svg PUBLIC "-//W3C//DTD SVG 20010904//EN"
 "http://www.w3.org/TR/2001/REC-SVG-20010904/DTD/svg10.dtd">
<svg version="1.0" xmlns="http://www.w3.org/2000/svg"
 width="947.000000pt" height="233.000000pt" viewBox="0 0 947.000000 233.000000"
 preserveAspectRatio="xMidYMid meet">
<metadata>
Created by potrace 1.16, written by Peter Selinger 2001-2019
</metadata>
<g transform="translate(0.000000,233.000000) scale(0.100000,-0.100000)"
fill="#602A02" stroke="none">
<path d="M4215 2310 c-77 -10 -321 -59 -455 -92 -158 -38 -446 -164 -625 -272
-33 -20 -63 -36 -66 -36 -3 0 -4 23 -1 50 9 100 -44 205 -121 241 -61 27 -154
26 -198 -4 -36 -24 -76 -93 -81 -142 -3 -28 -1 -30 34 -33 109 -9 86 -185 -43
-326 -61 -66 -215 -186 -330 -254 -81 -49 -228 -122 -246 -122 -4 0 27 35 68
78 74 74 181 215 212 277 43 87 46 243 6 364 -41 122 -156 202 -294 205 -50 1
-72 -5 -129 -34 -38 -19 -75 -45 -83 -57 -13 -20 -12 -22 35 -37 96 -32 162
-132 161 -246 0 -63 0 -64 -17 -44 -27 32 -63 51 -109 59 l-43 7 0 -114 c0
-186 -46 -307 -154 -406 -93 -84 -128 -96 -289 -100 -76 -2 -155 -1 -175 3
l-37 7 79 29 c124 46 174 90 240 210 57 103 76 171 76 265 0 152 -61 256 -170
288 -222 66 -349 -8 -350 -205 0 -42 5 -89 10 -106 20 -57 108 -81 185 -49
l35 15 0 -33 c0 -48 -37 -97 -95 -126 -43 -21 -66 -25 -175 -28 -190 -6 -390
41 -511 121 -44 29 -67 56 -36 43 225 -93 395 -33 414 147 7 71 -21 128 -97
202 -54 51 -144 104 -157 92 -2 -3 3 -20 12 -38 25 -47 16 -123 -19 -157 -25
-25 -32 -27 -114 -27 -75 0 -95 4 -146 29 -32 16 -74 43 -94 60 -49 43 -108
138 -129 205 -9 31 -20 60 -24 64 -12 15 -106 -112 -123 -165 -29 -91 -15
-197 58 -428 51 -159 96 -310 130 -435 43 -154 78 -230 142 -305 62 -73 180
-166 284 -225 150 -85 224 -133 250 -160 18 -19 0 -12 -65 28 -50 29 -106 59
-125 67 -54 20 -249 118 -284 142 -105 72 -189 185 -213 287 -25 110 -25 110
-57 76 -39 -42 -93 -158 -116 -249 -28 -112 -26 -221 5 -330 61 -211 146 -300
361 -382 129 -49 150 -53 138 -26 -47 107 -60 179 -45 247 6 29 9 26 49 -57
32 -66 54 -96 94 -131 95 -80 149 -95 262 -71 69 14 83 14 161 -1 47 -9 124
-29 172 -46 52 -19 89 -27 95 -21 6 6 3 53 -6 123 -8 63 -15 143 -14 179 1 78
-16 124 -66 172 -39 37 -38 48 4 48 105 0 31 134 -115 208 -63 31 -82 36 -183
44 -149 11 -162 19 -83 49 34 13 83 40 109 60 55 41 57 61 14 123 -36 52 -110
99 -235 146 -161 62 -225 99 -297 170 -67 65 -160 193 -160 219 0 7 35 -20 78
-60 88 -84 247 -194 366 -254 45 -22 115 -60 156 -84 41 -24 104 -61 140 -82
101 -59 251 -106 430 -134 186 -30 302 -71 451 -161 59 -35 138 -135 179 -226
58 -128 -16 -286 -150 -318 -112 -27 -197 43 -144 119 13 18 23 22 45 17 39
-8 39 18 -1 72 -65 90 -187 75 -242 -30 -31 -59 -31 -156 -1 -214 55 -104 232
-209 350 -208 148 3 321 176 354 355 10 56 9 80 -5 161 -44 241 -203 428 -421
493 -22 7 -39 16 -38 21 2 5 36 10 77 12 83 3 227 -23 319 -58 117 -44 213
-150 276 -306 47 -116 61 -141 110 -196 76 -85 232 -147 371 -148 57 0 184 30
202 48 7 7 -4 17 -35 30 -56 25 -121 83 -152 136 -13 23 -40 88 -60 146 -20
58 -51 132 -68 165 -37 69 -161 199 -227 238 -38 22 -143 55 -263 81 -17 4
-25 11 -21 18 5 7 36 9 98 5 193 -12 372 -98 546 -264 107 -103 122 -122 240
-308 140 -220 172 -264 254 -352 91 -97 180 -158 282 -195 114 -40 313 -33
481 17 68 20 158 103 200 182 35 66 49 118 34 127 -5 4 -38 -9 -73 -28 -86
-48 -146 -60 -217 -45 -60 12 -241 79 -241 89 0 4 16 14 35 23 56 27 89 87 93
172 3 53 0 81 -12 103 -22 42 -68 66 -115 58 -113 -18 -122 -18 -166 -2 -41
16 -95 65 -95 87 0 5 9 9 21 9 41 0 59 18 59 61 0 88 -31 105 -205 112 -144 5
-210 20 -330 74 -175 78 -443 183 -495 194 -129 25 -133 14 50 124 90 54 196
112 235 128 74 32 174 45 240 33 58 -11 119 -75 166 -175 45 -96 80 -138 154
-186 52 -33 171 -89 216 -100 34 -8 49 25 49 108 l0 62 40 -67 c48 -79 98
-125 197 -180 87 -48 143 -107 191 -205 20 -40 39 -73 43 -73 8 0 65 126 78
175 16 58 14 114 -10 255 -34 211 -112 339 -225 370 -44 13 -62 26 -50 37 3 3
49 10 102 14 53 5 99 11 102 14 11 11 -33 80 -83 131 -101 102 -250 161 -428
171 -59 3 -104 9 -100 13 35 32 314 94 471 105 74 6 102 3 187 -19 180 -46
271 -108 290 -197 15 -65 -69 -169 -136 -169 -34 0 -37 -17 -9 -48 44 -47 131
-71 204 -58 71 13 146 107 146 180 0 51 -20 136 -41 176 -10 19 -37 55 -60 80
-23 24 -37 46 -32 47 18 6 142 -26 186 -48 154 -78 283 -220 302 -334 11 -64
12 -67 33 -56 75 40 38 212 -69 323 -27 28 -47 53 -45 55 10 11 304 -115 451
-193 323 -171 610 -436 707 -651 17 -38 21 -68 22 -148 0 -93 -3 -110 -44
-230 -40 -117 -44 -139 -44 -225 -1 -80 4 -110 31 -190 54 -163 54 -215 1
-276 -17 -19 -28 -37 -25 -40 11 -12 173 -7 212 6 85 28 180 111 222 195 33
64 63 210 63 305 0 150 -42 271 -145 425 -30 45 -55 85 -55 88 0 9 43 -18 97
-61 172 -138 400 -560 468 -867 l7 -30 47 51 c55 60 80 108 89 171 l7 45 25
-20 c52 -41 248 -157 325 -192 108 -50 284 -99 403 -112 193 -20 510 5 708 56
81 21 91 20 119 -9 35 -34 32 -62 -10 -87 -78 -45 6 -58 93 -14 27 14 64 39
81 56 31 32 61 110 61 162 0 58 -54 124 -109 134 -20 4 -40 9 -44 11 -5 3 30
41 77 85 99 92 257 302 319 423 50 100 119 287 109 297 -9 9 -111 -16 -152
-37 -17 -9 -46 -29 -65 -46 -19 -17 -35 -29 -35 -28 -1 2 -2 126 -4 274 -2
149 -7 297 -11 330 -15 125 30 198 129 210 l57 7 -23 25 c-13 14 -42 36 -66
50 -38 22 -51 25 -107 21 -74 -6 -110 -28 -155 -93 -42 -61 -70 -137 -76 -209
-10 -119 -4 -117 -105 -24 -110 101 -142 121 -245 151 -102 29 -145 55 -270
164 -187 162 -245 182 -435 149 -142 -24 -211 -6 -283 74 -21 24 -42 38 -46
34 -14 -14 -40 -124 -40 -166 0 -44 57 -209 95 -273 77 -132 214 -195 423
-195 56 0 117 6 145 15 26 8 47 12 47 9 0 -3 -14 -19 -30 -36 -79 -79 -112
-226 -75 -338 24 -73 121 -171 188 -190 61 -16 128 -7 184 25 53 32 73 69 73
135 0 69 -25 119 -67 136 -38 16 -38 17 -17 50 58 87 222 69 339 -38 68 -62
117 -158 140 -277 25 -123 6 -241 -60 -372 -44 -86 -183 -225 -245 -244 -20
-7 -17 1 24 46 27 30 65 88 85 129 33 70 36 82 36 168 0 90 -1 95 -28 118 -30
26 -85 32 -105 12 -7 -7 -12 -31 -12 -54 0 -47 -16 -66 -35 -40 -11 14 -19 15
-56 7 -24 -6 -60 -11 -79 -11 -44 0 -94 -30 -119 -71 -11 -18 -27 -66 -36
-108 -20 -88 -25 -99 -75 -167 -49 -65 -132 -120 -229 -152 -66 -21 -89 -23
-177 -19 -98 5 -158 19 -124 31 8 2 62 7 120 9 218 10 329 88 333 236 2 52 -2
63 -28 96 -16 20 -51 52 -77 71 l-46 35 -33 -61 c-55 -104 -128 -147 -286
-170 -93 -14 -215 -2 -305 29 -112 39 -295 143 -375 214 -37 33 -27 37 35 16
79 -28 272 -59 362 -59 91 0 191 23 245 55 40 24 115 91 115 104 0 4 -33 22
-72 41 l-73 34 81 5 c68 5 88 11 123 35 75 52 104 116 104 226 -1 72 -12 109
-49 157 -31 41 -42 41 -55 3 -6 -16 -12 -30 -13 -30 -1 0 -29 9 -61 21 -75 26
-187 30 -230 7 -38 -20 -57 -42 -84 -95 -25 -50 -41 -55 -41 -13 0 16 -5 61
-12 100 -11 63 -14 70 -35 70 -45 0 -121 -50 -205 -133 -104 -103 -172 -140
-269 -145 -46 -3 -84 1 -121 13 -85 28 -299 141 -348 184 -68 59 -46 66 85 24
127 -40 236 -52 316 -33 119 27 304 137 285 169 -4 5 -29 22 -56 37 -28 15
-50 31 -50 36 0 4 23 8 50 8 60 0 111 24 158 72 28 30 34 44 43 120 10 71 9
102 -5 184 -10 54 -19 100 -21 102 -2 2 -23 -7 -47 -19 -35 -18 -67 -24 -168
-29 -146 -8 -176 -19 -223 -87 -32 -45 -32 -45 -34 -17 -9 110 -26 194 -39
194 -8 0 -45 -15 -82 -32 -53 -26 -91 -57 -182 -149 -63 -64 -131 -125 -150
-135 -29 -16 -57 -19 -165 -19 -178 0 -231 17 -145 45 50 17 87 49 96 85 7 27
-20 172 -39 209 -9 18 -12 16 -44 -22 -104 -126 -305 -155 -523 -77 -234 84
-454 139 -619 155 -139 14 -564 20 -646 10z m3790 -310 c153 -70 310 -170 269
-170 -11 0 -143 49 -177 66 -56 28 -151 95 -170 120 -10 13 -16 24 -13 24 2 0
43 -18 91 -40z m-4390 -165 c138 -46 344 -198 391 -288 14 -27 14 -28 -3 -19
-10 6 -29 22 -43 37 -39 42 -274 194 -343 221 -51 21 -215 54 -265 54 -7 0
-10 5 -6 11 10 17 206 5 269 -16z m3255 -24 c0 -13 -106 -66 -190 -94 -169
-58 -325 -62 -485 -14 -35 10 -11 13 190 18 241 6 272 12 397 67 75 33 88 37
88 23z m755 -570 c-22 -37 -260 -135 -362 -150 -146 -22 -398 -7 -457 26 -8 4
92 8 222 8 267 1 307 8 480 85 84 38 129 50 117 31z m-4424 -158 c92 -45 181
-132 268 -263 79 -119 161 -230 169 -230 4 0 15 -12 25 -25 13 -18 14 -25 5
-25 -27 0 -143 118 -253 254 -81 101 -140 163 -210 221 -53 44 -101 82 -106
83 -5 2 -9 8 -9 13 0 18 39 8 111 -28z"/>
<path d="M5286 1609 c-48 -11 -101 -50 -127 -93 -15 -25 -19 -50 -19 -123 0
-51 -3 -93 -7 -93 -3 0 -32 24 -63 54 -31 29 -75 63 -98 75 -54 28 -131 28
-189 0 -59 -29 -128 -107 -142 -163 -14 -58 -14 -151 0 -179 26 -47 91 -84
205 -114 35 -9 64 -20 64 -23 0 -3 -23 -14 -51 -24 -51 -19 -146 -83 -186
-127 -33 -36 -53 -92 -53 -149 0 -110 106 -239 221 -270 41 -11 136 3 184 27
16 9 47 34 68 57 40 44 46 36 22 -29 -19 -54 -19 -119 1 -158 39 -76 88 -130
140 -154 l52 -24 58 21 c64 22 113 64 149 125 43 73 41 114 -10 247 -11 28 6
21 60 -23 28 -23 74 -53 104 -67 65 -30 127 -26 208 13 62 31 92 75 119 174
17 61 17 65 0 115 -35 99 -75 134 -179 156 -64 13 -132 38 -124 46 3 3 46 14
97 24 132 27 192 74 220 172 26 89 -35 238 -121 295 -36 23 -49 26 -127 26
-104 0 -156 -19 -222 -82 -24 -22 -44 -41 -45 -41 -1 0 -1 37 -1 83 1 77 -1
86 -34 141 -23 39 -47 64 -72 77 -41 21 -45 21 -102 8z m120 -527 c69 -35 107
-98 107 -177 0 -116 -82 -195 -203 -195 -84 0 -153 44 -179 113 -15 40 -14
132 3 170 18 41 61 85 100 103 40 19 121 12 172 -14z"/>
<path d="M5255 983 c-16 -9 -33 -21 -37 -27 -12 -18 -9 -65 6 -94 38 -73 96
-85 151 -32 59 57 56 111 -8 150 -38 24 -72 25 -112 3z"/>
</g>
</svg>
